/* XPM */
static char *bomb_11664634567[] = {
/* columns rows colors chars-per-pixel */
"64 64 226 2 ",
"   c #02070B",
".  c #0C0C0C",
"X  c #030D14",
"o  c #080F14",
"O  c #0A1115",
"+  c #03121C",
"@  c #0B151B",
"#  c #151515",
"$  c #12171B",
"%  c #1A1A1A",
"&  c #041624",
"*  c #041926",
"=  c #0B1B25",
"-  c #041D2C",
";  c #0D1F2A",
":  c #141D22",
">  c #041F30",
",  c #18232A",
"<  c #042134",
"1  c #05263B",
"2  c #082638",
"3  c #06293E",
"4  c #08293E",
"5  c #192A35",
"6  c #1F303A",
"7  c #242424",
"8  c #20292F",
"9  c #2B2B2B",
"0  c #283239",
"q  c #333333",
"w  c #3D3D3D",
"e  c #7B633A",
"r  c #062B43",
"t  c #082D44",
"y  c #052F49",
"u  c #082F49",
"i  c #0E3045",
"p  c #06314C",
"a  c #09324C",
"s  c #16364A",
"d  c #053553",
"f  c #093653",
"g  c #063856",
"h  c #093856",
"j  c #063A5B",
"k  c #0A3C5C",
"l  c #263945",
"z  c #2D3C44",
"x  c #323F48",
"c  c #053F61",
"v  c #0A3F61",
"b  c #33424C",
"n  c #2E4751",
"m  c #2A4758",
"M  c #344753",
"N  c #334C5B",
"B  c #034266",
"V  c #0A4265",
"C  c #04456B",
"Z  c #0B456A",
"A  c #0B486E",
"S  c #154868",
"D  c #044B73",
"F  c #0B4B73",
"G  c #064F7A",
"H  c #0B4E79",
"J  c #06517D",
"K  c #0B517D",
"L  c #1A5276",
"P  c #27536A",
"I  c #355163",
"U  c #36576A",
"Y  c #295A77",
"T  c #345C75",
"R  c #34627D",
"E  c #424242",
"W  c #4C4C4C",
"Q  c #444E50",
"!  c #495555",
"~  c #545454",
"^  c #5C5C5C",
"/  c #596159",
"(  c #6F694C",
")  c #4C676B",
"_  c #476877",
"`  c #5C7679",
"'  c #656565",
"]  c #6A6A6A",
"[  c #677666",
"{  c #797D66",
"}  c #964A00",
"|  c #8A510B",
" . c #9C5401",
".. c #895817",
"X. c #A15D06",
"o. c #A05C10",
"O. c #9A692C",
"+. c #896E39",
"@. c #847347",
"#. c #86774E",
"$. c #768873",
"%. c #BC8E2F",
"&. c #A78338",
"*. c #B7823B",
"=. c #A4A63D",
"-. c #D8900F",
";. c #E09306",
":. c #E0930D",
">. c #FF9D00",
",. c #E19D19",
"<. c #FFA400",
"1. c #FFAB00",
"2. c #FFA80F",
"3. c #FFB700",
"4. c #E1A01C",
"5. c #FFAB19",
"6. c #C6942B",
"7. c #D2A134",
"8. c #FFB534",
"9. c #FFC300",
"0. c #FFC800",
"q. c #FFD600",
"w. c #FFDB00",
"e. c #FFE300",
"r. c #FFEC00",
"t. c #FFEB09",
"y. c #FFF100",
"u. c #918A50",
"i. c #BD9C45",
"p. c #B6AB50",
"a. c #A7A46A",
"s. c #C2A54F",
"d. c #C9A36F",
"f. c #BDC848",
"g. c #FFC560",
"h. c #055483",
"j. c #0B5583",
"k. c #0A5787",
"l. c #065A8B",
"z. c #0C5A8B",
"x. c #175E8B",
"c. c #055E92",
"v. c #0C5E93",
"b. c #2B5F81",
"n. c #1A628D",
"m. c #066095",
"M. c #0C6195",
"N. c #04649C",
"B. c #0C649B",
"V. c #0A689E",
"C. c #11669A",
"Z. c #316D8F",
"A. c #0566A1",
"S. c #0D67A1",
"D. c #056AA4",
"F. c #0B6BA4",
"G. c #046DAA",
"H. c #0C6EAC",
"J. c #116CA3",
"K. c #116EA9",
"L. c #0571AE",
"P. c #0C71AE",
"I. c #1273AD",
"U. c #1871AA",
"Y. c #0673B3",
"T. c #0B74B3",
"R. c #0A78B6",
"E. c #0B77BA",
"W. c #0778BA",
"Q. c #0B7CBC",
"!. c #1175B2",
"~. c #1479B4",
"^. c #117ABC",
"/. c #2F7CAA",
"(. c #4B788A",
"). c #067BC4",
"_. c #0C7DC2",
"`. c #117DC4",
"'. c #3981AD",
"]. c #3189B9",
"[. c #6B928E",
"{. c #4B90B0",
"}. c #6AA4A5",
"|. c #69AAB0",
" X c #0B82C5",
".X c #0C84CB",
"XX c #0C88CE",
"oX c #1283C4",
"OX c #1284CB",
"+X c #1289CD",
"@X c #0A86D3",
"#X c #0C8BD3",
"$X c #0C8CDB",
"%X c #1286D2",
"&X c #138BD4",
"*X c #158DD8",
"=X c #0C91DB",
"-X c #1793D7",
";X c #1594DB",
":X c #2E96CE",
">X c #3FA5DD",
",X c #0D96E2",
"<X c #0E99E5",
"1X c #0D9CEC",
"2X c #1294E6",
"3X c #1495E5",
"4X c #149CEB",
"5X c #0B9EF1",
"6X c #0EA1ED",
"7X c #0BA7F7",
"8X c #13A4F4",
"9X c #16A8F9",
"0X c #17B5FF",
"qX c #34A9E8",
"wX c #55A4C9",
"eX c #9CAF8D",
"rX c #CDAF8C",
"tX c #D6B894",
"yX c #91C089",
"uX c #FFD385",
"iX c #F1DDA0",
"pX c #EADCCD",
"aX c #FFFEC1",
"sX c #FCF0D4",
"dX c #FCF4EB",
"fX c #FFFEFE",
/* pixels */
"1 1 3 1 > > 1 > 1 > > > 1 > 1 > > > > > > > > > r > > - * & & & & * & & & & & & & * - > < > < > > - - - > > > 2 < < > > > > < 2 ",
"1 3 < < - > g v y r r r y r 1 1 t t u t r y r u r r > r k Z k f d p f p f p p p p j v f 2 < r p p y y y p a 3 3 3 3 3 a j d 3 < ",
"1 1 < & * k C.B.A f h v v d r r k v v k v v k v v u > c I.+X^.F.V.V.V.A.V.D.A.B.V.R.oXv.3 > j J J J J J J D c k j f k K L.m.d - ",
"< > & - f B.^.J.H v Z F A d r r v A A Z v Z Z F F a > c +X9X4X&XXXXXXXXXXX#XXX X X<X9X~.t - B N.N.N.N.N.l.J A Z Z k V V.#XQ.j * ",
"< * * d H._.S.H Z v Z F A g 1 y v H A Z A A A H F f > d W.1X3X&X X.X.X XXXXX.X X X,X8X!.r - B V.N.N.N.l.G A Z Z Z k v v.@XE.k - ",
"< < k B._.!.H h k v Z A A h 1 r v F A Z v v v F A f > p G.$X*XOX X X X X X X XR.Q.=X4XJ.1 1 h.G.c.h.J G A V v Z Z h h k.).Y.j * ",
"< g M.!.B.F k f j k v Z Z f 1 r k v v v v v v v v u - p A.).*X`. XR.Q. XQ. XR.T.R.#X4XJ.1 u v.K.J V V V V k k v k a h z.).G.d - ",
"< V M.z.v 4 r u a a a h h u > > a k h f f f f v v 4 * p N.).%X`.T.R.Y.R.R.R.P.'./.+X3XF.1 < F z.k 4 u a a f f i t a A H.@XA.d & ",
"> r k v u r r u y u u f h t > > u k h f f f f h k 1 & d A.@XOX`.R.R.R.R.[.@./.+.X.O.>X/.4 + 4 k a t u h h h h t r k S.$X$XA.d & ",
"- u A v.z.j.z.z.z.z.v.S.v.Z r u j.B.z.j.K j.z.B.B.c 1 k E.4X4X*X#XXXoX:XX.} d.O. .*.d.../ * h z.z.j.H j.K j.K F A M.%X9X5XH.j & ",
"> h v.`.`.`.`.E.E.!.`.`.`.z.y k S.`.`.`.^.`.`.%XOXj.r k _.8X9X4X4X3Xu.[.tX+.wX>XwXqX+. ...1 h._.`.`.E.{.].E.^.!.!.`.*X4X2XS.j - ",
"> d z.S.J.S.v.v.z.z.v.v.v.v 1 y z.E.E.P.!.K.H.H.S.c * 2 K !.!.K.U.[.....{.~.^.E.H.U./.@.Q Q Z B.B.B.v.f.}.H.P.P.P.F.S.S.B.j.p > ",
"> r y p u y r r 1 r 1 r r > * > r d p p d u y y y < + + > r r r t N +.e y u y y u u r M O.o.1 r ! r r m u.p p I g p u a a r 1 > ",
"> 1 > > - & * 2 p d d p p y 1 > > - - * * & * 2 f k j d u r r p ( e E & r r & + > > 1 (  ...r 1 #.&.d j _ r 5 %.+ @ - ( =.> > > ",
"> 1 u d u r u Z S.F.A.A.D.z.v y u u y u u r t S Z././.I.S.B.v.G.{  .( a j.j.r > c D D ] o.{ D C P :.%.:XT.j.u.-.X * I [ d y r > ",
"1 t v F F v v z.T.H.A._.$X`.z.v v Z A Z v v v j.5 % # O O i m Z./.rXZ F S.v.g y G c.l.(.rXn.n.$.J 8.>.,.}.(.;.;.= r v H H v y 1 ",
"> y k A A v v F j.h p j.`.`.z.v v v F A v A v v 5 ^ q # % % # . . : N Y H v r 1 V H R .. .tXaXt.aXuX1.1.<.<.1.<.5 1 V (.` u.y > ",
"> 1 f v k f h v v > & v `.`.j.h v v v v v v v v , ~ 9 # % % % % % % # = l N < 4 j Z P  .X.pXfXsXiXaX1.w.1.<.q.1.%.-.:.>.:.) y > ",
"> r h v v v v A v > - v `.`.v.v v v v v v v v L 8 w 7 % % % % % % % % q w @ 8 m k A _ rXtXfXdXdXfXfX8.w.r.q.e.1.<.1.1.,.$.j r > ",
"> y j.D.J.S.B.v.j.u > j.`.$Xv.v v v H F b.U x , % % % % % % % % % % % # q ^ q o U H ]  .*.fXsXg.8.8.5.3.y.r.r.e.r.q.<.%.A c y > ",
"- c H.).$X@X).T.j.1 > v `.`.z.k v Y I : . . # % % % % % % % % % % % % % # W ' @ T A _ ..O.fXfXfXuX<.9.w.r.t.r.y.e.<.2.H F k r > ",
"> p k.G.Y.H.A.h.p & + u z.z.v s z $ . % : % % % % % % % % % % % % % % % % ~ 9 z a k k ) tXd.sXdXtXiX5.0.r.r.r.r.w.1.2.$.F k t > ",
"- > d d d d g p 1 & + > y y x : . % % % % % % % % % % % % % % % % % % % % % # - > 1 1 ~ | } O.d.} pX8.9.r.r.r.r.e.e.0.,.,.{ i > ",
"* y v p + & d H j.v v v v N O # % % % % % % % % % % % % % % % % % % % % % % # U 1 r d 1 z ( ^ ( ^ ) 2.w.e.r.y.e.1.-.%.%.6.6.*.~ ",
"- F `.v.1 1 v.*X*X%X`.`.T = % % % % % % % % % % % % % % % % % % % % % % % % % = I F S.j.> r M.+XOX7.<.<.w.e.0.y.3.@.a Z Z g 3 < ",
"- j.3X`.a r v.%X`.*X4X(.; % % % % % % % % % % % % % % % % % % % % % % % % % % % O Z.`.v.r u !.4XeXs.|.7.w.3.>.3.3.%.g b.$.L r < ",
"* K ;XoXf - h j.j.S./.; % % % % % % % % % % % % % % % % % % % % % % % % % % % % % @ /.v.1 u J.qXwX&X.Xs.3.4.yXi.;.;.Y m.'.p.=.; ",
"* H &X`.d & 2 f u b., % % % % % % % % % % % % % % % % % % % % % % % % % % # 7 q % % 5 n.> r C.%X.X|._.a.>.p.XXV.&.;.$.V.N.G y > ",
"& K -XoXf & 1 h j x . % % % % % % % % % % % % % % % % % % % % % % % % % % % # q E % . m < 4 B.+XyX}. Xa.,.].XXV.- +.-. XG.G 3 > ",
"* j.4X+Xj - u F b.= % % % % % % % % % % % % % % % % % % % % % % % % % % % % % # W w % @ n t C.+X+XQ.Q.p.[. XXXV.* - $.]. XG p > ",
"- K ;X+Xk - y A N . % $ 9 % % % % % % % % % % % % % % % % % % % % % % % % % % # 7 ' 9 # 8 4 C.+X XQ.R.}. X XXXM.- - D D.D.J y > ",
"1 V M.z.p - < d ; % % 7 W % % % % % % % % % % % % % % % % % % % % % % % % % % % # W ~ # o m C.oX XR.P.P. X X Xm.> + 3 j c d 3 < ",
"> > r r > * > l . % % E ^ % % % % % % % % % % % % % % % % % % % % % % % % % % % # 9 ] 7 . x M.+XQ.T.Y.T.R. X Xm.<   X + + & - < ",
"> > - > 1 r r x . % % ^ ^ % % % % % % % % % % % % % % % % % % % % % % % % % % % % % ' w # 8 !.4X4X=X=X#X,X6X6XF.< o < g g y < < ",
"r r u h k k v N . % 7 ] ' 7 # % % % % % % % % % % % % % % % % % % % % % % % % % % # W ^ # $ /.8X9X4X4X4X8X9X9XC.- < j..X_.v.a * ",
"> r v A F c v x # # w ] ' q q 9 % % % % % % % % % % % % % % % % % % % % % % % % % # w ^ % . b.I.~.~.I.I.~.oX~.Z + y W.7X7XW.k * ",
"> y v F A A v 6 # # w ] ' ' E % % % % % % % % % % % % % % % % % % % % % % % % % % % 9 ^ % . b u p y t y u p a - X y Y.5X5XY.j * ",
"> p v H F F F 6 # # E ] ] ^ # # % % % % % % % % % % % % % % % % % % % % % % % % % # 9 ^ % . N i * + & * * * * & - j c.).).l.y - ",
"> u v Z v Z Z N # # w ] ' ' 7 7 q % % % % % % % % % % % % % % % % % % % % % % % % % 7 ~ % . b.j.f 1 1 r r r r t y j Z j.J c r > ",
"1 1 > 1 4 r a x . # w ] ' ] W ~ 9 % % % % % % % % % % % % % % % % % % % % % % % % # 9 E # . T v.V a a a f f a f h u u a a r 1 > ",
"> > & X + & - b . # 7 ' ] ' ] w # % % % % % % % % % % % % % % % % % % % % % % % % % 9 q % . N v h u a u a a a d a u u a a t 2 > ",
"> r u j d r > l O % % ^ ] ' ] w . q 7 % % % % % % % % % % % % % % % % % % % % % % % 7 7 % O P z.x.z.z.z.z.z.z.z.z.z.z.B.v.H u > ",
"- p v._.Q.J r r 6 # # x ] ' ' ' E W # % % % % % % % % % % % % % % % % % % % % % % % # % % : j._.`.`.^.^.^.E.E.^.E.^.`.`.`.B.h > ",
"* f E.7X6XA.p r I . # 7 ' ' ' ] ] q # % % % % % % % % % % % % % % % % % % % % % % % % % . l Z B.S.v.v.C.v.v.v.v.v.v.B.J.J.j.d < ",
"* d P.7X6XV.p < S : # # w ] ' ' ] E % q % % % % % % % % % % % % % % % % % % % % % % % % . z 1 r t y r r 3 r 3 r r r r y u r > > ",
"& f F.1X<XN.u < k I . % % W ] ' ' ' ~ q # % % % % % % % % % % % % % % % % % % % % % % # 6 f r 1 > > > > > < < < < 1 1 1 > > > > ",
"& p F.6X;Xm.u r J x.: % % % ^ ] ' ' ] w # % % % % % % % % % % % % % % % % % % % % % % & /.D.H B c C c D C C C C B B B D D c y > ",
"* p D.1X<Xm.y p c.N.T o % % 7 ~ ] ' ' ' q # % % % % % % % % % % % % % % % % % % % % # m $XE.v.h.h.l.N.A.N.A.A.c.l.G G D.@XH.k - ",
"* p F.6X<Xm.u d c.N.H N @ % % % E ] ] ] ] w % # % % % % % % % % % % % % % % % % % # : oXL.m.F v v H c.A.A.A.N.k.D k k B.3X`.A - ",
"& p F.1X;Xm.u r G h.D v 0 . % % % 7 W ] ] ] ^ 7 # % % % % % % % % % % % % % % % # O R J J D V h k c J l.k.k.h.C h h K K.`.C.f > ",
"* a F.1X<XN.u 1 c F Z V Z 0 @ % % % $ 7 w W ' ^ w % % % % % % % % % % % % % % # @ U V Z C Z V v v v Z F A A Z v k H J.S.H u > > ",
"* a D.1X;XN.y > h Z V V V V N @ % % % # % % % 7 7 % % % % % % % % % % % % % # @ R A Z Z Z Z Z Z Z Z A c Z v Z H z.P.P.j.r & - r ",
"& d P.6X<XV.y < f V Z V V c Z R ; . % % % % % $ % % % % % % % % % % % % # . 5 Y Z Z Z V V v V V v Z v v v k v v.`.`.j.> * * > > ",
"* j R.7X<XV.u > f S V V V V V Z L x $ . # % % % % % % % % % % % % % % . : I h g f a a a f f h h h v h f u > r j.!.v.>   X - > r ",
"* j P.6X<XV.p < f Z V v V v V Z A k l x : . . # % % % % % % # # . o , M s 3 1 2 1 1 2 2 1 1 2 3 r r r 4 > - - r v r + X & - > > ",
"> 3 B R.=XV.f 1 C F V v v v v Z v h > - h b.U l : % # % # # : z T R p 2 3 3 3 3 1 y d g d r r r r > & > v Z k r r f Z j.F h r > ",
"> + * H  XG.g y h.l.A k k k V Z V u > u S.$X@Xk.< @ = - - @ - h.=X.Xj.h h v k k h Z h.c.l.l.l.c.m.B 1 v oX4XXXD.A.E.;X8X2XA.p * ",
"- * 3 l. XV.d y l.m.J v k k v F H j 1 k `.8X$Xv.y > < r 1 > 1 h.@X).z.v v A Z V Z F l.c.c.c.V.L.L.C 2 A ;X0X6XXX.X2X8X0X8XE.d * ",
"- u l.XX;XD.p r h.N.m.G V k V K c.C r v `.2XH.F k h k v v h k Z j.z.F Z Z Z A Z Z Z A A A J c.L.L.C < Z -X0X6XXX.X#X,X8X5XT.h * ",
"- g T.7X7XP.g r l.G.G.N.k.F A k.c.B r B `.$Xv.k Z Z F F F F A Z V V Z Z A Z A Z A Z Z v v F c.Y.Y.C 1 A -X0X6X#X#X#X=X1X1XT.d * ",
"> p m.=X1XL.j p h.G.L.N.V.k.F H H k 1 F OXOXz.k V A F F A F A Z Z v Z Z Z A A A A Z Z v v F c.Y.L.D 3 A -X0X8X#X#X#X=X6X1XP.j * ",
"> 3 c m.P.l.p r C h.J J J D v k k t 1 k v.B.F d h k k k k v v k k k k k h k k h k k j h h c D h.l.j 2 j K.oXR.V.V.V.F.P.T.j.p < ",
"< < 1 p g p 2 < y y y y p y t 3 r < > r d d y 3 3 r r r r r r r r r y r r r t r 3 r 3 3 4 3 y p d 3 > 3 g j g p p p p j g u 1 < ",
"1 1 > * > > > > > > > > > > < < < < > - > > > > < > < < > > 1 > > > > > > 1 > > < < 2 < > < > > > > > * * * & & & & * * * > < 1 "
};
