/* XPM */
static char *bomb_21664634567[] = {
/* columns rows colors chars-per-pixel */
"64 64 230 2 ",
"   c #030304",
".  c #03080C",
"X  c #0C0C0C",
"o  c #030D14",
"O  c #0A0F13",
"+  c #0C1114",
"@  c #03121C",
"#  c #0C161C",
"$  c #141414",
"%  c #13181B",
"&  c #1A1A1A",
"*  c #041624",
"=  c #041926",
"-  c #0A1B25",
";  c #041C2C",
":  c #171E23",
">  c #041F30",
",  c #182329",
"<  c #1C2429",
"1  c #042134",
"2  c #05263A",
"3  c #0A2739",
"4  c #06293E",
"5  c #122835",
"6  c #172C38",
"7  c #232323",
"8  c #23292C",
"9  c #2D2D2D",
"0  c #283031",
"q  c #2A3339",
"w  c #343434",
"e  c #353B3F",
"r  c #3B3B3B",
"t  c #555137",
"y  c #765B2D",
"u  c #7F6233",
"i  c #062B43",
"p  c #092D44",
"a  c #052F49",
"s  c #082F49",
"d  c #112F43",
"f  c #0F3247",
"g  c #05314C",
"h  c #09324C",
"j  c #163547",
"k  c #063553",
"l  c #093653",
"z  c #073856",
"x  c #093856",
"c  c #063A5A",
"v  c #0A3C5C",
"b  c #153D55",
"n  c #253A46",
"m  c #2C3A43",
"M  c #323C42",
"N  c #053E62",
"B  c #0A3F61",
"V  c #19435B",
"C  c #35434A",
"Z  c #3F584B",
"A  c #294454",
"S  c #354A58",
"D  c #39505C",
"F  c #024265",
"G  c #0A4265",
"H  c #04456B",
"J  c #0B456B",
"K  c #0B486E",
"L  c #174967",
"P  c #044A73",
"I  c #0B4B73",
"U  c #054F7A",
"Y  c #0B4E79",
"T  c #134C71",
"R  c #05517D",
"E  c #0B517D",
"W  c #1F5778",
"Q  c #264D64",
"!  c #2B556C",
"~  c #375668",
"^  c #255573",
"/  c #315B74",
"(  c #3A637B",
")  c #434443",
"_  c #434F43",
"`  c #4B4B4B",
"'  c #545454",
"]  c #5C5C5C",
"[  c #576651",
"{  c #766D52",
"}  c #516D70",
"|  c #646464",
" . c #676E69",
".. c #6B6B6B",
"X. c #6C786E",
"o. c #747474",
"O. c #8D3D01",
"+. c #8D500E",
"@. c #9A5703",
"#. c #A15C1B",
"$. c #875420",
"%. c #8F6733",
"&. c #A97433",
"*. c #826B46",
"=. c #94784E",
"-. c #AB7945",
";. c #768B70",
":. c #BC902F",
">. c #D18E15",
",. c #EE9B0F",
"<. c #FB9B03",
"1. c #EF9A13",
"2. c #FDA305",
"3. c #FEAC01",
"4. c #FFBC00",
"5. c #FBB409",
"6. c #FBA513",
"7. c #F2AD16",
"8. c #CF992E",
"9. c #DEA82C",
"0. c #F9AF2C",
"q. c #FFC901",
"w. c #FED201",
"e. c #FFDB02",
"r. c #FFE500",
"t. c #FFEC00",
"y. c #FFF200",
"u. c #FFEF34",
"i. c #918E52",
"p. c #B39249",
"a. c #9AA85F",
"s. c #B9A75D",
"d. c #8C8C73",
"f. c #B59262",
"g. c #AB9976",
"h. c #94A771",
"j. c #B0AA6D",
"k. c #D2AD4C",
"l. c #FFB542",
"z. c #CAAA78",
"x. c #B3C27B",
"c. c #FFCE77",
"v. c #055483",
"b. c #0B5583",
"n. c #0A5887",
"m. c #075A8B",
"M. c #0C5A8B",
"N. c #055E92",
"B. c #0C5E92",
"V. c #056195",
"C. c #0C6195",
"Z. c #05649B",
"A. c #0C649C",
"S. c #0B699E",
"D. c #166494",
"F. c #2E6D8F",
"G. c #337596",
"H. c #0566A2",
"J. c #0D67A1",
"K. c #056AA4",
"L. c #0B6BA4",
"P. c #056EA9",
"I. c #0C6DAB",
"U. c #106DA5",
"Y. c #0571AE",
"T. c #0C71AE",
"R. c #1070AE",
"E. c #0673B3",
"W. c #0C73B3",
"Q. c #0B77BA",
"!. c #0978B8",
"~. c #0D7ABC",
"^. c #1174B3",
"/. c #117BB6",
"(. c #117ABC",
"). c #41728A",
"_. c #0B7CC4",
"`. c #117DC4",
"'. c #3487B7",
"]. c #4E8696",
"[. c #6B9391",
"{. c #5196AD",
"}. c #6CA0A9",
"|. c #72B0A8",
" X c #0B82C4",
".X c #0C85CB",
"XX c #0C88CE",
"oX c #1383C5",
"OX c #1283CB",
"+X c #168ACC",
"@X c #0B86D3",
"#X c #0B8AD2",
"$X c #0C8DDC",
"%X c #1386D1",
"&X c #128AD4",
"*X c #148DDB",
"=X c #0B91DB",
"-X c #1793D7",
";X c #1594DC",
":X c #3297CD",
">X c #35A5DE",
",X c #118FE1",
"<X c #0D95E2",
"1X c #0C98E8",
"2X c #0D9CEC",
"3X c #1493E3",
"4X c #1699E8",
"5X c #0C9EF1",
"6X c #0EA1ED",
"7X c #0BA7F7",
"8X c #12A3F4",
"9X c #15A6F9",
"0X c #17B5FF",
"qX c #29A5E8",
"wX c #52ADC8",
"eX c #95AD8E",
"rX c #B2A88C",
"tX c #83B6B3",
"yX c #CEAE8F",
"uX c #99CDA5",
"iX c #FDD48F",
"pX c #FFF687",
"aX c #D2C8AD",
"sX c #EDD5B5",
"dX c #FEE7B5",
"fX c #F8F3DC",
"gX c #F4EEE7",
"hX c #FFF7E8",
"jX c #FFFBF7",
"kX c #FEFFFE",
/* pixels */
"2 2 4 2 1 > 1 1 1 > > 1 2 2 > 1 > 2 > > > 2 > 2 > > > > ; * Z @ @ - * * * * * * @ = = ; ; ; 1 ; ; ; ; ; ; 1 1 2 1 1 > ; ; ; 1 2 ",
"2 4 2 1 ; 1 c G a 4 i a i i 2 4 i p p i i i p s a i > i c L a.V g [ S k k g k g 4 V F V 2 1 4 g g a g g g a 4 4 4 4 4 h F k 4 1 ",
"2 2 ; = = v D.J.K x x B B k 2 i v B v v x B v B N p > c T.+X|.].S.[.eXL.H.H.S.V.D.oXoXE 4 1 F R R R R R R P G G G a V E P.B.k ; ",
"2 > * ; k A.(.J.Y B G I K k i a B I K J J N J I I l > N XX9XqX:XXXj.,.'.XX#X#X X|.>X6X X4 ; F Z.S.S.Z.Z.m.U K J G G F V.#X!.F = ",
"1 = = k I.`.A.Y G G G I K z i i B I K J K B K I I l ; V  X6X4X&XoX9.<.h.XX X{.eXs.;X8X X4 ; H Z.Z.Z.S.m.U K G J G v N B.#XQ.c ; ",
"1 1 v A.`.T.E x B B J I J z 2 i B K K J J K B K K l ; Q p.{.*X.X;.<.3.6.:X{.:.8.{.XX|.h.4 2 v.L.V.R R U K G G G J x x n._.E.c = ",
"1 z A.^.A.I v l v v B G G l 2 i B J B B B B B J T b ; g h.7.s.}.p.4.w.2.7.k.,.j. XwXuX].4 a C.T.U G G G G G G G v l x M._.Y.c * ",
"1 v B.M.v i 4 h h g l x x a > > s v x l h h l L ;.{ t a U.8.2.3.,.4.t.4.3.w.9.G.U.:X;XJ.4 1 K E G 4 4 h h l p 4 p s K I.@XH.k * ",
"> i v B s 3 i s h a s l x p ; > h B x l x l x B i.[ [ v N.tX<.w.w.e.t.r.e.w.s.'.Z.-X4XU.3 @ 4 G s p p h l l l i p v J.,X$XH.g = ",
"; i K M.M.M.M.M.n.n.B.A.B.J i s b.B.M.b.Y b.M.B.S.G 1 L [.k.<.4.t.t.t.y.r.4.1.j.s.|.eX[.D * G n.M.b.b.b.b.b.b.I I B.%X9X5XI.k = ",
"> x A.`.`.`.`.Q.(.Q.(.`.`.M.s B L.`.`._.(.`.`.%X+X} y 8.<.5.4.r.t.t.r.t.t.r.w.q.2.6.j.a.C 4 v.~.`.`.`.^.`.^.`.W.^.`.*X1X,XI.x ; ",
"> l n.I.J.J.B.B.M.M.B.A.B.N 2 s M.^.Q.I.R.R.I.R.[.i.>.2.6.2.e.w.r.t.y.t.y.w.4.7.i.[.).T 5 2 K S.A.A.A.A.I.I.R.W.R.L.J.L.A.b.g > ",
"> i i g s a i i i 2 i i i > ; ; i k g l h s a g l _ * z.iXiXl.5.w.e.r.r.r.e.<.=.f p i 2 = ; 2 i p i i i i g g k k g i s a i > 2 ",
"> i > > ; = = 2 g k k g g i 2 > ; ; 6 t t 6 t 8 k N } x.pXkXdX<.q.5.4.r.w.r.2.>.3 2 4 4 a a 4 2 > 2 g c c i = @ @ * ; ; > > > > ",
"> i s k h i s B B.P.H.H.J.M.N h p g ..+.@.' &.@.} E.tXu.fXhX0.0.c.iX0.4.1.5.5.<.X.P P P U R P F N v.J.Q.^.b.i o o ; i x x g i > ",
"> i B I I B B M.^.E.H.Q.,X`.M.B Q { g.@.{ | i.+.&.'.aXjXjXdXiXdXyXrXo.<.h.).:.8.>.G.M.m.v.v.v.v.v.B.W.`.`.M.i o @ i B b.I N g > ",
"> a B I K B B I b.x h b.`.`.M.Q ..O.-.).^ L ~ { =.f.-.fXjXgXhXjXyXy A :.i.G a t :.;.I K J J K J N K I b.b.v ; @ @ 4 N Y I B i > ",
"> i l B x x x B B > * v `.`.M.B %.#...B B B B L D +.O.yXsXjXgXsXf. .G } d.h [ 2 V  .G B B J B B N B B v x x l i > > B I I B p > ",
"> 2 x B B B B J B > > B `.`.A.Q =.g.W T B B B B B } =.yX#.p.aX#.%.Q J K ~ h a.n B K J B J J J B K B B v B b.I.v.> ; k I N B i > ",
"> a b.L.J.J.J.B.b.p 2 b.`.`.D.u $.=.T B K K K K I B ^ =.$.*.rX+. .K K I Y x Z p J I K J J G J J B B B v B J.,XE.a ; k I Y B p > ",
"> c I._.$X_.@XI.Y 2 > N `.`.D.*.&.{ I N I K K K B I K ^ } ! ( ~ I K K Y I x i p B K K J G G J N B K B l B J.`.R.p ; l I I B i > ",
"> g m.P.E.E.H.v.h * @ s B.B.B m *.=.v c B v v v B B Q B N v v B v v v G B s ; > l x x l v x x x x x s i d B M.I > ; x K I B p > ",
"; > k k k k c a 1 * * > s i 3 w %.+.t i i i i i d D O S i i i i i i f f d j d > d > 3 2 2 i 2 3 > > ; = = > s i = > B K B B i > ",
"= a N g @ * l Y b.N B B B N B T %.+.` * * ; ; m + 9 ) $ d ; > 6 n q 0 e $ M : n M n ~ j 5 ; 2 5 i p s k x N N i * > B B K l i > ",
"; I `.B.2 2 B.*X*X%X`.`.`.`.`.,X{.{.{ t # ; , q 8 ] ] r r m q M %   $   X   $   X $ . m C A D.oXoX X!.E.!._.~.v.; = s B K l i > ",
"; v.3X`.h i B.%XOX*X4X3X`.`.qX9X,X).+.-.D S < w w 7 w ) X X : X X , w w ' ) ' ` r w &     0 F.>XqX3X$X$X$X2X1XH.> = k b.b.B i > ",
"- E 3XoXz ; v E b.J.`.`.A.J.`.`.A./ *...' : X 7 $ $ X 7 & & $ & & r w ` w ' ) ] ] ] ] ) &   . S '.#XXX X@X<X=XL.; = N H.B.P i > ",
"= E &X(.h * 2 h s T D.M.B K B.B.B v b ~   $ & & & & & & & & & & & & & $ $ X 7 $ 7 w r ' ' w $   - G. X!._..XXXZ.= ; Y P.K.v.p ; ",
"* E -XoXk * 2 v x B B I B B I I B B n < + & & & & & & & & & & & & & $ & & & $ & $ $ & 7 w ` w 7 & + F.^./. XXXS.= ; U Y.P.v.a > ",
"= b.4X&Xv - g I T B B B B B B B B ).% X & & & & & & & & & & & & & & & & & & & & & & $ $ & 7 9 7 & $ : G. XoXXXS.; ; R E.E.v.a > ",
"; E ;X.Xv ; g K K B B B B B B B L q X & & & & & & & & & & & & & & & & & & & & & & & & & & $ & & & & $ o '. X.XZ.; ; P K.K.U a > ",
"2 G C.M.g ; 2 g l l l g l g p d D   & & & & & & & & & & & & & & & & & & & & & & & & & & & & & & & & & $ V (. XN.; @ i c N k i > ",
"> > i i > ; ; > > > > > ; * * M 7 & & $ & & & & & & $ & & & & & & & & & & & & & & & & & & & & & & & & & O G..XN.1 . o @ * * ; 1 ",
"2 > ; > 2 2 2 2 2 2 1 1 > 2 b D & ] r 7 & & & & & & & & & & & & & & & & & & & & & & & & & & & & & & & & $ j qXL.1 o 1 z k a 2 ; ",
"> i a x x B x x x v x h h J C.E d 7 ) 7 $ & & & & & & & & & & & & & & & & & & & & & & & & & & & & & & & & o :XS.; > n..X_.N.g = ",
"> i B K K J J J J J G v v M.@X8X@X).7 7 & & & & & & & & & & & & & & & & & & & & & & & & & & & & & & & & & $ ( K @ s Q.7X7XQ.v = ",
"> a B I I J J J J J G v v M.OX9X9XB.n : & & & & & & & & & & & & & & & & & & & & & & & & & & & & & & & & & & : 6 o g E.5X5XE.c = ",
"2 a B Y I K K K K K J B B Y ^.*X,Xb.m O & & & & & & & & & & & & & & & & & & & & & & & & & & & & & & & & & $   q ; c N._._.m.a ; ",
"> p B J J G J J G J G B B J Y B.A.V q X & & & & & & & & & & & & & & & & & & & & $ & & & & & & & & & & & & & $ S a z J b.R N i > ",
"i 2 > 2 3 p s h s p p i i i p a s M $ $ & & & & & & & & & & & & & & & & & & & & & & & & & & & & & & & & & &   S x g s s h i 2 > ",
"> > @ @ @ * = > ; = = * = = * ; - M   & & & & & & & & & & & & & & & & & & & & & & & & & & & & & & & & & & : X S h s p s l p 3 > ",
"> 2 g c k i > > i a a a a i 2 2 > M X & & & & & & & $ & & & & & & & & & & & & & & & & & & & & & & & & & & &   ( M.n.B.A.B.I s > ",
"; g B._.~.E i i H v.v.v.v.H N B B S O : & & & & & & & & & & & & & & $ & & & & & & & & & & & & & & & & & & & $ G.(.(.`.%XOXB.x > ",
"= x Q.7X6XH.k 2 H B.N.B.m.v.Y I B M O & & & & & & & & & & & & & & & & & & & & & & & & & & & & & & & & & & & % T B.B.B.J.L.Y l 2 ",
"* k T.7X6XS.g 1 x I I I I K K I B S X & & & & & & & & & & & & & & & & & & & & & & $ & & & & & & & & & & & $ $ A i i i a a i 2 > ",
"* k L.2X1XZ.p 1 B K N B v B B K K D X & & & & & & & & & & & & & & & & & & & & & & & & & & & & & & & & & & X q j > 2 2 2 > > > > ",
"* h P.6X=XC.s i U n.B v v B B T B ~   & & & & & & & & & & & & & & & & & & & & & & & & & & & & & & & & & & % n H H F H P P N i > ",
"= h L.6X<XV.g g N.A.Y v B B B I B b + & & & & & & & & & & & & & & & & & & & & & & & & & & & & & & & & & & + Y N.m.P R K..XI.c > ",
"= g L.6X<XC.h g N.Z.U G G x G G K x < & & & & & & & & & & & & & & & & & & & & & & & & & & & & & & & & & $ 5 D.m.P v v A.3X`.I ; ",
"* g K.2X=XV.a a U m.K G G G G J B x m X & & & & & & & & & & & & & & & & & & & & & & & & $ $ 7 & & & & $   ).v.J x x Y U.`.D.l > ",
"= g L.6X<XS.p 2 G I H G G G G K B x n O & & $ & $ & & : & & & & & & & & $ & & $ & & $ $ & & ` 9 & & & $ 9 T J B v Y U.L.Y g > > ",
"* g L.2X=XS.s 1 k G G G G G G J B k ; n $ & $ 7 w $ $ $ 7 9 $ $ 9 & & 7 & $ 7 7 & X $ 7 r ] ] & & & $   ).B B Y M.R.R.b.i = > 2 ",
"* k T.6X<XZ.a 1 h L G G G G G G B v > / - & & 7 ' ' w & 9 ) $ $ r 9 X 9 r & $ ) 9 9 r ' ..| 9 $ & $ : , B x B B.`.`.b.> = ; > > ",
"= z !.7X6XS.a > l G G G G G G K N B i x ~   $ $ 9 | ..] ) | r & ) ` 7 7 ' r w ' | ] ..o.| w $ & &   m j s > i b.^.M.> . o = > i ",
"; z T.2X<XS.s > x J G G G G G K B B 2 > b m $ : $ w | ........] ] ..' ] | o.] ......X.| w & $ & X 8 m 3 > ; ; i N p * o * ; > > ",
"1 2 H /.=XS.k 4 H Y G G x G G J B l > = g ^ , X & $ 9 ' ..............| | ....| ....' 9 $ $ & $ + D > 3 B J c a i l B b.I c i > ",
"; @ = Y  XP.c a R m.J x G G G G B l > a L.,X+Xn   $ $ 7 ) ' ....| ..............' r 7 & & &   A W F 2 G oX4XXXK.H._.;X8X3XJ.g = ",
"; = i m. XZ.k a v.Z.R G x x G I Y z 2 x `.8X$XF.M & $ $ $ 9 r ` | ] | ] ] ' ` w 7 & X &   % f '.T.P 2 K ;X0X6XXX.X,X9X0X8XQ.k = ",
"; a m.#X<XS.h a v.K.V.U G G G E N.H i B `.,X^.I L m 8 : X X & & & w 7 9 7 7 $ & $ $ :   m ( D.Y.Y.H 1 G -X0X6XXX.X#X<X8X5XT.z = ",
"; z W.8X7XT.h a v.Y.P.Z.n.K K n.N.F i H `.%XB.B J I B n M :   X $   & X &   & X $ X 6 A Q I C.E.Y.H 2 K ;X0X8X#X#X#X=X2X2X!.k = ",
"> g V.=X2XT.c g m.K.P.K.Z.v.I Y Y c i K %XOXM.B B K I I T ~ ~ q : 8   <   q , j A ( G V G I N.Y.Y.H 4 H -X0X6X#X#XXX=X2X2XT.c ; ",
"> 4 F V.Y.m.g i H v.R R R P G G x i 2 v B.B.K x x v v v x B L B b ~ ! ~ ~ ~ V v V G G h l G P v.m.F 2 G T.oX/.Z.S.S.L.E.W.v.g > ",
"1 1 2 g z g 2 1 i g s g g s 4 4 i 2 > i z k a i i i p i a i i a p p a i i i p i 4 4 4 4 4 4 a g k 4 ; 3 k c z g g g g z z s 4 1 ",
"2 2 > = ; > > > ; > ; > > > > 1 > > > > > > > > > > > > > > > 2 > > > > > 2 > > 1 1 1 1 1 1 1 ; 1 ; ; ; = = * * = = * - ; ; > 2 "
};
