/* XPM */
static char *result[] = {
/* columns rows colors chars-per-pixel */
"64 64 254 2 ",
"   c #010002",
".  c #02040B",
"X  c #09080A",
"o  c #190705",
"O  c #020612",
"+  c #030B14",
"@  c #050918",
"#  c #020D1A",
"$  c #04111C",
"%  c #0D151B",
"&  c #171617",
"*  c #191110",
"=  c #260A02",
"-  c #28150A",
";  c #36180E",
":  c #251B15",
">  c #3F2E0E",
",  c #2A211B",
"<  c #2E221B",
"1  c #352317",
"2  c #010A26",
"3  c #031524",
"4  c #041926",
"5  c #0A1826",
"6  c #00142C",
"7  c #041C2C",
"8  c #191E23",
"9  c #0C0E31",
"0  c #011432",
"q  c #031E31",
"w  c #011B3B",
"e  c #3E1B27",
"r  c #1D2124",
"t  c #1D2728",
"y  c #042134",
"u  c #04253B",
"i  c #0A273A",
"p  c #06293E",
"a  c #142C35",
"s  c #272625",
"d  c #382C24",
"f  c #39332A",
"g  c #303839",
"h  c #43180B",
"j  c #57270C",
"k  c #462614",
"l  c #5B371E",
"z  c #6A2E0A",
"x  c #693818",
"c  c #401E2A",
"v  c #493527",
"b  c #49392F",
"n  c #583C27",
"m  c #673C26",
"M  c #3E4529",
"N  c #59480B",
"B  c #715B0D",
"V  c #76421E",
"C  c #76600C",
"Z  c #404422",
"A  c #5C422E",
"S  c #5C4332",
"D  c #68442B",
"F  c #794826",
"G  c #674933",
"H  c #755133",
"J  c #726B25",
"K  c #010C4E",
"L  c #011B47",
"P  c #012543",
"I  c #062B43",
"U  c #092D45",
"Y  c #04284A",
"T  c #042E4A",
"R  c #06314D",
"E  c #09324C",
"W  c #002A56",
"Q  c #053453",
"!  c #093653",
"~  c #073856",
"^  c #093856",
"/  c #02345B",
"(  c #053A5B",
")  c #093B5B",
"_  c #113D59",
"`  c #011E69",
"'  c #012B64",
"]  c #033465",
"[  c #033D63",
"{  c #0A3F61",
"}  c #023B6C",
"|  c #012875",
" . c #023A75",
".. c #284D54",
"X. c #2D5154",
"o. c #024265",
"O. c #0A4164",
"+. c #04446C",
"@. c #0B456A",
"#. c #0B486E",
"$. c #1A4F67",
"%. c #034573",
"&. c #044A74",
"*. c #0B4B73",
"=. c #024B7B",
"-. c #0B4E7A",
";. c #05517D",
":. c #0B517D",
">. c #27596A",
",. c #386567",
"<. c #465348",
"1. c #4D6950",
"2. c #586658",
"3. c #667648",
"4. c #933703",
"5. c #88481B",
"6. c #994C16",
"7. c #954B18",
"8. c #A65119",
"9. c #894D23",
"0. c #944829",
"q. c #8B532B",
"w. c #975627",
"e. c #945529",
"r. c #9C5A2A",
"t. c #974636",
"y. c #875939",
"u. c #985C32",
"i. c #A85A25",
"p. c #AC522E",
"a. c #A35D2B",
"s. c #AA5F29",
"d. c #B35E26",
"f. c #A65B33",
"g. c #9B653E",
"h. c #A7622D",
"j. c #AB612D",
"k. c #B7652A",
"l. c #B3642C",
"z. c #AD6532",
"x. c #A76738",
"c. c #B26632",
"v. c #B46934",
"b. c #BB6B33",
"n. c #B6693C",
"m. c #B9753C",
"M. c #C26D32",
"N. c #CA6E36",
"B. c #CA7336",
"V. c #D27435",
"C. c #E27627",
"Z. c #865D41",
"A. c #8C6242",
"S. c #9D6B48",
"D. c #A86B45",
"F. c #B56741",
"G. c #AD7148",
"H. c #B27244",
"J. c #B87748",
"K. c #BC7A4A",
"L. c #AD7050",
"P. c #B77957",
"I. c #C47946",
"U. c #D67B44",
"Y. c #C6785A",
"T. c #6F8856",
"R. c #A48A1D",
"E. c #958E35",
"W. c #BB8738",
"Q. c #B6A834",
"!. c #CA9F15",
"~. c #DB8C28",
"^. c #CF8D37",
"/. c #E68E2F",
"(. c #D0AE2A",
"). c #EBB62A",
"_. c #E6BB34",
"`. c #F7C51C",
"'. c #E9C42C",
"]. c #E4C232",
"[. c #AC9256",
"{. c #C9834C",
"}. c #CF904A",
"|. c #C88655",
" X c #CA9555",
".X c #DDA543",
"XX c #CE8B65",
"oX c #BACD6E",
"OX c #013688",
"+X c #024987",
"@X c #055483",
"#X c #0B5583",
"$X c #065689",
"%X c #05598B",
"&X c #0B5A8B",
"*X c #02489A",
"=X c #025897",
"-X c #055E94",
";X c #0C5E93",
":X c #056195",
">X c #0D6195",
",X c #04649C",
"<X c #0C649C",
"1X c #0A699E",
"2X c #146693",
"3X c #28738C",
"4X c #0046A0",
"5X c #0159A4",
"6X c #0867A2",
"7X c #056AA4",
"8X c #0C6BA4",
"9X c #056DA9",
"0X c #0C6DAB",
"qX c #0C6FAD",
"wX c #106DA6",
"eX c #0871AD",
"rX c #0775B6",
"tX c #0B74B3",
"yX c #0B76BA",
"uX c #0B7BBC",
"iX c #1176B5",
"pX c #117ABC",
"aX c #4A718F",
"sX c #0C7DC2",
"dX c #087DC7",
"fX c #117DC4",
"gX c #0373D3",
"hX c #017DE8",
"jX c #5E9E8E",
"kX c #0B82C4",
"lX c #0B85CB",
"zX c #0C88CE",
"xX c #1383C4",
"cX c #1283CB",
"vX c #1489CD",
"bX c #0C8BD3",
"nX c #0888D7",
"mX c #0D8CDB",
"MX c #138AD5",
"NX c #0B91DC",
"BX c #1594DB",
"VX c #2B9DD3",
"CX c #068CE6",
"ZX c #0A94E6",
"AX c #0D9CEC",
"SX c #1495E6",
"DX c #149CEB",
"FX c #089BF2",
"GX c #129CF1",
"HX c #10A1EC",
"JX c #0BA6F6",
"KX c #13A4F4",
"LX c #15A9F9",
"PX c #17B5FE",
/* pixels */
"u u u u u y y y y y y y y y u y y y q y y y w u y y y 7 7 4 4 3 3 3 4 4 3 4 4 3 $ 4 7 y y 7 y y 7 7 7 7 7 y y y y y y 7 7 y y y ",
"p p u y 4 w ^ O.R u p I U I u u I U I I I I I U U u y p ) O.) ~ E R ~ R E R R R R ~ O.! y y I R T T R E R E p p p p p ! ) ~ p y ",
"u i 7 4 4 ) 2X<X#.! ^ O.{ R p I ^ O.{ ) ) ^ { O.O.U y ( qXvXpX8X1X1X1X1X1X7X1X,X,XuXxX2Xp y ( ;.;.;.;.;.;.&.{ ) ) ! ~ :.eX:XR 7 ",
"u q 3 7 ! <XpXwX*.O.@.*.*.~ p U O.*.#.@.@.O.@.*.*.E y { vXLXDXMXzXzXzXzXzXzXzXkXkXHXLXiXU 7 o.,X7X1X,X:X%X;.*.@.@.) O.1XbXuX) 7 ",
"y 4 4 ~ 0XsX<X-.O.O.O.*.*.~ u I { *.@.@.@.@.@.-.*.! q Q rXAXSXzXlXkXlXkXzXlXlXuXkXSXLXwXp 7 o.1X,X,X,X%X-.#.@.O.@.) { >XbXrX( 7 ",
"y y ) <XxXqX:.^ ) O.@.*.#.~ p I { *.@.@.@.{ @.*.#.! 7 Q 9XmXBXxXkXkXkXkXlXlXkXrXrXNXHXwXp u @X9X:X;.;.:.#.O.O.@.@.! ^ $XkXeXQ 7 ",
"y ~ >XiX<X*.) ! ^ { O.@.O.! u p ) @.{ ) { ) { @.O.E 7 R 7XnXMXxXkXuXkXkXkXuXuXtXtXbXDX1Xp U ;X0X-.O.O.o.O.{ ) { ) E ! &XdX9X( 4 ",
"y { ;X&X) p p E E R E ^ ^ U y y E _ ^ ! ! ! ! ^ ^ p 5 R ,XdXcXpXrXeXrXtXtXtXtX9XeXvXSX8Xp y #.&X) p U E E E E E U E *.0XlX7XQ 4 ",
"q I ) ) E U U E R U E ! ! I 7 q E ) ^ ! ^ ! ! { ^ u 4 Q 6XlXvXpXrXuXtXuXiXuXtXeX9XbXHXwXp $ p { E U U E ^ ! ^ U I ) 6XmXmX6XR 6 ",
"7 U *.;X&X#X#X#X&X&X&X<X>X@.I E -.;X#X#X:.#X#X>X<X{ y ( yXGXDXBXbXzXzXkXlXvXzXlXbXLXLXiXI 4 ^ &X&X#X#X#X:.#X:.*.*.>XMXKXGXqX! 4 ",
"q ) ;XfXfXfXyXpXiXyXpXcXfX#XE ) wXcXcXuXpXfXfXmXmX&XT [ fXLXLXKXHXHXHXHXDXDXDXDXHXLXHX2Xp p :.uXfXpXpXyXpXpXpXtXiXfXMXDXSX0X! q ",
"q ! &X8XwX6X<X;X&X&X;X<X;X{ p Y $XiXyXtXpXyXyXfXyX@XT / ,XzXbXkXxXvXvXxXxXpXpXpXwXtXwX#.u y #.1X<X<X<X6XwXqXqXtXqX8X6XwX<X-.T q ",
"y p T T E U I p p p u I I y 4 7 p ! ~ / ( ( ] [ [ T u u Y ( ( / ^ ^ Q R Q E R U a U I y 7 7 p p U U U I U R E ~ Q R U T T I u y ",
"y y y q 7 3 4 u R Q Q R Q I u 7 7 u u 7 + . O @ # 2 3 2 # O O O + . . 2 W Y 6 $ y y u p T T p u 7 P E ) ( U 7 # # 3 7 q q q y y ",
"y p U ! E p U @.<X9X6X6X6X&XO.! ! / W w .     O @ $ # $ O O O O .   . K *X=XY w o.&.&.&.;.;.&.o.o.=.<XyXtX#Xp + + 7 U ! ! U p y ",
"y U { *.@.O.@.&XtXqX6XyXmXfX&X*.@X%.W 8 1 k k c c c c c c c d e e ; ; <.aX>.Y Y %X7X:X%X@X%X;.;.@X;XqXlXxX&Xp # $ p O.-.-.{ U y ",
"y I ) *.@.@.{ *.:.) E #XlXxX;X&.@X] 9 ; 9.p.p.t.t.t.t.t.t.t.0.t.t.0.p.d.n.V * 0 %.$X:.#.@.@.@.@.O.@.*.:.-.) q # 3 p O.-.*.{ I y ",
"y p ! ) ^ ! ! ) ) y 3 ) pXfX;X[ / w : x v./././.~.~.~.~.~.~.~.~.C.~././.C.8.j * w / [ { ) O.{ O.O.O.O.) ! ) ) P 4 i ) *.*.) I y ",
"7 p ^ @.O.{ O.@.O.i 4 [ fXMX=Xw + - x f.U.^._.`.`.`.`.`.`.`.`.`.`.`.`.).^.N.i.z X 6 Q @.@.O.O.O.O.@.O.^ ) #X8X@Xu q ! -.*.) p y ",
"7 R #X8X6X6X<X>X*.I u -.MXSX,X0   h i.V.I.{.(.'.'.]._._._.]._._.].'._.(.B.U.U.8.= O / -.*.#.@.@.@.@.O.^ { 0XmX0Xp 4 E *.*.) I y ",
"q / 8XnXmXnXlX0X*.p y *.cXBX;X6   h i.V.N.m.W. X|. X X X X X X X X X}.W.m.U.U.a.; % Q &.*.@.O.O.O.O.{ ! ) 8XMXwXU 5 E *.*.) I y ",
"q T @X7XqXqX6X@XE 3 $ U #X;X[ 2   = x l.N.N.I.Y.Y.Y.Y.Y.Y.Y.Y.Y.Y.Y.I.B.I.B.x.S s 4 p ~ ) ^ ! ~ ^ ! E i i { &X&.u 7 ^ -.*.) I y ",
"7 u R ~ Q Q / T u 3 $ 7 I T L 9 5 5 d F p.N.k.F.n.F.F.n.n.F.n.F.F.F.F.I.I.x.A r 6 w u P i p i y i y 7 4 7 i U I 4 y ^ *.*.^ p y ",
"4 U O.E # 4 ~ -.*.#.@.O.{ { { #X&X} P : n m x l l l l l l n n n m m F q.H G v & # W =.( 7 q U U u I E R ^ [ [ I $ 7 ! @.@.^ p y ",
"4 *.pX>Xu u >XMXMXMXfXfXfXfXfXSXDXgXW @ 2 % + O O O O + + # + $ # # % 2 5 d V j * } rX=XI T 2XvXxXpXrXrXrXkXuX;.q 5 E @.@.! p y ",
"7 #XBXxXE p ;XvXvXMXSXSXfXvXSXLXGX9XW 2 a g s s r 8 r r r r r , s % @ @ & m 8.6.x X.=X+XP ( iXKXKXZXNXNXCXAXAX1Xy 4 ~ :.:.{ p y ",
"7 :.SXxX~ 7 ) :.#XwXfXfX>X<XfXnX9X} i b H P.S.A.y.y.y.Z.y.y.q.w.r.n 8 & v 9.l.d.6.G g 6 6 [ uXDXBXvXzXlXbXZXNX,X7 7 @.,X:X&.U q ",
"4 -.vXxX~ $ i ! Y $.;X&X*.&.-X=X' 6 f Z.P.XXXX|.{.I.K.{.{.K.M.V.V.a.n d > F r.k.l.7.j = . ] dXNXzXuXuXuXkXzXkX2X4 7 &.7X9X;.U 7 ",
"4 -.BXxX! $ u ) _ { *.*.{ +.%.' 2 < y.P.Y.XX|.|.K.J.I.I.{.K.M.M.N.B.r.n 8 d q.c.j.i.7.j o Q rXNXbXkXkXrXkXzXzX&X4 7 &.eX9X;.R 7 ",
"4 :.HXvX) 7 R #.#. .{ @.#.} Y 6 d H P.}..X.X{.L.G.G.H.J.{.I.{.B.U./.V.u.v v q.c.h.l.i.7.j t +XkXNXnXkXkXkXkXzX%X4 y ;.rXrX@XR 7 ",
"y :.BXvX) 7 R #.#.{ @.#.%.W 6 d y.P.Y._.)._.W.G.D.G.J.J.I.I.K.K.K.I.B.j.q.q.x.b.c.z.s.i.6.x r &.kXnXbXuXkXzXzX&X4 7 &.9X7X;.R 7 ",
"y O.>X&XR 7 y ! ! ! ! Y L 6 & m J.XXXX}.(.~.W.H.D.J.{.I.y.G G S S D A A D q.b.B.b.j.r.a.i.6.z * ( ,XrXkXkXkXkX%Xy $ p ( o.R p y ",
"u u p P q 4 4 q q y q 2   o j f.Y.XX|.J.W.m.m.D.G.I.{.J.b @ O # # # # @ 3 v u.V.M.z.r.e.r.i.6.z   6 -XkXkXzXkX%Xy O + $ $ 4 7 y ",
"q y 7 y i p p i u I u 2 . h 8.^.XXP.P.L.D.D.G.K.K.I.J.G & O & d d d s : 8 d D u.v.c.h.r.r.a.d.4.= @ 7XFXHXHXHX1Xy # i ~ ~ U y q ",
"y i T ! ^ ) ^ ^ ^ O./ L O N !._. XP.L.D.D.D.H.{.U.G.A &   : H S.S.y.q.q.q.S f S r.z.z.f.r.a.j.6.= q yXLXPXPXLX<X7 y @XkXuX-XR 7 ",
"y I { *.#.#.@.@.@.&. .W @ N !._.XX[.L.G.G.G.J.G.D.S &     : D y.y.H y.h.b.u.S n u.z.z.h.u.r.i.5.= y %XsXpXxXiX@.$ U uXJXJXuX^ 4 ",
"y I O.*.*.@.@.@.@.*.%.W 2 j h.^.|.[.L.F.m.J.J.y.b 5 .     X : s s r d G z.b.u.q.h.v.c.z.a.w.i.9.: 3 I R R Q E 5 + R eXJXJXrXQ 7 ",
"u I O.*.*.*.@.@.@.-.%./ 5 1 w.m.P.J.G.G.H.J.K.D.S s X     * d v b f f G f.M.M.c.z.c.z.h.a.r.r.w.: # 6 7 7 4 4 3 7 / -XdXrX-XR 7 ",
"u I ) @.@.{ @.@.@.&.&.Y 3 k 0.c.n.H.H.H.G.J.K.{.G.G *     < H x.g.Z.A.A.c.b.M.b.c.c.z.h.r.r.a.9.- # u T I I p I R ~ #.:.;.[ I 7 ",
"y u u i p I E E U R T w 5 k 0.d.l.v.H.G.J.K.K.G.A.n *     : n H H G H y.z.M.M.b.v.z.h.r.r.r.a.w.- 3 Y ( ( ! ! ! ! E U E E U u 7 ",
"i 7 $ $ $ 4 7 7 4 7 q 6 % 1 9.i.l.v.G.G.{.{.J.H t $ .       % % % # 5 S f.B.M.M.v.j.h.e.e.w.a.9.- $ Y ( ^ E E E E U U E E U i q ",
"7 u R ^ ~ p 7 q I Q Q w 5 1 F s.c.v.n.H.G.H.J.S.b % .     X < d f s d H l.b.r.y.z.j.r.e.e.w.a.7.= 6 %.;X>X&X&X&X&X&X&X>X2X-.T 7 ",
"7 R >XkXuX:.I p %.=X+X[ 5 > 5.s.c.c.v.z.x.v.J.K.D.G &     : H S.S.y.q.f.v.y.n S u.z.r.e.w.r.i.5.- u :XlXfXfXtXpXpXpXfXcXfX<X^ y ",
"4 ^ tXJXHX1XW Y OX5X5X} a 1 5.a.j.h.r.r.h.z.H.|.}.H.G & . * n A.g.y.H F G b b G u.h.a.e.w.r.i.5.- y +X8X6X;X>X>X;X;X<X6X8X-.! y ",
"3 ! tXJXHX7XW w ( #X+X/ % k 5.i.r.e.w.w.i.x.n.{.{.{.G.A % O 8 s s s 8 8 8 f G u.r.r.w.e.e.a.i.5.- $ p R I p p p I p I I T I u q ",
"3 E 9XAXZX,XQ > J T.$.P % k 7.i.r.e.e.r.h.z.x.G.J.{.|.S.b s s s s & s 8 s D h.c.a.w.e.e.e.h.l.7.; X 7 u u y y u u u u u y q q q ",
"3 E 8XDXZX5XT B `.(.1.L 2 ; 5.i.i.a.h.h.j.z.x.n.G.K.{.K.D.Z.y.H F F F H y.u.c.c.r.e.e.w.a.s.d.5.- 4 Q &.&.+.+.+.+.o.+.&.&.o.I 7 ",
"4 E 9XAXCX4XK M Q.[.,.` K 9 l w.k.l.j.h.z.z.z.x.n.H.H.J.I.I.I.m.m.M.M.M.c.s.f.a.w.e.w.r.j.l.7.j : Q $X7X7X7X1X:X%X&.;.8XlX0X) 7 ",
"4 R 8XAXCX*XK L &X3X-.| | W 9 F k.k.s.h.z.z.c.z.z.z.c.v.n.m.b.b.v.b.b.c.a.r.r.e.e.e.r.j.j.r.x * Q &.-X7X7X,X,X%X*.) ) <XSXcX*.7 ",
"4 R 7XZXZX3X1...+XOXOX>.2.1.g s x 7.s.j.v.b.b.k.k.b.v.l.k.k.M.M.B.M.M.l.j.i.a.a.a.s.j.s.6.x : u } =.@X$X$X%X@X+.^ ! -.wXfX2X! q ",
"4 Q 7XCXCXjXQ.R.$.OX .3.(.Q.X.P 9 j 7.l.k.l.s.s.s.s.s.s.i.l.k.N.M.b.l.a.i.a.s.s.a.k.d.7.x r P [ +.&.&.&.#.#.@.O.) -.wX8X-.T y q ",
"4 W 9XCXCXjXQ.R.X.| ] 2.E.E.>.` K 9 l 5.5.F F V V V V V F F 9.q.q.9.F V V F V F 9.5.5.n t T } &.&.#.@.O.O.O.O.-.&XiXqX:.I 4 7 i ",
"3 Q eXFXCX2XX.Z _ } | { >.$.+. . .W 8 ; ; ; : 1 1 < : < < s , < 1 1 < < < 1 < 1 < 1 1 s Q +.%.*.@.@.@.O.{ ! { ;XxXpX;.u 4 4 y u ",
"4 ) uXJXZX,XL 0 E }  ...1.,.$.>.T.1.t O O X X % $ % 5 6 5 2 2 @ O X + $ $ $ + $ # X X 7 R ( ( R E ! ! ! I i I #XiX&Xy X O 7 y u ",
"4 ! qXHXAX,XY 0 Q  .O.3.Q.E.1.3.'.!.M 2 2 4 6 0 6 0 0 0 0 6 6 0 0 6 7 6 7 6 6 6 6 6 7 q u I p y i i u i q 7 4 U ) U 3 + 3 7 y y ",
"q p +.tXNX7XQ p #. .O.3.E.E.,.2.Q.R.M Y  .$X+X' K 2 0 0 9 f J 3.%XOX/ I R R R I U Q ( ( ~ ~ R ~ ( p 6 p ) #.( U I ~ @.:.-.^ u 4 ",
"y $ 4 -.kX8X~ T @X%X} ) X...O.+.>.g a [ rXFXCX4XK 9 2 9 6 C `.oXVXgX+X{ { { { { { #.%X:X-X%X%X:X:X( y O.xXHXzX7X7XuXBXHXSX6XR 4 ",
"7 4 p %XkX1X~ R $X-X+X] ' ' ] OXOXW u } dXFXCX,.G N a K L B (.oXVXgX+X{ { #.#.} O.-.%X:X%X-X,XeXeX&.p #.BXPXHXlXlXBXLXPXKXyX~ 4 ",
"7 U &XzXNX8XR I @X7X:X=.} ' [ @X=X .P O.gXhX0XT.`.!.<.] ' ..1.,.#X+X%.@.@.@.@.@.@.@.*.#.#.;.:XeXeX+.y @.BXPXHXzXlXbXZXKXHXeXQ 4 ",
"q ~ tXJXJXeX~ I $X9X9X,X#X&.#.#X:Xo.I *.dXhX&X3.(.Q.,.=. . . .} { { @.*.@.#.@.@.@.@.O.{ O.#.-XeXrX+.y $.BXPXJXbXbXbXNXAXAXtX~ 4 ",
"q R :XNXHXqX~ R %X7X7X1X,X#X-.-.:.^ p *.lXgX=X..1.,.$.&.%.%. .} } O.@.@.#.@.@.*.#.$.@.O.{ #.:XeXeX+.p #.BXPXHXbXzXzXNXAXAXtX~ 7 ",
"y y o.:XeX%XE I +.@X@X;.;.&.{ ) ^ I i ) <X<X%.W W ] [ ) ) ) ) ) ^ ) ) ) _ { ) ) ^ o.Q ~ ^ o.&.%X@Xo.u ) wXlXiX1X1X1X8XrXtX#XR q ",
"y y u T ~ R p y U R R R R U I p p i y p ^ ^ T L L L P I I p I I U I I I U U I I p U p p i p I R R p y u E ( ~ R R R R ~ ~ U u y ",
"p p 7 7 7 y 7 7 y 7 7 7 y q q u y y y 7 7 y y y y q w y y y y q y y y q q y q q y y y y y y 7 y y y 7 7 4 4 4 4 4 4 4 4 7 7 y i "
};
