/* XPM */
static char *result[] = {
/* columns rows colors chars-per-pixel */
"64 64 156 2 ",
"   c #040101",
".  c #0C0302",
"X  c #0E0906",
"o  c #020609",
"O  c #04090D",
"+  c #0D0B0A",
"@  c #130401",
"#  c #180600",
"$  c #120906",
"%  c #180A04",
"&  c #120D0B",
"*  c #190D0B",
"=  c #14100E",
"-  c #1C120D",
";  c #020C13",
":  c #090D11",
">  c #010F18",
",  c #0E1217",
"<  c #03121C",
"1  c #0B161E",
"2  c #151515",
"3  c #191614",
"4  c #1A1817",
"5  c #171718",
"6  c #171818",
"7  c #1B1B1B",
"8  c #20140F",
"9  c #211510",
"0  c #211B17",
"q  c #211D1A",
"w  c #041624",
"e  c #041826",
"r  c #0B1923",
"t  c #041D2C",
"y  c #0A1D2D",
"u  c #121C23",
"i  c #1E1F20",
"p  c #041F30",
"a  c #201F20",
"s  c #0A202E",
"d  c #1F2021",
"f  c #10222D",
"g  c #042134",
"h  c #0B2333",
"j  c #05263B",
"k  c #0A2639",
"l  c #06293E",
"z  c #082A3E",
"x  c #102735",
"c  c #112836",
"v  c #112939",
"b  c #222222",
"n  c #062B43",
"m  c #092D44",
"M  c #052F49",
"N  c #092F48",
"B  c #05314C",
"V  c #09334D",
"C  c #053553",
"Z  c #093653",
"A  c #063856",
"S  c #093856",
"D  c #053758",
"F  c #063A5B",
"G  c #093C5C",
"H  c #043E62",
"J  c #0A3F61",
"K  c #054165",
"L  c #0A4164",
"P  c #04456B",
"I  c #0B456A",
"U  c #0B486E",
"Y  c #054A73",
"T  c #0B4A72",
"R  c #054F7B",
"E  c #0B4E79",
"W  c #04517D",
"Q  c #0B517D",
"!  c #055584",
"~  c #0B5483",
"^  c #045887",
"/  c #0D5886",
"(  c #0A5789",
")  c #055B8D",
"_  c #0C5A8C",
"`  c #045D91",
"'  c #0B5E92",
"]  c #066196",
"[  c #0C6195",
"{  c #05659C",
"}  c #0C649B",
"|  c #0A699E",
" . c #10649B",
".. c #0566A1",
"X. c #0C67A1",
"o. c #0569A4",
"O. c #0B6BA4",
"+. c #046DAA",
"@. c #0C6DAB",
"#. c #106DA4",
"$. c #116FAC",
"%. c #0571AE",
"&. c #0B71AD",
"*. c #1273AC",
"=. c #0573B2",
"-. c #0B73B3",
";. c #0B78B5",
":. c #0577B8",
">. c #0C76BA",
",. c #067ABC",
"<. c #0B7ABA",
"1. c #1174B3",
"2. c #1179B6",
"3. c #117BBD",
"4. c #037CC6",
"5. c #0C7EC4",
"6. c #097EC8",
"7. c #117DC3",
"8. c #107FC9",
"9. c #0B82C5",
"0. c #0482CE",
"q. c #0B84CB",
"w. c #0C88CE",
"e. c #1283C6",
"r. c #1183CC",
"t. c #1388CE",
"y. c #0B86D3",
"u. c #0B8AD3",
"i. c #078ED9",
"p. c #0B8BDA",
"a. c #1187D3",
"s. c #138BD4",
"d. c #128DDC",
"f. c #0A91DD",
"g. c #1494DC",
"h. c #1698DD",
"j. c #0C94E2",
"k. c #0E99E5",
"l. c #0D9CEC",
"z. c #1394E3",
"x. c #1497EA",
"c. c #129CEA",
"v. c #0F9EF0",
"b. c #179FF0",
"n. c #0DA0EC",
"m. c #05A1F4",
"M. c #0CA4F5",
"N. c #05A7F8",
"B. c #0DA7FB",
"V. c #0DABFB",
"C. c #13A3F3",
"Z. c #15AAF7",
"A. c #12A4FA",
"S. c #0DB2FE",
"D. c #16B5FE",
"F. c #18B7FF",
/* pixels */
"j j l j g p j g p p p g j j p g g g g p g g p j p p p p t w w w w w w w w w w w w w s s g g g s t t t s s g g g g g s s t g g g ",
"j l j t t p D L M n n m n n j j n N n n n n m N M j p n G L F C V C C V C V C B V S K C g g n B B M M B B N l l l l z B F C l g ",
"j g g w e F  .#.U Z G J J C j n G G G G G S G L J m p G *.t.3.O.| | | | | o.| ] } ;.e.[ l g D ! W W W W W Y L G F Z S / @.` C g ",
"g g w t Z } 2. .E J L T T Z n M L T U U I I I T T Z g H t.Z.b.s.w.w.w.u.u.u.y.9.9.c.Z.2.n t K { ..{ { ] ) W U I I G L | p.,.F e ",
"g t w Z @.7.X.E L L I T U D j N L T U I I I I T T Z p C =.x.z.t.q.9.9.9.9.q.9.<.<.k.Z.*.n t P ..{ { { ) E U L I L G J ' y.:.F t ",
"g g G } 7.-.E S G L I I I Z j n J U I L J J J U I Z p M ..y.a.7.<.;.,.,.<.<.<.-.-.p.c.| j p ! @.) ! W E U L L I I S G ( 6.=.D w ",
"g A [ 2.} T G Z G G L I L V j n G I J J J J I T U C p B ..i.p.r.9.9.9.9.9.9.9.;.<.k.b.#.n n ' @.W J K L L G G J G V D _ 6.@.D t ",
"g L ' _ G n z V V V V Z G N p j V D Z N Z J J ~ ~ G n H 4.v.A.c.j.f.j.j.j.j.f.i.i.V.D.3.M j U ~ G m N V V Z V N N V U @.q...C w ",
"p n G J N m m N V m N Z D m t p N S Z N Z G U ~ ( H n P 0.B.A.c.f.f.f.f.f.f.f.i.f.D.D.9.M w n J N m m M Z Z Z m n G X.d.p...C e ",
"y m U _ _ ~ ~ _ / ( _  .[ I n N ~ ' [  .' ~ J Z Z l t B ) -.2.$.&.+.&.+.&.&.@.| { ;.3./ n g J _ _ ~ ~ ~ ~ ~ ~ T U [ d.v.b.%.Z e ",
"p D  .7.8.7.7.>.>.2.7.a.7.~ N J $.y.p.p.y.[ m , 2 , 2 , f x v x x x c c x c x h y h c y t F } 6.7.3.7.7.>.7.7.-.1.7.d.b.z.X.D t ",
"p Z ( O.O. .X.' _ _ ' ' ' J n D X.>.@.@.O.I i # % * - - % @ @ @ # @ % % # # # @ @ . @ . ; C ` @.X. .'  .$.O.$.1.$.O.} X.X.~ M p ",
"p n n B M M n n n p j n n p p n D B g y s u 3 - 3 0 q 0 3 - * * - - 0 9 9 9 8 * $ $ % # . w n D Z M n n M M Z Z D N m M m n j p ",
"p n p p y w e p C D C B M C M j w O . . . $ - a b b b b b 7 4 4 q b b b b b b 7 2 4 4 * $   O t n D D D D m e > > < t p p p p p ",
"p j M Z V m N J ' @.....%.X.R p + . @ @ @ % 3 7 b b b b b d 7 7 b b b b b b b i 4 7 i 7 & .   < H ` -.7.-.~ n ; > y M Z D M n p ",
"p m J T T J J _ 1.%.+.p.A.d.~ y X $ - 4 5 5 4 7 a b b b b i 6 7 q b b b b b b q 7 i a i 4 $ . o n ( 6.p.a.~ n ; < n J E E J M j ",
"p M G U U J J T E G F @.b.w.G . @ & 2 5 5 4 6 7 6 7 7 b a 7 6 7 b b b a b 7 7 7 7 b b b 6 2 X . o p T ' _ J p > < n J E E J n p ",
"p n Z G G Z S J G n g P } E r . $ & 2 2 5 7 b 7 7 7 7 7 7 7 6 2 6 q 7 7 7 7 6 7 b b b b 7 6 = @ .   e D I J F n p p G T T J n p ",
"p n D I J J J U I Z j t p r X $ = 2 2 5 7 b b b 7 7 6 6 4 2 2 2 5 5 2 5 6 6 7 q b b b b b 7 5 & X . . < Z ' -.! g t Z T T G m p ",
"p M ~ X.X.} }  ./ J p O . . $ 2 4 5 5 5 7 b b a 7 6 2 2 2 2 2 = 2 2 2 2 5 6 6 7 b b b b b 7 6 5 = & . . e ' j.-.M t Z U T J n p ",
"t H @.8.p.y.y.5._ Z <   . $ 2 7 7 7 7 7 d b b 7 6 6 2 2 2 3 = 2 = 2 2 = 5 2 5 6 b b b b b 7 7 4 2 , $ . o J q.>.Z y Z T T G n p ",
"t B ! +.-.=.+.( F t O . $ 2 6 q d b 7 7 7 7 7 6 2 2 2 6 6 6 6 7 5 5 5 2 4 5 2 5 6 7 i q 7 7 7 6 4 4 5 # . y E ( n p S T T G n p ",
"t p B D D H H n ; o . X 2 4 7 b b b q 7 4 5 6 5 3 6 7 7 7 i 7 i 7 7 7 7 7 6 5 5 5 6 6 6 7 7 7 7 i b i 3 @ X 1 p t n G U U F n p ",
"e M J B < j H n     . 2 2 5 6 i b b b 7 5 2 2 5 4 7 i i b d b b b d b b b q 7 7 6 5 5 4 6 7 b b b b b a 3 $     w n J I I Z n j ",
"t T >.' n G O.~ O   X 2 5 5 4 7 b b b 7 2 2 = 6 7 i a a b b b b b b b b i i 7 a 7 6 6 5 7 7 b b b b b b 5 X     e M J L I Z n p ",
"t ~ z.7.A K @.' >   . 2 6 6 6 7 7 7 7 6 2 2 5 6 7 a b b b b b b b b b b b b b b b 7 4 5 7 q a b b b a 7 5 X   o p D I ! E J n p ",
"e Q z.e.F V T I > . $ 5 7 i i 7 6 4 6 5 5 5 7 7 a b b b a b d d b b b d b b b b b q 5 5 6 6 7 a b b 7 6 2 $     w B ! { ' Y n p ",
"r E g.e.F w t s : $ = 7 b b b q 7 5 5 2 5 6 7 b b b b a i 7 7 7 b b b b a a b b a 7 5 5 5 5 7 7 7 7 6 7 6 2 X . o n ! %.+.R M p ",
"w E g.s.L ; o o + 2 7 b b b b b a 7 2 2 2 2 i b b b i 7 7 7 6 7 7 i i 7 a a b b b q 6 2 2 5 4 6 6 6 q i b i 2 .   < W :.+.! M t ",
"e ~ c.h.I ;     & 4 i b b b b b b 7 2 2 = 5 d b b a 7 6 3 2 3 6 7 7 7 7 7 i a b b 7 6 5 2 5 6 6 7 7 a b b b 4 .   ; W ,.:.^ M t ",
"p E z.g.U ;   . & 6 b b b b b b b 7 4 2 2 5 7 b b i 7 3 2 2 2 6 7 3 3 6 7 7 a b b 7 2 2 2 2 6 7 7 a b b b b 4 .   ; Y %.+.W V p ",
"g J } } F >     + 6 7 7 7 7 7 7 7 6 5 2 2 2 7 b b a 7 7 6 7 7 7 7 7 7 7 7 7 a b b 7 5 2 2 2 6 7 7 7 b b b b 7 .   o n K K V l g ",
"g j n N j <   . + = 6 6 2 6 2 4 6 6 2 2 3 6 d b b b i 7 7 a i i i 7 i i 7 a b b b i 6 2 2 2 3 6 6 7 i a b b 6 $     ; w w t t g ",
"g p g n M t o   + 2 6 4 6 6 4 7 6 3 , = 2 7 7 b b b 7 7 7 7 7 7 i 7 7 7 7 7 b b b i 6 2 2 = 6 7 6 6 7 7 b 7 5 .   o j F A M j p ",
"g j V L I j o . & 4 i a i 7 a 7 7 7 3 2 2 3 7 b b 7 7 6 7 7 6 4 7 6 6 6 7 7 a b b d 2 = , 6 7 7 7 7 7 7 7 6 3 .   > ) w.9.' M t ",
"p n L ! ! n o   $ 4 b b b b b b b 7 6 , 2 2 i b b b 7 7 6 3 6 7 3 6 6 4 7 7 a b b 7 6 2 = 6 7 i b 7 7 7 6 7 = .   w :.S.V.>.D e ",
"g n L ( Q V O   X 2 a b b b b b b 7 6 2 2 2 7 d b b a 7 7 i 7 7 7 7 7 7 7 7 b b d 7 6 2 2 7 i b b b b i 7 d 3 .   w +.N.m.=.D t ",
"j n I ~ Q L g ; X = 7 a i i a i 7 7 3 2 2 2 7 i b b b b a b i a b 7 b b b b b b i 6 6 2 3 7 i b b b b b d d 3 .   ; ! 0.4.) M t ",
"p n G U T T H g + . = 3 4 6 7 6 6 6 2 2 = 2 3 7 a b b b b b b b b b b b b b b 7 6 2 2 3 7 7 b b b b b b i 7 = .   o D ( ^ J n t ",
"j j j k z A J M O . X 2 2 6 4 7 7 7 6 6 2 , 2 3 7 7 b b b b b b b b b b b b 7 7 2 = 2 6 7 i b b b b b b 7 = + . o w k V S N g p ",
"g p < ; < p n g O . X 2 2 2 7 i i 7 7 7 3 2 2 2 2 6 a a b b b b b b b b d i 7 2 2 , 3 6 7 b b b b b b a 6 & . o m A N V Z m k p ",
"p j V A A C j <   . $ 2 2 5 7 a b d 7 7 7 6 2 2 2 6 7 7 i a 7 7 7 7 7 d 7 7 6 2 2 3 7 6 7 b b b b b b 7 5 $   > _ -.X. .[ T N p ",
"t V ' 9.<.) B ;   . X = 2 6 7 b b b 7 7 7 7 7 6 6 2 2 6 4 3 6 2 6 6 7 3 2 2 3 7 7 7 7 7 7 7 7 d b b 7 3 & .   t -.d.a.a.8.} D p ",
"w Z >.B.M.-.F w < O X $ = 5 7 i i 7 7 7 d b b 7 6 6 2 2 2 2 2 2 2 = 2 2 2 2 6 7 7 d b 7 7 7 7 7 i 7 5 2 # .   t ~ $.$.X.X.E Z g ",
"w C -.M.n.O.A n G k X . = = 6 6 7 7 7 d b b b b a 7 6 2 = 2 2 5 2 2 2 2 2 2 7 i b b b b b 7 7 6 6 4 2 @ .   ; t n M M M N n j p ",
"w Z O.n.k.{ V C ! Y g . . + = 2 6 7 7 b b b b b a i 7 3 2 2 2 6 6 6 6 3 3 6 7 b b b b b b i 7 6 5 & @ . ; g V M n j j g p p p p ",
"w V O.n.f.` V B ) { L e   . $ = 2 6 7 b b b b b b b 7 7 5 6 7 7 7 7 7 7 2 6 7 d b b b b b d 7 3 & $ . ; B ! ) W Y K P Y Y H n p ",
"w B O.k.k.] B B ] %._ J r     + & 3 d b b b b b b a 7 7 6 7 b b b i 7 7 2 6 7 i b b b i 7 7 = $ . . O Z { =.%.] ^ Y W @.w.@.F t ",
"w V +.n.f.[ N B ` { ^ Q L 1   . & 2 6 7 i b b b b i 7 7 7 a b b b a 6 5 2 2 5 7 b q 6 6 4 5 = @ . o M o.+.+...^ I V L $.x.8.U y ",
"w B O.l.k.[ N M W ! E E E K s   . & 3 7 7 7 7 b b a 7 6 7 b b b b b 6 2 2 2 5 4 7 7 6 5 5 2 + .   t R ..] ) ! K V S E $.7.[ Z p ",
"w B O.n.k.] M g H I I I U U K e   . - 6 7 7 7 i a 7 7 7 i b b b b a 6 5 2 2 2 5 7 7 5 5 = X . O g L ! E T U I J J Q #.O.E N g p ",
"w B O.l.k.} N g S L L L I U T P w + & 3 4 7 7 7 a 7 6 6 7 b b b b 7 5 2 2 2 5 5 7 7 7 6 2 .   < I ( E L L J L Q  .*.@.Q n e t j ",
"w A &.n.k.} B g Z J J L L L Y T I k : $ * 4 4 4 7 4 6 2 6 4 6 6 4 2 = 2 2 & 2 5 6 q 7 4 + .   w I ( E L G S L  .r.7.E j e e p j ",
"e A <.M.k.{ M g Z G L L L L I E ~ H w . $ % * & = + + + & + + X $ X X X X X X & 2 3 - % .     w Z L G V n h n E 1._ g o ; t g j ",
"t A &.n.l.| B g S L L L L L L T E L j O . . . .                       .     . . @ $ . .     ; s j n j g p t w n G n w ; w t p j ",
"g j P ;.f.| V z U U L J G J L I I Z n j j p t >               O w w ;   o o o o O < < < e g B F F n t l I T F V M Z I E E Z j t ",
"g < w R 9.+.C M W _ U G G L J I L N j A $.l.p.! p > < t e > e R i.6.~ Z D J J D S U ! ) ) ) ) | ] H k I e.c.w.+...<.g.b.z.X.V w ",
"t w z _ 9.| C M ^ ] Q H G S J U E F j J y.B.v.' D n n C M n M ' p.y.} T T E E U T ! ] | { { o.=.%.P j U h.F.n.q.w.g.Z.D.A.;.D e ",
"t m ) u.f.| V M ! ..] R I G L Q ` P n J 8.z.1.E H F J J J J J E ' ' E U U U U U I T E E R ! ] %.%.P g I h.D.n.w.w.u.j.M.M.-.Z e ",
"t A ;.M.C.&.C M ^ %.+.] / T U / ` P n I 8.a.' J J I T T T T E J J L L U U I U U I I L J G T _ =.:.P k I h.F.C.u.y.u.f.l.l.=.Z e ",
"g B ] i.l.&.A B ! +.+...] ^ E E E D n U 8.8._ J I I T T T T U J J J I J U I I I U I L J L T ` %.%.Y l U g.D.n.u.u.w.f.l.l.&.A t ",
"g j H ] &.) C n P ! W W W Y J G S n k G '  .U D S J J G J J J F J F J J G G G J F F G S S H Y ! ! H j A *.e.;.| | | O.&.-.! V g ",
"g g j B A V g g M M B B V M n z n j p k D Z n n n m n n n n n m m n m n m M n n n n n l z z l B B j g j A F A B V B C A A m j g ",
"j g g e e g g e g g t t s g g g p j p p p p p p p p p p p p p p p p p p p p p p g g g g s g s g g g g s w e w w w w w w t g g g "
};
