/* XPM */
static char *result[] = {
/* columns rows colors chars-per-pixel */
"64 64 194 2 ",
"   c #010101",
".  c #0B0503",
"X  c #0D0906",
"o  c #020609",
"O  c #04090D",
"+  c #0C0C0C",
"@  c #100301",
"#  c #140904",
"$  c #1A0B05",
"%  c #130D0A",
"&  c #190D09",
"*  c #15110F",
"=  c #1B120D",
"-  c #030C13",
";  c #010E19",
":  c #021017",
">  c #0E1114",
",  c #04121C",
"<  c #08131D",
"1  c #131313",
"2  c #1C1613",
"3  c #1D1916",
"4  c #171718",
"5  c #11191E",
"6  c #1B1B1B",
"7  c #20110A",
"8  c #221B16",
"9  c #211D1A",
"0  c #22201F",
"q  c #2A211D",
"w  c #3D2619",
"e  c #041623",
"r  c #041826",
"t  c #041D2C",
"y  c #0B1D2A",
"u  c #1F1F20",
"i  c #041F31",
"p  c #1C272F",
"a  c #042134",
"s  c #092233",
"d  c #05253A",
"f  c #08273B",
"g  c #06293E",
"h  c #08293D",
"j  c #242424",
"k  c #2C2826",
"l  c #272728",
"z  c #2C2C2C",
"x  c #37322E",
"c  c #27333C",
"v  c #343434",
"b  c #3A3634",
"n  c #3D3937",
"m  c #3A3A3A",
"M  c #4F270F",
"N  c #453127",
"B  c #43352D",
"V  c #473A33",
"C  c #433F3D",
"Z  c #45413D",
"A  c #4D423B",
"S  c #51443B",
"D  c #002042",
"F  c #062B43",
"G  c #082D44",
"H  c #052F49",
"J  c #092F48",
"K  c #06314D",
"L  c #09334D",
"P  c #143245",
"I  c #053553",
"U  c #093653",
"Y  c #063856",
"T  c #093856",
"R  c #03365B",
"E  c #063A5B",
"W  c #093C5C",
"Q  c #133750",
"!  c #133B56",
"~  c #363E44",
"^  c #033E63",
"/  c #0A3F61",
"(  c #003F68",
")  c #364249",
"_  c #3E494F",
"`  c #234256",
"'  c #2D4A5C",
"]  c #064165",
"[  c #0A4164",
"{  c #04446C",
"}  c #0B456B",
"|  c #0B486F",
" . c #164869",
".. c #024571",
"X. c #054A73",
"o. c #0B4B73",
"O. c #054E7B",
"+. c #0B4E79",
"@. c #124B70",
"#. c #05517D",
"$. c #0B517D",
"%. c #254C64",
"&. c #314E60",
"*. c #30566F",
"=. c #285978",
"-. c #335E76",
";. c #454545",
":. c #4B4543",
">. c #48494A",
",. c #4B4B4B",
"<. c #534943",
"1. c #504E4D",
"2. c #49575F",
"3. c #545454",
"4. c #055584",
"5. c #0B5583",
"6. c #045887",
"7. c #0D5886",
"8. c #0B5788",
"9. c #055B8D",
"0. c #0C5A8C",
"q. c #145C8A",
"w. c #055D91",
"e. c #0B5E92",
"r. c #025E9B",
"t. c #066196",
"y. c #0C6195",
"u. c #05659C",
"i. c #0C649B",
"p. c #0A699E",
"a. c #10649B",
"s. c #2B7199",
"d. c #0565A1",
"f. c #0D67A0",
"g. c #056AA4",
"h. c #0B6BA4",
"j. c #046DAA",
"k. c #0C6DAB",
"l. c #106FA7",
"z. c #186DA3",
"x. c #116FAC",
"c. c #0571AE",
"v. c #0B71AC",
"b. c #0573B3",
"n. c #0B73B3",
"m. c #0B78B6",
"M. c #0477B9",
"N. c #0C77BA",
"B. c #067BBD",
"V. c #0C7ABA",
"C. c #1173B3",
"Z. c #117AB6",
"A. c #117BBC",
"S. c #057BC5",
"D. c #0C7DC3",
"F. c #097EC8",
"G. c #117DC3",
"H. c #107FC9",
"J. c #0B82C5",
"K. c #0582CE",
"L. c #0B84CB",
"P. c #0C88CE",
"I. c #1284C6",
"U. c #1E86C2",
"Y. c #1182CC",
"T. c #1388CD",
"R. c #0287D4",
"E. c #0B86D4",
"W. c #0C8AD2",
"Q. c #0B8ADA",
"!. c #138BD4",
"~. c #1189D7",
"^. c #0B91DB",
"/. c #1494DC",
"(. c #1699DD",
"). c #0D95E3",
"_. c #0E99E6",
"`. c #0C9CEC",
"'. c #1394E2",
"]. c #1497EA",
"[. c #019DFB",
"{. c #179FF0",
"}. c #0DA0ED",
"|. c #16A0EF",
" X c #0AA3F7",
".X c #0DA4F4",
"XX c #02A3FA",
"oX c #0DAAF9",
"OX c #12A3F3",
"+X c #12A3FA",
"@X c #13A9FC",
"#X c #0DB3FE",
"$X c #17B5FF",
"%X c #18B7FF",
/* pixels */
"d d d d a i a a a i i a d a a a i i i i i i i i i s i t r r r e e r r r e r r r r r t i i a a t i t t t i i a a a a i i t i a a ",
"g g d a t a Y [ K g F F G F d d F G J J J J J H K D i F W } W U K K U K K K K H K Y W U d a F K K H H K K H F g g g g K [ K g a ",
"d d t r r W i.z.| U W / / I d G W / / / R / / / / G a W l.T.A.l.p.p.p.p.d.p.d.i.u.m.J.y.g i R #.#.#.#.#.#.X.[ W T L T 5.k.t.K i ",
"d i e t I i.N.a.+./ [ o.o.I F H / o.( o...( ..O.+.I i ^ Y.@X|.!.P.P.P.W.W.W.W.J.L.}.$XJ.H t ] u.g.u.u.t.9.$.| } } [ [ p.Q.V.E t ",
"a r e I k.G.f.+.[ [ [ o.| I g F / +.o.o.( +.( 5.o.K i I b.].'.T.J.J.J.L.L.L.J.D.J.`.oXB.H i { u.u.u.u.9.+.} [ } } W / y.E.M.E r ",
"a a W i.F.x.+.T W [ } | | U g F / o./ / / ~ ! ! @.J i H d.E.!.A.V.B.m.m.V.V.m.B.B.!.U.=.c P 8.j.9.4.#.#.| [ [ [ [ U T 8.F.b.Y r ",
"a U y.Z.a.o.W U Y / [ } [ U d h W ( o.` ) :.C %.@.I i R g.Q.'.Y.J.J.J.J.J.J.J.R.R.Z.-.V N &.z.k.O.] ] [ [ W W [ W U T 8.F.k.R r ",
"a [ e.0.W F h L L K L U W G a a U ( ( ! :.V _ *.5.^ F ( S. X@X{._.)._._.)._.`.XX[.N.>.M N ! q.8.Y F G L L L U J G L o.k.K.g.U r ",
"i F W / J F G J L G J U T G i s I ( ( ! ;.;.%.5.w.] H O.E.@X@X|.).^.^._.).).`.XX[.A._ w 4 d R W J G G J U I I G G W f.^.~.d.K r ",
"t G o.0.q.7.8.8.8.8.0.a.e.} F I 4.9.@.~ Z ~ Q ^ R g t K 9.v.Z.v.v.v.v.v.g.g.g.M.J.s._ q < D ( e.q.5.5.5.5.5.5.o.} y.~.+X{.b.R r ",
"i T e.H.H.G.A.A.A.N.A.Y.G.5.H ..S.C.*.C V m p e ; O o - t i a t i i t i t t t P ' 2.;.z y R r.D.G.G.N.G.A.A.A.C.C.G.^.].'.h.T t ",
"i I 8.k.f.i.i.e.0.8.e.a.e.^ F ( j.z.2.S S :.x =                               $ B <.S n c  .e.j.f.e.a.f.f.x.C.n.C.f.f.f.f.5.J i ",
"d g F I J H F g g d d F F i i D R ! ~ S :.,.:.k .                             & V <.<.<.;.) Q I K H F F H H H U I H H G F F d i ",
"i d i t t e e d H R I H J I H i ; 5 b ,.,.,.C z +                             4 Z 1.1.A b q > t D R T R T G t ; ; e r i i i d i ",
"a f J I L F G } i.k.d.j.n.f.X.i   % x 1.1.m l +                               1 ) 3.,.v 8 .   e ( w.n.D.N.5.g - ; y J T T H F i ",
"a G / o.} / } 8.C.k.j.Q.+X^.5.;   & b 3.1.v +                                 1 C 3.,.x X       H 0.F.'.Y.8.g - e F / +.+./ H i ",
"a F W o.} [ [ o.$.W W k.OXT.I     % b 3.,.v +               o                 1 m 3.,.z +         s +.i.0.W i ; e g [ +.+.W G a ",
"i F I / W U U W W h s | f.+.<     1 m 3.,.m 0 > 1 1 1 1 + 1 1 1 1 1 1 1 + + 1 z ;.3.,.v >           y U } } / F r a W +.| W F a ",
"i f W [ [ / [ } } T d s s e .     1 m ,.>.;.m m m m m m m m m m m m m m m m m m ;.,.,.v 1             < U e.N.4.d t U o.o.W F a ",
"t H 5.f.f.i.i.a.7.[ a O           1 v ;.;.;.,.3.3.3.3.3.3.3.3.3.3.3.3.3.3.3.,.,.;.,.,.v 1             . r e.'.N.G t K o.o.W g a ",
"i R h.E.Q.E.E.N.y.T <             1 v ;.;.;.,.1.3.3.3.3.3.3.3.3.3.3.3.3.3.3.,.;.;.,.,.v 1               o W Y.V.I t I o.o.W F a ",
"t H 4.j.b.b.j.e.W t o             + z ;.>.;.m v v m v m m m m m m m m m m v v m ;.,.,.v 1                 r +.5.F s U o.o.W F a ",
"t d H I R / ^ H :                 + z ,.,.m j 1 1 + 1 1 1 1 1 1 1 1 1 1 1 + 1 j m 3.,.v 1                   , d i F W @.o.W g a ",
"t F [ L < D / G                   1 v ,.,.v 1                                 6 m ,.3.v 1                       r G W } } U g i ",
"r o.A.y.F W h.5.O                 1 v >.>.z *                                 1 z ,.3.v 1                       r H / } [ U F i ",
"t 5.'.A.Y [ C.i.<                 + v ;.>.z +                                 1 v ,.,.v 1                     o i T | $.+./ F a ",
"r $.(.I.[ G +.} ;                 * v ;.:.z 1 . o     o   o o       o       o 6 v ;.;.v 1                       r I 4.p.u.X.F t ",
"e +./.I.W r t t o                 1 v ;.) z j 6 4 1 6 3 4 6 3 6 6 6 3 6 3 4 6 j v ;.;.z 1                       - F 4.j.g.#.G i ",
"e $./.T.[ : o o                   1 v m m v v m b v b v m v v m m v m v v v v v m ;.m v 1                         , #.b.j.4.G t ",
"r $.|.(.| O                       1 z m v v C >.,.,.,.,.,.,.,.,.,.,.,.,.,.,.;.;.m m m z 1                         - #.B.M.6.K t ",
"t $.'./.| -                       1 z v v v ) ;.>.;.>.;.,.;.,.;.;.;.,.;.;.;.;.m m ;.m j 1                         - X.c.j.#.K i ",
"d W i.i.E ,                       1 j v v z x z z z z z z z z z z z z z z z z v m ;.m j 1                         o H ] ] K g a ",
"a d F H F <                       * z m m z 6 1 + + + + > + 1 + 1 + + + + + 1 j C ;.m j *                           ; e r r t d ",
"a i a F H t o                     > z m m j 1                                 6 b ) m j * o                       o g W Y G d t ",
"a d L } } g o                     1 z m m j +                                 1 z m m z *                         ; 8.P.J.e.K r ",
"i F [ 5.$.G o                     1 z m m j *                                 1 z m m j >                         e b.#XoXM.W r ",
"a F [ 8.$.L O                     1 z m m j 3 O   o o . o . o . . o . o   o X 6 z m m z 1                         , j.oX Xb.R t ",
"d G } 5.5.[ f -                 o 1 z v m z j 4 1 1 1 4 4 3 4 4 4 4 4 1 1 1 6 j z m m j 1                         - 4.K.S.9.H t ",
"i G W } o.o.W a o               . 1 j v v v z z z z z z z z z z z z z z z z z v v v v z 1 o                       O T 8.4.] g t ",
"d d d f F W [ G O                 1 j z z v v v m m m n m m m m m m m m v v v v z v v j 1 .                     o e h L U G d i ",
"a i , ; < d K g X               o 1 j z z z z v v v v v v v v v v m v v v v v z z z v j 1                     . G T U L L J f i ",
"i d K I Y K g e .               o 1 l z z l z j j j l l j l j j j j j j j j j l j z z j 1                     , e.C.f.a.y.@.J i ",
"r I e.J.D.0.K : .               . 1 l v v k u 1 1 + 1 1 1 1 * 1 1 1 1 + + 1 4 0 z z v j 1 .                   t C.^.~.Y.H.a.T i ",
"r T m.+X}.n.W r ; X             . 1 j z v j 4 O         o .   o   . o       + 6 z v z j 1 o                   i 5.x.x.f.f.+.R i ",
"r K m..X}.v.Y F W s o           o > u z z j 1                               . 4 z z z u * o               o - t F K H K J F a a ",
"e K v.}._.t.K U 5.+.s o         X * u z z j 4 o                             o 1 j z j u 1 X             O a L K F g a a a i i i ",
"e K g._.^.y.K K 9.u.} y         O 4 u j j 0 3 * + o o + o X + o o X O X o + 1 6 j q j 6 1 +           - I 6.w.#.X.{ { X.O.^ F t ",
"r K h.}._.t.H K t.j.0./ r       X 3 0 j 0 0 p 6 1 3 6 6 6 6 6 0 0 6 6 6 6 0 0 j p 0 j u 4 +         O U u.b.c.t.4.X.#.g.L.k.W t ",
"r K v._._.y.H K w.u.0.+.} t     % 4 u j u j u j 6 j z z z z z z z z x z z v z l 6 j j 6 4 +       o K g.c.j.g.4.[ U [ x.].H.} t ",
"e K h.`.^.y.H F #.6.+.$.+.} i   X & 9 j j 9 u j j j z z v z z z z z z z z z z j j 0 j j 6 *       t 4.g.y.9.4.] L T +.x.A.a.U i ",
"e K h.}._.p.H a ] } [ | | | [ i . # 8 0 j j j j j j j z j j j j l l j j j l l j j j j j 6 + .   t } 5.$.o.| } / [ $.h.l.+.J d i ",
"r K h.`.^.p.H a U [ [ [ } | o.} i + 2 9 j j l j j j u u 0 0 0 p 0 p 9 9 p j j j j j j j 6 X   - o.0.+.[ [ / [ $.y.x.k.$.F r r d ",
"e U v.}._.p.H a U [ [ [ [ [ | o.| F > = 8 j j u 6 6 4 1 4 1 1 3 * 1 2 1 1 4 6 6 j j j 9 % .   e } 7.+.[ W T [ a.Y.G.+.d t t i d ",
"r Y V..X}.t.H a L T [ [ [ ] [ +.5.^ e @ $ 7 7 & * X X . X + X X . . . X . X X = 2 3 8 & .     e L [ W L g s F +.C.0.a o - r i d ",
"t Y v.}._.p.H i T [ [ [ [ [ [ o.o.[ g - . @ . . .                             . . # @ .     O t f g d a i r r F W F e ; e t i a ",
"i f { m.^.h.U g } | [ [ W [ [ } } U F i d i i ,                 ; ; o       o o + , , e r d I ] ] g t F } +./ H F U } +.+.Y d t ",
"i , r X.J.g.Y H 6.6.} [ W [ [ [ [ L a I k.).Q.4.i - e t r ; e 4.Q.F.5.U T / E T ] ] #.w.9.9.t.u.t.] d } I.|.P.g.g.A.(.|.].f.K r ",
"t r F 0.J.p.I H 6.t.#.[ T W [ | $.Y d [ E.@X].i.I g F I J D H e.Q.E.i.@.o.+.+.o.@.#.t.p.u.u.p.b.c.{ d @.(.%X.XL.K./.OX%X+Xm.I r ",
"t H 9.W.).p.K H 6.g.t.#.[ [ [ $.9.{ F ^ H.'.n.+./ W / [ [ / / o.e.0.$.o.o.o.o.o.| o.o.o.X.$.t.c.c.{ a | /.$X}.P.P.W.).OX}.n.I t ",
"t Y n..X.Xv.U H 6.g.g.t.$.| | 7.e.{ F } H.~.e.W [ o.o.o.o.o.o.} [ [ } } } } } } } } [ [ [ | t.c.c.{ s [ (.%X.XW.P.W.^.}.`.n.I r ",
"i K t.^.}.c.Y K 4.j.j.g.u.6.+.+.$.T f | Y.Y.8.W [ o.o.o.o.o.o./ / / / } } } } } [ [ [ [ [ o.w.c.c.{ g | (.%X|.P.W.W.^._.`.v.E t ",
"i g ] t.v.0.K G { 4.#.#.#.X.[ W W F d W i.y.o.U U W W W W W W W / W / / W W W W [ ] [ U U [ X.6.6.] a ] l.L.n.p.p.p.h.m.n.4.K i ",
"a a d H Y K d s F K H H K H g h F a a g R L H F g F F g F F G G F F G F F F G F G F g g h h H K K g i f U E Y K K K K Y T H f a ",
"f d i r t t i s i t i t i i i d a a i i t t i i a a a i d i i i i i i i i d i i a a a a i i i i i i t t r r e e r e e r t t i d "
};
