/* XPM */
static char *result[] = {
/* columns rows colors chars-per-pixel */
"64 64 128 2 ",
"   c #010609",
".  c #03080D",
"X  c #020D15",
"o  c #030F19",
"O  c #03121C",
"+  c #041623",
"@  c #041926",
"#  c #041C2C",
"$  c #041F30",
"%  c #042134",
"&  c #05263A",
"*  c #082638",
"=  c #06293E",
"-  c #08293E",
";  c #062B43",
":  c #082D44",
">  c #052F49",
",  c #092F49",
"<  c #06314C",
"1  c #09324C",
"2  c #063553",
"3  c #093653",
"4  c #063856",
"5  c #093856",
"6  c #063A5B",
"7  c #0A3C5C",
"8  c #053E62",
"9  c #0A3F61",
"0  c #044265",
"q  c #0A4265",
"w  c #04456B",
"e  c #0B456B",
"r  c #0B486E",
"t  c #054A73",
"y  c #0B4B73",
"u  c #054E7A",
"i  c #0B4E79",
"p  c #05517D",
"a  c #0B517D",
"s  c #10537F",
"d  c #055483",
"f  c #0B5583",
"g  c #045887",
"h  c #0D5886",
"j  c #055688",
"k  c #0A5789",
"l  c #065A8B",
"z  c #0C5A8B",
"x  c #105582",
"c  c #055E92",
"v  c #0C5E93",
"b  c #066195",
"n  c #0C6195",
"m  c #04649C",
"M  c #0C649C",
"N  c #0A699E",
"B  c #106294",
"V  c #11699E",
"C  c #0466A1",
"Z  c #0C67A1",
"A  c #056AA4",
"S  c #0B6AA4",
"D  c #056DAA",
"F  c #0C6DAB",
"G  c #116BA3",
"H  c #106EA9",
"J  c #0571AE",
"K  c #0C71AE",
"L  c #1173AD",
"P  c #076FB0",
"I  c #0673B3",
"U  c #0B74B3",
"Y  c #0A78B6",
"T  c #0777BC",
"R  c #0C76BA",
"E  c #077ABC",
"W  c #0B7BBC",
"Q  c #1275B3",
"!  c #1178B5",
"~  c #117ABC",
"^  c #047AC3",
"/  c #0C7DC1",
"(  c #097EC8",
")  c #117DC4",
"_  c #0B82C4",
"`  c #0681CD",
"'  c #0C84CB",
"]  c #0C88CE",
"[  c #1382C4",
"{  c #1283CB",
"}  c #1289CE",
"|  c #0A86D2",
" . c #0C8BD3",
".. c #0C8DDC",
"X. c #1286D1",
"o. c #128BD4",
"O. c #148DDB",
"+. c #0C91DC",
"@. c #1592D6",
"#. c #1493DB",
"$. c #159DDC",
"%. c #0C8EE1",
"&. c #128FE0",
"*. c #0D95E2",
"=. c #0E99E5",
"-. c #0A97EB",
";. c #0D9CEC",
":. c #1495E3",
">. c #159AE4",
",. c #1695EA",
"<. c #149CEB",
"1. c #049EF2",
"2. c #0E9EF0",
"3. c #139EF2",
"4. c #0DA1ED",
"5. c #14A1EC",
"6. c #18A0EF",
"7. c #04A1F5",
"8. c #0DA5F5",
"9. c #0BAAFA",
"0. c #13A4F4",
"q. c #1AA3F3",
"w. c #16AAF6",
"e. c #12A4F9",
"r. c #18A0F8",
"t. c #16AAFB",
"y. c #17B5FF",
"u. c #18B7FF",
/* pixels */
"& & = & % $ & $ % $ $ & $ % % % $ * $ $ $ $ $ $ & $ $ $ @ @ @ + @ + @ + + + @ + + @ # # & $ % # # # # # $ $ % * % % $ $ $ % % * ",
"& = & % # $ 4 q > ; ; : : ; & ; : : : ; ; , , , , & $ ; 7 q 7 3 1 1 2 < < 2 < 1 < 4 9 2 & % ; < < > > < < 1 = = = = = 1 6 2 = % ",
"& & # @ @ 7 B Z r 3 7 9 9 < & ; 7 9 9 7 7 9 9 9 9 > $ 8 F } ~ S C N N N S S C m M Y [ z - # 6 d p p p p p t q 5 4 3 4 a K b < $ ",
"& $ + # 3 M ~ G i 9 q y y 2 ; > 9 r r e 9 e 9 i y 1 $ 9 ' t.q.o.] ] ]  .] ] ] _ ' ;.t.! : # 0 m A m m m l p r e e 9 q N  .E 6 @ ",
"% @ + 2 F / Z y e 9 q y r 4 ; ; 9 y r e e e e y y 3 $ 4 T -.>.X.' _ ' ] ] ] _ _ _ =.0.Q ; # 0 C m m m l i r e e q 7 9 v | Y 6 # ",
"% % 7 M ) U i 7 7 q e r r 4 & ; 9 r r e 9 9 e y e 3 $ < A ..#.{ _ _ _ _ _ _ _ Y Y #.<.G & & d D l g p u r q q q q 7 3 h ` J 4 @ ",
"% 4 n ! M y 7 3 7 9 9 e q 2 & ; 7 e 9 9 9 9 9 e e 1 $ < C | O.) W W W / / W W I I  .:.V & : v F u 9 q q 9 9 7 9 9 1 7 k ( P 4 # ",
"% 9 v z 7 ; - , 1 , 1 3 7 , $ $ 1 7 5 3 3 3 3 5 7 * @ > m ( ) ~ Y Y I Y Y Y Y A D  .>.G ; & r h 7 : , 1 3 1 1 1 : 1 y F ( C 2 + ",
"$ ; 7 9 1 ; : , 1 , , 3 3 ; $ $ , 7 5 3 5 3 3 9 5 & @ < C | X.~ Y Y Y Y W Y Y K D  .<.H - O - 7 1 ; ; , 5 5 3 , : 7 G O...C < + ",
"# : y z z x k k k k v M B e ; > f B z x i f z M M q & 6 T <.<.O. .] ] ] ' ] ] '  .w.w.Q ; @ 7 z z x x x x f i y y n | e.2.P 4 @ ",
"$ 7 v ) ) ) R ~ R R ~ ) ) k , 7 F ) ) ) ) ) ) ( { f ; 7 / w.r.3.<.5.5.>.<.<.<.<.5.w.5.N ; & f W ) ) ) R R ) ~ Q Q ) O.,.&.S 4 $ ",
"$ 2 k F S M M v z z v M v q & > k U R K F F F U Z 0 # % a Q Q F L ~ [ [ [ ~ ~ R H L N r % % e m M M M M S F K R F S Z S Z f > $ ",
"% & : 2 , , ; ; ; & & ; ; $ # # ; 2 2 < 2 > > , : % O O $ = ; = - : ; , 1 , , : : : > & @ @ & > ; ; ; ; : > 2 2 2 > : ; , ; $ $ ",
"% & $ $ # + + & < 4 2 < < : & $ # $ @ # @ + @ * 2 7 8 2 < ; ; 2 2 % o + ; ; @ o # & & = < > = % $ & < 6 4 : @ o o + # $ $ $ $ ; ",
"% & , 2 , ; , e v P C C S z 8 2 > , , , , ; : e M U P A m c m C D w % > j f ; $ 6 t t t u p t 0 8 u C R R f & X o # , 7 5 > ; $ ",
"% ; 9 y y 9 9 k Q P S T ..) k 7 9 e e e 9 9 9 f H R I P P P P ) E l 8 t Z v 6 , u b l g g g d p d v U ) / z ; o o ; 9 i y 9 > $ ",
"% ; 7 y r q 9 y i 9 1 f ( ) z 9 9 9 r 9 r 9 9 r r i r y r r y s a e 7 e i q = = q i r r e r e e w e i x i 7 $ o + & 9 i y 9 : $ ",
"$ ; 3 9 7 3 3 7 9 $ + 9 R ) x 3 9 9 r 9 9 9 9 9 5 5 3 3 3 3 3 5 3 7 q q 9 : & = 7 q q 9 9 q 9 9 9 9 9 7 3 7 7 ; @ & 7 y y 9 ; $ ",
"$ & 7 q q 9 q r 9 - # 8 ) ) z 9 9 9 9 9 9 9 9 9 9 9 9 9 9 7 7 7 7 9 e r q 1 & ; 9 e e q q e q e e 9 9 7 7 f S d $ $ 3 y r 7 ; $ ",
"# , d Z Z Z M v i , $ y ( O.M 9 9 9 i r r r r r e r 9 r e r e e e e r i y 7 = > q y r e q e e e e e 9 7 9 F ..F ; # 2 y y 7 ; & ",
"$ 6 A | ..| | F i - $ y ) ) z 7 9 9 y 9 r 9 y r 9 y r 9 8 r r e r r r i t 6 = ; q r e e e e q q 9 9 9 3 9 Z X.F ; # 3 y y 7 ; $ ",
"$ < d D P P C u 1 + O , z k 9 * ; 1 9 9 9 9 9 9 6 9 9 9 9 7 7 6 7 7 7 9 7 : # % 1 7 5 5 7 7 4 3 7 3 , - : 9 k i * # 3 y y 7 : $ ",
"# $ < 4 2 2 4 > & + O $ , , * # $ $ $ ; ; ; ; ; & ; ; ; ; ; ; ; ; : ; ; = & % # % & * * = = * & & $ $ + @ % , & + $ 5 y y 7 ; $ ",
"@ > q 1 o + 7 i x 9 9 9 9 9 9 y f 9 $ + + # # @ # # # # # $ $ $ # # @ O O : e 6 & ; 1 = + # & - % : , 2 7 8 9 ; + $ 3 e e 7 ; $ ",
"@ y ~ n & & v O.O.X.) ) ) ) ) ,.,.F , O + # # $ @ @ $ # $ $ $ $ # # @ X O e U M 7 y Z x $ ; B { [ W E I E _ W p # + 1 r e 5 ; $ ",
"$ f :.) 3 ; v { { O.,.,.) ) r.r.,.G 9 $ $ ; ; ; ; ; ; ; ; ; $ ; ; : = # & y F V e z ) v ; > Q q.q.:... .+.-.-.D $ + 3 a i 9 ; $ ",
"# a :.[ 4 # 7 a x G ) ~ B G ) ) Z y 9 3 9 9 9 9 9 9 9 9 9 1 ; ; 7 q 7 5 3 e a e 3 z ) v & , G :.#. .] ' | +.+.N $ @ q m b t : $ ",
"+ a o.~ 1 + & 1 , y B x 9 r B v 9 5 9 9 9 r 9 y 9 e 8 y r 3 ; ; q y y e e q 7 : : h R k $ ; V X.' / / W _ ' ] N # @ t D D u , # ",
"@ a #.[ 3 + & 7 7 9 y e 9 9 r y 9 9 9 y r r y 9 e e e y y 9 ; ; 7 r e e e q 7 : : z ! k % - V } ' _ W W W _ ] N @ # t J D p < # ",
"@ a >.} 7 @ 1 y y 9 9 9 9 9 9 9 r 9 9 r r r 9 y e r r i y 9 ; $ 3 q q q q q 9 1 1 z R k $ - V } ' W W W _ ' ] N @ # p E I d 1 # ",
"$ a #.} 9 # > r r 9 9 9 9 9 9 7 9 9 r 9 9 9 9 9 e 8 e r e 5 * * 7 q 9 9 q q 9 1 : h Y z % = V } _ Y Y Y E ' ' M # # t A A p < % ",
"& q n z < # & < 3 3 3 , 3 , : ; , 1 3 , ; - , 2 3 1 , 1 , $ $ 5 v z 9 3 7 q 7 ; * i U z % = B } W Y Y Y Y W _ b % O = 8 6 < = % ",
"& $ ; ; $ # # $ # $ $ $ # + + + + # $ + O O @ $ % # # # + X + i  ./ y 1 3 q 7 ; $ i Q f $ ; B { / I I K Y _ _ b % . X O O @ # % ",
"$ $ $ $ & & & * & & * % % & , 1 = # + & 3 3 ; $ % % & > ; # @ d ;.3.S e 7 3 3 3 9 Z ) f $ ; L 3.<.+.+.+.:.4.4.S % X % 2 3 : & % ",
"$ ; , 3 7 7 5 5 7 7 3 1 1 w M D b < % q ! ~ i : : 6 t g p 2 % 0 ' 3.o.B q : 1 y H O.^ u $ 1 Q 0.t.5.>.5.q.t.w.V # % g ' / v 1 @ ",
"$ ; 9 y e e e e e e q 7 7 l | 2.+.p ; a >.6.V 3 3 r l D C t & ; v o.,./ i 1 1 x ( 3.( d $ $ y Q ! Q L L Q ) ! e O : Y 9.9.T 6 @ ",
"% : 9 i y e e e e e q 7 7 h } t.9.v > i $.<.B 1 3 e l D A u = @ 3 V X. .b 6 2 a ) ,...j $ o $ : : : : : < < 1 # o < I 7.1.P 4 # ",
"% > 9 i y r r e e r e 9 9 a L O.O.k ; y #.>.v , 1 q g C C u ; + - r F _ W l q s R ,.| j & @ ; ; # O + @ @ @ @ @ # 4 c ^ ^ l > # ",
"$ : 7 e e q e e e q q 9 7 e i B v 7 % t #.:.z , 1 e g C C t : # ; 3 i S _ S r y Q &.( d & : i d 2 & & - ; ; ; ; , 7 e d d 8 ; # ",
"& & & & - : , , , : : : : - : > 1 + # a >.:.n 1 1 r l m l q & % 1 : : q h i 7 e Q %.| d $ ; x v q 1 1 3 3 3 3 1 2 , : , 1 , % $ ",
"& # + X O + @ $ # @ @ + + @ + # @ X + p :.>.z 1 1 y l c i 1 $ % : 1 : : , ; ; y Q ,.| f $ @ > 9 5 , , 1 1 1 1 3 1 , , , 3 : * $ ",
"$ & < 4 2 ; $ $ ; < > > > ; & = & + + i #.>.v 1 3 e p a q : $ 2 h B z a i y i V X.3.%.l & $ 9 v z z z k z k z z z k v v B y , $ ",
"@ > v / W p ; ; w d d d p t 0 9 7 & # y #.>.v 1 3 q e y q : % 9 U  .' / R U R / X.%.( d $ ; f / ) ) ) ~ ~ ~ R R R R ) ) ) v 4 $ ",
"@ 7 R 9.4.S 2 & t v l l l p y y r 1 $ e #.>.v 1 3 q t i e 1 & 2 c P F S C Z M v v c d 2 + $ r Z Z B v v v B n v B B B F F x 2 % ",
"+ 2 I 8.4.N < % 7 i y y y r e y r 1 # e #.>.v , 2 e d g y 3 % % : 2 1 > > > , ; & & $ $ + + % : ; > ; ; ; = = = ; ; ; > : > $ % ",
"@ < H ;.*.N : % 7 y q 7 7 9 9 r e 2 $ 7 o.>.z 1 3 e d k y 3 & # % $ $ # # # # + O $ , 7 9 3 ; & $ & $ # # % % & % & % & $ $ $ $ ",
"+ < S 4.+.b > ; u d e 7 7 7 9 r q 3 $ 7 @.>.z 3 7 9 r i r 5 & & , 3 1 , > 1 , & & 7 v R R S d 0 8 w 8 t w w w w w 0 w t u 8 ; $ ",
"@ < S 4.*.b < < l M i 9 7 9 q r q 3 $ 5 @.>.z 5 3 9 q e e 7 ; & 2 9 e r e e q 7 7 f U ..%.T c u d c c C C C m b g u p S ` F 6 # ",
"+ < S 4.*.b > < c m i 9 7 9 q r q 3 $ 3 o.>.h 7 5 7 e e e 7 = # $ > q r e e q 7 7 y m J J b y 9 9 t c C C A m g i 7 7 M ,.) e $ ",
"@ < S ;.$.n > > u g t 9 9 9 q e q 2 $ 2 o.>.z 3 7 7 e r e 7 = + + = 7 e r e q 7 7 0 t p p y q 5 7 e u j j j d w 3 3 y H ) B 3 $ ",
"@ < S 4.=.M > & 9 r r 9 9 9 q r q 7 # 6 #.<.B 5 7 q e r r 7 ; @ @ = 7 r e e 9 q q q q e w r q 9 9 e r r r e e 9 7 i S F i , $ * ",
"@ < S ;.+.M > $ 2 e e 9 q 9 e e q 3 $ 8 $.w.V 7 7 e r y i 8 ; # # ; q r r e r r r e e q q e e e e e q e e 9 e y z Q H f ; # $ $ ",
"+ < K 4.=.N 1 $ 5 r q q q q q e q 3 % q $.<.M 7 9 e y y i 7 ; # @ = 8 y r r r r e e q q q q q q 9 e 9 9 9 5 9 B ) ) f $ @ # $ & ",
"@ 6 Y 8.>.m > $ 3 q q q q 9 e r e 3 & 3 M V e : 1 7 9 8 q 5 ; + O # , 7 6 4 2 3 3 3 1 1 3 2 5 5 5 5 7 7 , $ ; f Q k $   X @ $ & ",
"# 5 K 4.;.m 1 $ 5 q q q 9 9 q e e 7 & $ 1 3 ; $ & & ; : : ; % # $ % * - = = & & & & * - & & * = ; ; ; * $ @ # ; 9 ; + X + # $ $ ",
"$ = w Y +.S 2 = e i q 7 9 9 q e q 7 $ @ 2 y t < @ O @ # # O # 2 l t < & & = = = = : 2 4 < > = > ; $ + $ 9 e 7 , ; 5 r i i 6 & $ ",
"$ O @ t _ A 4 > a l r 7 7 9 9 q q 1 $ , S %...d % X + @ @ X # d +.' d 3 7 7 7 7 5 r d c l g l b c 8 * 9 [ <.] A C ~ #.3.:.Z < @ ",
"# @ ; z ' N 2 < g m p 9 7 7 9 i i 6 % 7 ) e...v , $ % ; & $ & d ` / z 9 9 r e q q i l c c b m J J t & r $.u.5.] ` :.w.y.0.R 4 + ",
"# > l  .+.N < > p m b u q 7 q s c w & 9 ) &.K y 7 4 7 7 9 7 7 r h f i e e e e e q e y r r a b J J w % e @.y.5.` '  .*.8.<.I 2 @ ",
"# 5 I 8.8.K < > l J D m g y y s c w ; q ) X.v 9 q r y y y y y q q q e e r e r e e e e 9 9 r c J I w = e @.y.8. . . .+.4.4.I 2 # ",
"$ < b +.4.K 4 > g A D A m g y i i 7 - y ( { z 7 q y y y r y r e 9 9 e r e e r r r r q q 9 y c J J t = r $.y.5. . . .+.;.;.K 6 # ",
"$ = 8 b K g 1 > w g p p p t q 7 7 ; % 9 M M y 2 5 7 7 7 7 7 7 7 7 7 7 7 7 7 7 7 7 6 5 5 5 8 r g g 6 = 4 L [ I N N N S I I f < $ ",
"% & & < 4 2 * % : > > > < 1 - - ; % $ ; 3 2 : ; = = ; = ; ; ; : ; ; : ; ; : : ; : ; = = = = > < 2 = % & 3 6 4 < < < < 4 4 : = % ",
"* & # @ # $ $ $ $ $ $ # $ $ $ * % % $ $ # # $ % % % % % & $ $ % % $ % % $ $ % $ % % % % % % $ $ $ $ # # @ @ + + + + @ @ # # $ & "
};
