/* XPM */
static char *left1664256485[] = {
/* columns rows colors chars-per-pixel */
"64 64 255 2 ",
"   c #010101",
".  c #00030C",
"X  c #07090A",
"o  c #160C06",
"O  c #010817",
"+  c #020C14",
"@  c #00051C",
"#  c #061514",
"$  c #03121C",
"%  c #28281F",
"&  c #010724",
"*  c #000D2B",
"=  c #031524",
"-  c #041926",
";  c #00132D",
":  c #041C2C",
">  c #000D35",
",  c #031E32",
"<  c #011836",
"1  c #042134",
"2  c #0F2532",
"3  c #05253A",
"4  c #06293E",
"5  c #09283B",
"6  c #46372E",
"7  c #23570D",
"8  c #2D6B05",
"9  c #495A26",
"0  c #001B47",
"q  c #001758",
"w  c #052745",
"e  c #062B43",
"r  c #092D44",
"t  c #00244B",
"y  c #042E49",
"u  c #053145",
"i  c #05314C",
"p  c #09324C",
"a  c #17354A",
"s  c #012555",
"d  c #002C53",
"f  c #012C5A",
"g  c #053553",
"h  c #093653",
"j  c #053956",
"k  c #0A3856",
"l  c #02335C",
"z  c #0A3458",
"x  c #053A5B",
"c  c #0A3C5C",
"v  c #1A3A55",
"b  c #313B49",
"n  c #0E2367",
"m  c #013666",
"M  c #043D63",
"N  c #0A3F61",
"B  c #04326D",
"V  c #194757",
"C  c #2A4659",
"Z  c #3B4C5A",
"A  c #26675A",
"S  c #044265",
"D  c #0B4265",
"F  c #04446B",
"G  c #0B456A",
"H  c #004B6F",
"J  c #0C486E",
"K  c #154464",
"L  c #054B74",
"P  c #0B4B73",
"I  c #014478",
"U  c #044E7A",
"Y  c #0B4E79",
"T  c #055372",
"R  c #05517D",
"E  c #0B517D",
"W  c #165074",
"Q  c #2D506D",
"!  c #366476",
"~  c #4A4D4E",
"^  c #646B4C",
"/  c #465B67",
"(  c #405A74",
")  c #59636B",
"_  c #576975",
"`  c #8F7E70",
"'  c #5A8D28",
"]  c #6B963B",
"[  c #3D8B53",
"{  c #618D5F",
"}  c #54926A",
"|  c #6CB172",
" . c #9F947C",
".. c #A1DC5D",
"X. c #9CEF78",
"o. c #A2E76E",
"O. c #CEFF77",
"+. c #EBFF7A",
"@. c #013486",
"#. c #003BA8",
"$. c #024984",
"%. c #055483",
"&. c #0B5583",
"*. c #085887",
"=. c #065A8B",
"-. c #0C5A8B",
";. c #0D5392",
":. c #055E92",
">. c #0C5E94",
",. c #015A99",
"<. c #2E5D8F",
"1. c #0B6195",
"2. c #0B6A95",
"3. c #04659C",
"4. c #08659A",
"5. c #0C649C",
"6. c #366A93",
"7. c #0759A7",
"8. c #0466A2",
"9. c #056BA4",
"0. c #0B6BA4",
"q. c #076AA8",
"w. c #0C6DAB",
"e. c #106CA6",
"r. c #0771AE",
"t. c #1375AD",
"y. c #0169B7",
"u. c #0675B5",
"i. c #0B74B3",
"p. c #0B76BB",
"a. c #0B7BBC",
"s. c #1275B3",
"d. c #1079BC",
"f. c #3170B0",
"g. c #5C7385",
"h. c #4A77B1",
"j. c #0A57C6",
"k. c #0055D1",
"l. c #005DD3",
"z. c #005DDA",
"x. c #0C7DC2",
"c. c #0A70CB",
"v. c #0479C9",
"b. c #0179CD",
"n. c #117DC4",
"m. c #0565D8",
"M. c #176AD9",
"N. c #2A71CE",
"B. c #2673D9",
"V. c #377AD6",
"C. c #005FE4",
"Z. c #066AE7",
"A. c #166CE3",
"S. c #1073ED",
"D. c #2679E5",
"F. c #367EE2",
"G. c #2E8F8C",
"H. c #0791B3",
"J. c #2B8BB5",
"K. c #2DB8AD",
"L. c #5B96A1",
"P. c #6A8FAF",
"I. c #30C7BD",
"U. c #5FD89D",
"Y. c #0B82C5",
"T. c #0B85CB",
"R. c #068ACA",
"E. c #1183C6",
"W. c #1383CB",
"Q. c #0395CA",
"!. c #0685D5",
"~. c #0C8CD4",
"^. c #0C8CDB",
"/. c #158AD6",
"(. c #0095D1",
"). c #009DD3",
"_. c #0993DB",
"`. c #019BDB",
"'. c #1594DC",
"]. c #2D88C6",
"[. c #308FCF",
"{. c #01A2D4",
"}. c #01A9D5",
"|. c #01A2DA",
" X c #08A9D8",
".X c #11A9D4",
"XX c #2DAFD3",
"oX c #34AEDC",
"OX c #0A97E4",
"+X c #0C96EC",
"@X c #0D9CEC",
"#X c #1495E6",
"$X c #149CEB",
"%X c #3582E7",
"&X c #0BA7F7",
"*X c #13A4F3",
"=X c #14ACF6",
"-X c #15A9F8",
";X c #35AEEE",
":X c #548CC5",
">X c #7598CF",
",X c #6EB5D2",
"<X c #52B9F3",
"1X c #33C9CA",
"2X c #69CDCD",
"3X c #78CEF8",
"4X c #AB9889",
"5X c #8DA39F",
"6X c #ACA598",
"7X c #B7B6A9",
"8X c #ADB1B0",
"9X c #C3AC99",
"0X c #D4BCA8",
"qX c #93EE89",
"wX c #B4F18B",
"eX c #A1E49B",
"rX c #8CF0AC",
"tX c #D2FD8F",
"yX c #E9FE8A",
"uX c #D4C9B2",
"iX c #EBCFB4",
"pX c #C3FBA8",
"aX c #FBFAB6",
"sX c #8FB0CD",
"dX c #A7B8C5",
"fX c #92B2E5",
"gX c #96D1DC",
"hX c #B9C8D2",
"jX c #90D4E7",
"kX c #BCD8E9",
"lX c #ACD1F0",
"zX c #BEE7EE",
"xX c #BAE4FB",
"cX c #CDCFCF",
"vX c #C9D3D9",
"bX c #EAD8CC",
"nX c #F5DBC1",
"mX c #D8F0D5",
"MX c #FDE4CB",
"NX c #FEEACD",
"BX c #EBEED0",
"VX c #FEECD2",
"CX c #F9EAD8",
"ZX c #FEF4DA",
"AX c #C6DBE6",
"SX c #D2DCE3",
"DX c #C4E7F7",
"FX c #D3EFF6",
"GX c #F1EEED",
"HX c #FCF6E7",
"JX c #FFFCEC",
"KX c #EAF3F8",
"LX c #FEFDF3",
"PX c #F6F7F9",
"IX c #FEFEFE",
/* pixels */
"3 3 3 3 1 1 1 1 1 , , 1 1 3 1 1 3 1 , ; & @ = ; : - ; - = = & @ @ @ $ = = = = = = = : , 1 1 1 : : : : : 1 1 1 1 1 1 : : , 1 1 3 ",
"4 4 3 1 : 1 k D y 4 e e e e 3 3 4 e 3 r Z _ / b < @ O ; 3 q t t C / / C h y y g p k D g 3 , e i i p y p i u 4 4 e 4 e i x g 3 1 ",
"3 3 : - - z 5.5.J h k D c p e r p t q Q dXGXSXP.z & . 0 $.y.y.f.dXbXcXsXt.,.,.4.5.a.n.-.5 : x %.R R R R R L D c k h c &.r.:.g : ",
"3 : - : h 5.d.e.Y D D P P k e p k d 0 Q AXIXIXFXP.Q Z 6.;X;X<XjXIXIXIXDX[.v.b.Y.Y.*X-Xs.e : S 3.3.3.3.3.=.R J G D c D 5.^.p.c : ",
"1 - - g w.x.5.Y D D G P J k e e g d 0 ! vXIXIXIXFXvXvXAXFXDXFXKXIXIXIXxX[.p.y.Y.H.$X-Xt.4 : F 3.3.3.3.=.Y G G G G c N 1.!.p.x - ",
"1 3 c 5.x.s.Y c c D G J J k 4 3 t m Q sXKXIXIXIXIXIXIXIXIXIXIXIXIXIXIXkX].y.y.i.i._.$Xe.4 3 %.w.:.%.R Y P D D G G h k *.x.i.x - ",
"1 k 1.s.5.P c h k c D G G k < ; < Q sXKXPXIXGXCXHXHXJXJXIXIXIXIXIXIXIXkXJ.y.q.u.i.'.$X5.4 e >.w.R D D D D D c c c p k -.v.w.x = ",
": D 1.-.c e 5 p p p p k k r ; O & ! vXIXIXIXLXHXnXnXMXHXIXIXIXJXPXIXIXkXf.7.8.9.0.~.#X0.e 1 G -.c e u p i p p u r p P w.T.8.g = ",
", r c N p e e p p r i h h a = . @ ! SXIXIXJXHXZXNXMXNXHXLXLXHXHXHXIXIXAXf.7.y.q.q.~.$Xe.4 $ 5 c a r r p h h h r e c 0.^.^.q.d - ",
": w J >.-.&.&.-.-.-.-.5.5.J < * d f.DXIXHXuX4X4XiXHXCX0X .4XiXZXHXLXIXxX;Xb.!.~._.-X=Xs.e - c -.-.&.&.E &.&.&.P P 1./.*X+Xw.z - ",
", k >.n.n.n.d.d.p.s.n.W.n.-.y 0 @.[.xXIXGX4X% 6 uXLXCX` o 6 4XVXJXIXIXDXoX!.^.$X$X=X$X0.w 4 &.x.n.p.c.d.d.d.n.s.s.n./.$X#Xw.h : ",
"1 g *.e.e.5.5.>.-.-.-.5.>.G < > B f.AXIXHX4X6 ~ 0XJXCX4X6 ~ 4XCXLXIXIXvXf.$.7.t.t.t.e.J 1 1 F 5.5.5.5.5.e.w.w.i.w.0.0.0.8.Y y 2 ",
"1 4 y i y y e 5 4 4 5 e r 2 = . @ Q vXIXHXbX9X9XiXZXZXiX9X9XiXCXHXIXIXhXb * : w 5 r y 3 - : 1 e r e w e y i p k g i y u r e 5 , ",
"1 1 1 , : - - 3 y g g g p a , .   C cXIXJXZXNXMXVXVXVXNXMXVXVXMXCXIXIXhXv .   . & > 3 e p y e 1 , 4 i x x e : + $ = - : < 1 1 1 ",
"1 4 p p y e r G 5.w.8.8.e.-.l & @ Q vXIXJXZXZXNXNXMXMXMXnXVXVXMXCXIXIXkXf.q & = s m m B U U L S S U 3.a.s.&.5 + + : r h k p 4 1 ",
"1 e N P J N D -.s.w.8.p.'.W.$.& @ W vXIXLXHXZXVXiXMXiXMXCXMXCXZXLXIXIXFX,XG.A _ L.G.$.@.$.%.*.%.%.:.i.W.Y.-.r + $ e D Y Y c w 1 ",
"1 w c P G D D P Y c p &.W.W.Y & & Q vXIXIXLXHXCXiXaXnXMXCXCXZXJXLXIXIXPXpXX.X.tXtXU.W n B F G D G G Y E Y c , $ = 4 D Y Y c r 1 ",
"1 4 h c c h k c c 1 = c p.p.@.0 v P.AXKXKXPXLXHXNXNXVXZXHXIXIXIXKXKXKXmXtXO.+.yXyXwX} K f f M N c c k k h c z e : 1 c P P c e 1 ",
": 4 k G D N D G D 5 - D x.y.$._ uXmXgX2X,XlXKXLXJXJXJXLXIXIXIXmXdXP.P.5XwXO.tXtXyXyXX.} N s f D D D c h c &.0.%.1 : k P P c 4 1 ",
": p &.0.0.5.5.>.Y r 1 Y b.l.$.| aXBX2XH.Q.oXjXzXzXzXzXzXDXxXxXsX6.z a [ X.wXrXqXO.+.+.5XN q n G K J G c D w.^.w.e - h P P x e 1 ",
", z w.!.!.!.T.w.Y 5 , P v.j.Y { yXtXU.H.R._..XoXoXoXoXoXXX;X=XJ.J @ X 9 ..rXI.K.o.+.yX5XC q s N G D D k c 5./.0.e : p P P c e , ",
"1 y %.q.i.r.8.%.p = $ p $.B s { +.X.K.H.Q.`.(.(.(.(.(.R.).`.`.H.T = X 9 O.U..X).K.qXtXwXL.K s w w u w 3 5 D -.L 1 1 g P P c e 1 ",
": 3 i g g g z y 1 - = : w > * ^ yXpXU.H.(.`.`.(.).(.(.(.(.`.`.Q.2.S u ' o.U. XS.`.1XeXtXtX} a = = : : = : 3 r 4 - 1 k W J c 4 1 ",
"- e D p $ - g Y P J D D M m f /  .5XK.H.).|.`.).).{.).{.{.{. X{.H.r.H.G.X.wX2X;X<XK.| ..o.o.A l d z j x x D x e = : h G G k e , ",
"- P d.1.1 4 >././.B.W.n.n.c.c.&.u V G.H.|.|.|.{.).{.{.).{.{.{.|.|.OX(.K.qXyXaXPXPX8X9 8 ' [ J.v.x.p.p.p.p.v.a.R : - p G G h 3 1 ",
": *.#XH.h w >.W.W.'.#X#X/.'.^.7.5 4 =.Q.`.|.|.).{.).{.{.).).).|.|.&X&XI.X.+.aXPXLXuX9 7 8 [ ].+X+X#X^.^._.+X+X0.1 = k E E D e 1 ",
": &.#Xn.h : c Y Y e.n.d.5.,.p.t.C C :.H.`.|.{.).).).).{.{.).).{.{.OXOXK.qXyXaXIXLXuX^ 8 8 [ H.^.^.!.T.v.!._._.0.: - G 3.4.L r : ",
"- W /.d.h = 3 h p W >.-.G M $.h.4X5XJ.Q.).|.{.).{.{.{.).).{.).|.{.`.`..XU.pXBXIXLXiX' 7 8 A J.!.x.x.p.n.H.T.~.5.- - L q.9.R u : ",
"- Y '.H.z = 5 c c N J J x d l g.iXmX2X).`.).).).).).{.).).{.).).).(.(..XoXjXDXPXIXiX] 7 # f w.T.Y.x.a.a.x.n.!.5.- : U r.q.R i : ",
"- &.$X/.c - y J J G D G M f f _ VXPXjX.X).).).).{.).).).).).).).).).(.|.;X3XxXPXLXBX..8 # q q./.T.x.a.a.H.T.T.0.- : R u.u.%.p , ",
": E '.W.c : p J G N N N c f d _ ZXPXjX.X).).).{.{.{.{.{.{.|.{.{.{.).).|.;X3XDXKXPXGXwX' % 0 7.W.W.H.a.p.a.T.R.4.: : L 9.9.R i : ",
"3 D 1.-.i : 1 h g h h p y < * ~ VXPXjX.X{.{.{.}.}.{.{.}.}.}.}.}. X}.}.}.XX,XDXIXIXKXrX{ 2 < ,.W.a.u.u.r.u.a.Y.1.1 $ 4 x S i 4 1 ",
"1 3 e 4 : : : < : 1 , , ; @   ~ NXPXgXXX{.}.}.}.}.}.}.}.}.}.}.}.}.}.|.H.H.L.DXIXIXxXoXR - 4 >.W.H.p.i.r.a.R.Y.=.1 X + $ $ - : 3 ",
"1 , : 1 3 4 3 1 3 3 1 2 , ; ; / ZXPXgXJ.R.R.).(.Q.).Q.(.Q.).(.Q.{.|.(.q.I 6.hXIXIXlXN.B * e t.*X+X^.^.~.'.*X@X0.1 + 3 h h e 3 : ",
"1 3 p g c c z c k c k h i l $.:XLXGXsXc.y.b.b.b.b.b.v.v.b.b.b.b.b.!.b.;.f <.hXPXPXlX[.B * p t.*X-X*X$X$X*X=X-X5.: 1 *.T.Y.=.i : ",
"1 e N J J G J D G G D c x I y.<XIXGX>Xj.j.l.l.l.l.l.l.l.l.l.l.m.m.m.m.#.n <.lXIXIXxX[.B ; 1 Y t.s.s.t.t.s.E.s.G $ y p.&X&Xp.k : ",
"3 e D P J J G G G G D c M I y.<XIXKX>Xj.k.k.z.z.l.z.z.z.z.z.z.z.z.C.k.#.@.6.AXPXIXxX[.$.< $ 1 u r e e r p i p : + y u.&X@Xu.j - ",
"1 e D Y P J J J J J G D D m ,.,XIXKXsXj.k.k.z.M.A.A.A.M.A.D.A.A.M.C.C.j.7.h.dXPXIXlX[.@.< : 5 w : = = - - - - - : g :.v.v.=.i : ",
"3 e c G G D D G G G D D M l m L.IXPXfXj.k.l.B.V.V.V.V.V.V.V.V.V.V.N.z.j.N.h.dXbXbXjX].$., w Y &.h 3 5 4 e e e r y c J E R M e : ",
"1 1 3 5 5 e p i p r r r e < 3 Z 6XhX>XB.z.M.N.h.6.f.f.f.f.<.<.h.:XV.C.k.M.h.8XiXiXdX].$., e E 1.D p p p h h h p h p r p p r 3 , ",
"3 : $ + $ = : : : - - - - = $ + + b f.D.C.A.V.<.V S R -.T 4 2 C h.%XA.z.N.P.8X0XiXsX].$.< - p D z r p h p p p p p u r p p r 5 , ",
": 3 i k x e : , e e y i e e , + . < <.B.Z.S.F.<.p u S T S : # a h.%XA.z.N.:X>XdX8X,X/.;.3 : c -.-.-.-.&.-.-.-.-.-.-.-.5.1.P r , ",
": p 1.Y.a.R e e L R %.&.%.L M 3 < N f.D.Z.Z.M.<.k 4 x F S 1 # a h.%XZ.M.V.V.].[.[.'.W.$.3 e &.x.n.n.n.d.d.d.a.d.d.d.n.W.n.5.c , ",
"- k u.=X@Xw.i 4 L =.=.=.=.%.J j j W N.D.Z.C.A.7.S g F Y S 4 : V h.F.Z.Z.V.f.>.$.%.,.%.g = 1 G 5.e.>.>.>.>.>.1.1.>.>.>.0.e.&.p 1 ",
"- k i.&X@X0.u 1 c L Y P P J D x N W N.F.D.A.B.;.x x I =.F y : v V.D.Z.S.F.f.z , , 3 3 : $ - 1 e w r e e e 4 4 e r e e e y 5 3 1 ",
"= u 0.@XOX2.u 3 c J D c c D x x N N &.h.>XfXfXh.x l U %.P p - z f.A.C.Z.F.h.a + O : p c M g e 3 1 1 , , : 1 1 1 1 3 3 1 < 1 : 1 ",
"= i 0.@XOX1.u e U %.J c c c N D N s 0 ( dXPXGX5XK d M L F i : i N.B.B.D.F.f.N 2 : c >.s.a.0.R F F F F F F F F F F F F L L S 4 : ",
"- i w.@X_.1.p i :.5.L N c D K J J 0 @ ~ cXIXIX9XK 0 f F M y , v >XlXfX>Xf.@.B N k E p.^.^.a.:.R R =.3.4.3.3.3.4.*.U R 9.Y.w.D : ",
"- i w.@X'.1.p i :.3.L c D D D J G t @ b cXIXJX7XD 0 d G M d ; ~ bXIXZX8XQ d l c k L 3.r.r.1.P D D L :.4.8.8.3.=.L c c 5.#XW.J : ",
"- p 0.@XOX1.u e U =.L D c D D J G d * b cXIXJX8XK 0 f G N t ; / ZXIXJX7XC 0 t c c D U R R L D k k G R =.%.=.%.F k k Y e.n.>.h , ",
"- i 0.@XOX1.p 1 D P G D D N D J G d * b cXIXLX8XK 0 l P M t * / ZXIXLX7XQ 0 d D G D D G F F D c D D G P J J J N c Y e.w.L p 5 , ",
"- u 0.@XOX3.y 1 g D D D N D K G K d * b uXPXJX8XG s m P F d ; Z CXIXLX7XQ f l G J J G G D G G G G G D G D D D Y -.t.w.E e ; : 2 ",
"- i r.@X@X4.e 1 h D G D D D D J D d * b cXIXIX8XD q M P F d < Z BXIXGX8XQ d l G G J D D D D D D D D D D c k N >.n.n.Y 1 - - 1 3 ",
"- x a.=XOX4.p 1 h D G D D N D J F g * Z cXIXIX8XK < t D z 0 > Z CXPXHX6XC 0 0 k k p p p g k k k k c c k p 1 r &.s.>.1 X + : 1 5 ",
": k i.@X$X2.i 1 h G G N N N D J G t > Z cXIXIX8Xh & < w 3 * & Z GXIXLX6Xa & ; 5 3 3 5 3 1 3 3 3 4 e 4 3 , - : e c w $ # = : : 1 ",
": 4 S u._.5.k 4 G Y D c N N K G D y < C 6XGXPXdX2 . @ : = O O ) IXIXLX7Xb * ; 4 4 e h h g e e e e 1 = 1 c G x e e k J E L x 3 : ",
": $ - L Y.r.j i %.%.G c c D D G D x < = 6 4XbX6Xa @ O : = . @ _ LXIXPXhXQ < w z c G %.:.:.=.=.4.:.S 1 D E.$XT.w.8.a.#X*X#X0.y - ",
": - e =.Y.2.g y %.4.U D c c D P %.U d + o 6 ^ ) a < 3 e 3 ; < ! 0XGXPXhX<.q f K G P *.:.:.:.3.r.r.H 3 J '.=X*XR.T.'.=X=X-Xi.g - ",
": p =.~._.0.i y %.8.4.L D D D &.4.%.j +   o o 2 x M N N N m x a ~ 4XuX8X<.m m G G J P P P E 1.r.r.F 3 G '.=X@XR.T.~.OX*X@Xi.g - ",
": k u.&X*Xw.g e =.r.8.3.E P P P F g : +       O D *.&.Y &.:.$.4 X % ^ ) W F F J G G D N c P =.u.u.H 3 P XX=X*X~.!.~._.$X@Xi.k - ",
": p 1._.@Xi.x p =.9.r.8.3.1.Y r + +           + F &.&.Y E -.&.w     o 2 K E L J G G D N N P :.r.r.L 4 F '.=X*X_.~.~._.@X@Xi.k : ",
"1 4 M :.i.*.y w F %.R %.%.%.G :       X # X . = k G D c g k g ,       + u G D c c c c c k N L =.%.x 3 c t.E.i.3.4.4.0.u.i.*.p : ",
"1 1 3 i j i 3 3 e i u i i i u 3 $ $ = : 1 : : 1 r h p , $ + + +       . , i p e e 4 4 e 4 e u i i 4 1 3 h x h p i i i j k p 3 1 ",
"3 3 : : : 1 : : : : : : 1 1 1 r 4 4 e r r r 4 3 1 4 3 $         o     . : e 4 , 1 1 1 1 : 1 1 : 1 1 : : - = = - - - = - : : 1 3 "
};
