/* XPM */
static char *right1664256485[] = {
/* columns rows colors chars-per-pixel */
"64 64 255 2 ",
"   c #010102",
".  c #03050A",
"X  c #160E0C",
"o  c #020C14",
"O  c #000618",
"+  c #011116",
"@  c #02121C",
"#  c #033B00",
"$  c #302914",
"%  c #010B24",
"&  c #000826",
"*  c #031523",
"=  c #041926",
"-  c #02142B",
";  c #041C2C",
":  c #040C31",
">  c #031E31",
",  c #001838",
"<  c #042234",
"1  c #05253A",
"2  c #05293E",
"3  c #0A283B",
"4  c #102430",
"5  c #272B2C",
"6  c #443C35",
"7  c #277109",
"8  c #21641C",
"9  c #134B35",
"0  c #505F35",
"q  c #001C44",
"w  c #001356",
"e  c #012344",
"r  c #062B43",
"t  c #082C44",
"y  c #01244B",
"u  c #052E49",
"i  c #082F49",
"p  c #0B3045",
"a  c #06314C",
"s  c #09324C",
"d  c #002355",
"f  c #012B53",
"g  c #002C5A",
"h  c #063553",
"j  c #093653",
"k  c #063856",
"l  c #093856",
"z  c #01325B",
"x  c #0B355C",
"c  c #063A5A",
"v  c #0A3C5C",
"b  c #173A51",
"n  c #203E4E",
"m  c #021C61",
"M  c #002864",
"N  c #043D63",
"B  c #023867",
"V  c #0A3F61",
"C  c #183E61",
"Z  c #013B75",
"A  c #124557",
"S  c #374B4B",
"D  c #2A4757",
"F  c #3B4856",
"G  c #28705D",
"H  c #034467",
"J  c #0A4264",
"K  c #04446B",
"L  c #0B456A",
"P  c #0B486E",
"I  c #1A4E6D",
"U  c #024576",
"Y  c #054B74",
"T  c #0B4B73",
"R  c #044D7B",
"E  c #0B4E79",
"W  c #0A5176",
"Q  c #05517C",
"!  c #0B517D",
"~  c #2B536F",
"^  c #396A78",
"/  c #454E53",
"(  c #485D6A",
")  c #446576",
"_  c #576972",
"`  c #726560",
"'  c #807161",
"]  c #57903D",
"[  c #619F59",
"{  c #75B27B",
"}  c #7FC85E",
"|  c #82C93E",
" . c #978574",
".. c #A2A579",
"X. c #A0DD5D",
"o. c #97CC76",
"O. c #CEFF7A",
"+. c #EAFF76",
"@. c #01358F",
"#. c #004989",
"$. c #055483",
"%. c #0B5583",
"&. c #065689",
"*. c #065A8B",
"=. c #0C5A8B",
"-. c #0E4F92",
";. c #035B93",
":. c #0C5E93",
">. c #2D5888",
",. c #355A89",
"<. c #096586",
"1. c #0D6195",
"2. c #076599",
"3. c #04649B",
"4. c #0C649B",
"5. c #136297",
"6. c #2E6B8F",
"7. c #0B52AF",
"8. c #015AA8",
"9. c #0768A5",
"0. c #056AA4",
"q. c #0B6BA4",
"w. c #0C6DAB",
"e. c #106DA9",
"r. c #0972AD",
"t. c #0168B6",
"y. c #0473B4",
"u. c #0C73B2",
"i. c #0877BA",
"p. c #0B7ABB",
"a. c #1478B5",
"s. c #1179BC",
"d. c #2F72AF",
"f. c #54768C",
"g. c #607E91",
"h. c #4C78B2",
"j. c #0053CB",
"k. c #1159C4",
"l. c #0056D4",
"z. c #005DD2",
"x. c #005DDB",
"c. c #186DCC",
"v. c #077AC4",
"b. c #0079CD",
"n. c #117DC4",
"m. c #107CC8",
"M. c #0464DA",
"N. c #1569D8",
"B. c #0278D6",
"V. c #2169CB",
"C. c #3677C9",
"Z. c #226ED6",
"A. c #2974D8",
"S. c #3678D7",
"D. c #0968E3",
"F. c #0F6FEA",
"G. c #2375E3",
"H. c #0390B4",
"J. c #298BBA",
"K. c #2BA0A5",
"L. c #778B8C",
"P. c #4C88AA",
"I. c #718FB3",
"U. c #65A8A3",
"Y. c #7BEA96",
"T. c #55D0A5",
"R. c #62D9A8",
"E. c #0A84C6",
"W. c #0B84CC",
"Q. c #1282C5",
"!. c #1283CC",
"~. c #0294CC",
"^. c #149ECF",
"/. c #0A89D6",
"(. c #1389D5",
"). c #0396D7",
"_. c #009DD3",
"`. c #1493DB",
"'. c #1594D9",
"]. c #3190D1",
"[. c #13ACCF",
"{. c #01A2D4",
"}. c #01A9D5",
"|. c #03A8D6",
" X c #01A2DB",
".X c #30AED7",
"XX c #078BEA",
"oX c #0996E5",
"OX c #0D9CEC",
"+X c #1497E7",
"@X c #0A9DF1",
"#X c #379EE8",
"$X c #0BA7F7",
"%X c #13A5F5",
"&X c #12ACF4",
"*X c #34ADEE",
"=X c #5586C6",
"-X c #71B3C9",
";X c #69A4D8",
":X c #41B5F3",
">X c #30C6CB",
",X c #78C2D9",
"<X c #73CBEC",
"1X c #909898",
"2X c #AE9A88",
"3X c #84A09B",
"4X c #B9A898",
"5X c #B0B1AF",
"6X c #C1AC98",
"7X c #CFB9A4",
"8X c #9DE097",
"9X c #95F394",
"0X c #B3F68F",
"qX c #D1FC8E",
"wX c #ECFF84",
"eX c #D6CDB5",
"rX c #E6CFB8",
"tX c #F6DABD",
"yX c #D3FCAB",
"uX c #FAF6B2",
"iX c #849ECB",
"pX c #92B2CC",
"aX c #B2BBC8",
"sX c #91B0E4",
"dX c #8ED2DB",
"fX c #BAC5CA",
"gX c #B0CAD5",
"hX c #B6CCDB",
"jX c #86EBC9",
"kX c #95D0E6",
"lX c #AED0E8",
"zX c #BAEBF9",
"xX c #CFD0CD",
"cX c #DAD5C7",
"vX c #CCD3D7",
"bX c #E9D8C6",
"nX c #F2DDC9",
"mX c #D1F0D1",
"MX c #FDE4CB",
"NX c #FEE7CA",
"BX c #E8F2CF",
"VX c #FDEBD6",
"CX c #FCF3DB",
"ZX c #E0D9EB",
"AX c #C8E9F8",
"SX c #D0EDF3",
"DX c #E9E7E6",
"FX c #FAF4E7",
"GX c #FEFAE3",
"HX c #FEFBEC",
"JX c #EAF6FC",
"KX c #F7F0F0",
"LX c #F8F5F7",
"PX c #FFFEF5",
"IX c #FEFEFE",
/* pixels */
"1 1 1 1 < > < < < > < < < < < < < < < < < < < < < < , - - % % * * % * * * * @ O O O - , > > > > ; ; ; ; < > < < 1 < > > ; > < < ",
"2 2 1 < ; < l L i 2 r r i r 1 1 r r r r r r r t i 1 > 2 F _ ( b u q q y q q q e D _ _ D 3 > r s a p a a a a 2 2 2 3 r s J a 2 < ",
"3 1 ; = ; l 4.5.P l l V V h 1 r l V V l l l v V V y - D 5XDXZXI.:.#.-.;.-.#.#.d.fXDXZX1X5 & f $.$.Q Q Q Q Y J v k s l %.r.1.h ; ",
"1 > * ; l 4.s.q.E V J T T h r i J T T L L L P T T f & / vXIXIXSX<X].#X#X#X#X:XkXIXIXPX5X4 O d 4.q.3.3.3.*.Q P L L J J 4./.i.c ; ",
"< = * h w.n.4.E L J J T P h 2 r J T P L J L L T P u & F xXLXIXIXJXAXAXSXAXAXAXJXIXIXLX5X5 O f 8.3.3.2.*.Q L J L L l V 1./.i.c = ",
"< < c 4.n.u.! l c V L T P h 2 r V P L L L L L I L f & F xXIXIXIXIXIXIXIXIXIXPXPXDXLXIXxX_ D &.;.*.$.$.Q P J J J L l l %.v.y.c = ",
"< h 1.a.4.T v j l V J L J j 2 2 v L J V v v J L J u & F xXIXIXIXIXIXIXPXCXVXCXVXDXKXIXLXZXpX].;.K c J J J v v J v s v =.v.r.k = ",
"< J 1.=.v 2 2 s s a s l l t < < s v l s j j j v l , O F vXLXIXKXFXIXIXPXVXtXMXCXHXIXIXIXIXAXP.Z u e a s s j s s r s T e.b.9.h = ",
"> t v v s 2 t i s i i j l r ; > s l l l l j l x j , O F vXIXIXFXCXFXHXFXCXNXNXGXHXHXPXIXIXvX^ e , r i s l l l i t v q./.XX9.u = ",
"; r T =.=.=.%.=.=.%.:.4.:.L r s E :.=.%.! ! %.5.5.B - F xXIXIXHXGXrX2X2XrXGXCX7X . .cXPXIXhX6.Z U E %.%.%.%.E P P 4.(.%X+Xu.l = ",
"; l :.m.n.n.s.s.s.u.n.!.m.%.i v w.!.!.s.s.n.m.(.!.#.: F xXIXIXPXFX2X5 6 7XLXCX'   5 4XPXIXlXd.9.t.s.s.s.s.s.s.s.a.m.`.+X+Xw.k ; ",
"< h =.e.q.4.4.:.=.=.:.:.:.L 1 i =.u.u.u.u.e.e.a.4.f O F xXIXIXIXFX..6 / 7XHXGX .5 6 4XPXIXgXd.#.;.4.5.9.e.w.u.u.w.9.4.q.9.E u > ",
"< r i a a r r 2 r 1 1 r r < = ; t s j s a u u i r & O F vXIXIXHXMXrX4X6XbXCXCXrX6X6XnXIXIXfX~ - , 1 r r a i a h h a i r r t 1 > ",
"< < < > ; * = 1 a h h a u r 1 > ; ; ; ; ; * & : q : w ,.vXIXIXVXMXNXMXMXNXVXNXtXtXtXCXPXIXfXF % & 1 h c l t ; o @ * = > > > < < ",
"< 2 i s i r t L 4.9.9.9.9.=.J a s s a y e , , M -.@.@.h.AXLXIXVXMXNXVXMXNXNXMXtXtXNXCXPXIXhX>.y z R 4.p.u.%.2 o o ; i l l i 3 < ",
"< r V T P V L =.u.u.9.p./.n.%.J v L B M w M D U..XK.^.,XJXIXIXHXVXMXMXMXMXnXtXNXVXCXGXIXIXhX=.g Z *.p.W.m.=.r + @ r V E T V u < ",
"< r v P P L V P ! l h $.m.s.%.v v J B m w I U.qX0X9X9XmXHXIXIXIXHXCXVXNXMXtXtXMXGXFXIXIXIXaXI q f H E $.E v > @ * 3 J E E v t < ",
"< r j v l l l v v < * V s.s.%.J v v B c I [ 0XwX+.+.+.yXmXJXKXLXPXIXPXFXCXNXNXCXPXPXLXJXJXhXL.I f u s j l v k r ; < l T T v r < ",
"; 2 l L J V J P J 3 = J s.n.=.v v M M I { 0XqXO.qXqXO.0XU.h.I.fXKXIXPXPXHXGXGXPXIXJXkX,X<XzXmX3XI d f j v %.0.$.< ; l T T v r < ",
"; a $.q.q.4.4.:.E r < E !.!.:.J J d m ~ 8XwX+.8XT.Y.0X| S r D P.kXzXzXzXAXzXAXAXSXkX.X^.K.jXBX8X~ m g v v w.`.w.e ; j T T l r < ",
"; c 9./././.W.w.E 2 < T !.!.=.v h m w [ o.+.wXT.`.>X9X] $ . = <.^.*X*X.X.X*X.X.X.X.X).E.K.T.0X9XI w g x v q.!.w.t = j P T v r < ",
"> f $.9.u.t.9.R s * @ t =.:.V , , y ~ U.wXyX9X~.D.&XY.} $   ; <.). X_._.~.~.~.~.E.).~.E.H.R.O.} n : , < 3 J =.T 1 < l T T v r > ",
"; 1 a k h h h a < * @ ; r s < & & A { qXqX9X>XB.F.&XY.X.9 2 N 0._.oX_.)._.~.).~.~.).).~.H.R.0X..5 & & * = 1 i 2 = < v P T l r < ",
"= t J a @ * l E T P L J J v M m m ^ o.X.| { .X#X*XR.9X} K.0.y.~.{.|.{. X_.{.{._._._. X_.K.K.U.{ ~ N z k v J N r * ; j L L l r > ",
"= T s.1.1 1 :.(.(.(.m.n.n.a.m.F.D.J.] 7 7 0 5XZXZXuXqXY.[.).oX|.{.{.{.{.{.{.{._.{. X X).~.<.~ 6.p.m.v.y.v.v.i.Y ; = s L L l 2 < ",
"; %.`.Q.h r =.(.(.(.+X`.!.(.+XXXF.H.8 7 # 0 eXKXKXuX+.Y.[.$X@X}.{._._._.{._.{._._. X X_.H.Q f U W.OXoX)./.@XoX2.> = l ! ! J i > ",
"= %.+XQ.j ; l ! E q.A.s.:.q.m.B.9.W 0 7 7 0 rXLXKXuXqXY.[.oXoX X{._.{._.{._.{._._. X X).H.%.D I y././.W./.oX`.2.; ; J 2.2.Y r ; ",
"= E (.H.j * 1 j s P 5.=.V L :.-.U A 9 8 7 ] eXLXLXDX0XT.[.).)._.{._._.{.{.{.{._._.{. X_.E.K.1Xf.u.b.i.p.E.(.W.*.= ; Y 9.0.Q p ; ",
"= E '.Q.j * 2 l v V P P v V P P J B k 9 7 [ eXHXLXAXdX.X[._._._._._._._._._.{._._._._.~.^.-XcX5Xa.t.y.i.E.W.W.:.= ; Y r.0.Q p ; ",
"= %.+X(.l ; i T P J V J J J J J L B M G ] X.BXIXJXAX<X&X{._._._._._.{._._.{._._._._._._.[.dXFXvX].t.y.i.v.!.W.1.= < Q y.y.&.a < ",
"> %.`.Q.v ; i T P J V V J J V V J M B G X.0XFXJXJXAX<X*X X{.{.{.{.{._.{._._.{.{.{._._.{..XkXFXcXJ.t.t.i.H.!.W.:.= ; Y 0.0.Q u < ",
"3 V 5.=.a ; 1 a j j s s a r t 3 r y y 3 ] o.mXIXIXAX;X.X|.|.|.|.}.}.}.}.}.}.|.|.|.|.{.|..XdXCXbXa.8.t.y.y.E.E.*.< @ 2 H c a 2 < ",
"< < r r > = = > < ; ; > ; - * * * = O . . F fXIXIXlXU.H.}.|.|.|.}.}.}.}.}.}.}.}.|.}.}._..XdXBXbXJ.8.t.u.p.E.E.:.< . o @ @ = ; 1 ",
"< > ; < 2 2 2 2 1 1 1 < > 2 s u r > O O : I aXLXIXlX6.*.H.). X_._.~.~._.~._._.~._._.~.H.J.pXDXDX`.B././.`.%XOX9.< + < j l t 1 ; ",
"< 2 u l l v x l l l l s s L 4.r.;.l - q #.].zXLXIXgX>.@.t.B./.b.b.v.b.b.b.b.v.b.b.b.b.j.a.iXDXDX#XB.XX%X%X&X&X4.; < =.E.v.:.s ; ",
"< r c P P P L L L L L l l =.W.%XoX%.e g B.:XzXIXIXhX>.@.7.M.M.z.z.z.z.z.z.z.z.M.z.z.j.j.V.iXDXZXa.;.9.w.a.s.a.L @ t i.$X$Xi.l = ",
"< r J T P P L L L L J v l =.!.%X%X:.e z b.:XAXIXIXhX6.@.j.x.M.x.x.x.x.l.z.x.x.x.l.l.l.j.k.sXKXxXn * , r p h s ; o h y.$XOXy.h = ",
"< i L T P P P L P P L J J ! e.`.'.=.1 g b.:XzXLXJXgXh.7.j.x.D.N.F.F.G.F.F.G.F.N.N.N.l.l.k.sXLXbX5   o * = = = = = h ;.v.v.*.a ; ",
"< t v L L L L L J J J J J J ! 1.1.l > z b.*XlXbXcXpX=Xk.x.M.N.C.S.S.S.S.S.S.S.C.C.Z.l.j.Z.lXLXcXD % ; r t r t t a c L Q Q J i ; ",
"< 1 < 1 3 r s s a t t t t t 2 p s ; - B B.:XkXbX7XaX=XN.x.x.C.h.,.,.>.,.,.>.,.f.h.C.N.l.Z.;XaX1X~ e e h j j s j j s s s a r < > ",
"1 > * + @ * ; ; ; = = = = = @ ; ; o & B /.*XkXbXrX5X=Xc.x.D.C.,.b 3 t p p 1 3 ~ P.S.D.D.Z.h.~ n s y u a s s s s s s r s s t 1 > ",
"> 1 p k h r ; < r a u u u 2 1 1 3 * * K /.*XI.1X1XI.=XN.M.D.C.d.C B Y T Y H Y 6.=XA.D.F.A.d.Z Z R %.=.=.=.=.=.=.=.%.=.5.5.T r < ",
"; s 1.Q.p.Q r r H $.$.Q Q Y H J l < ; K /.+Xe.S D ^ h.N.M.D.S.].r.0.y.y.y.y.9.d.C.Z.M.D.S.d.9.0.y.p.n.s.s.s.p.p.s.s.n.!.!.4.l < ",
"* l i.$XOX9.a 2 Y ;.1.*.*.Q W T P j > P '.oX$.- : Z d.Z.D.D.A.d.4.3.2.0.0.3.;.9.V.N.x.N.S.C.5.&.:.:.:.:.:.5.1.1.:.:.4.q.q.! h < ",
"= h u.$XOXq.p < l T T P P L P T P s ; J `.+X$.> , I d.G.D.D.G.>.a < 2 a u < 1 Z V.Z.N.A.S.d.J 4 < r r 2 2 2 2 r r r r a r r < < ",
"= j q.OXOX4.p < J P J J v J J L L s > J `.+X=.< q I C.G.D.D.N.>.< + @ ; * o + C I.sXsX;X=X7.h ; > < < > > > < < < 2 < < < > > > ",
"= a q.OXoX2.i r Y &.L l v v J P J h > v '.+X=.r t I C.G.F.G.S.5.a < 2 a r , , ) fXFXDXlX#X8.Z N H K K K K K K K K H H Y Y H r ; ",
"= a 9.oXoX<.u h ;.2.W J v J J P J h > l '.+X*.u s B -.h.iXlXsXh.h e k P K g g _ MXHXPXlX].8.#.$.Q *.3.3.9.3.3.2.*.Y R q.W.w.v ; ",
"= s q.OX'.1.a h *.2.W v J v J L J h < a '.+X5.s l f l g.cXIXPX1X> & f P L g g ) NXHXPXfXd.Z B v L T 1.3.9.9.3.*.Y l v 5.+Xn.T ; ",
"@ s q.OXoX1.a r Q *.L J v J J L L j > j (.'.=.v j y e _ eXIXIX4X4 O r J N g g ^ bXPXPXfX,.g d j l L Q *.&.*.$.K l h E e.n.5.j > ",
"= a q.OXoX2.p < J W H J J J L L L h > k '.+X1.A l d q ) eXLXIX4X4 O y L B z d ) tXPXIXfX~ f f J v J L K P P P V v E e.w.E i < < ",
"= a r.OXoX2.a < a L L J J J J P J k ; J ^.+X4.P v f g ) xXLXIX5X> & f T K B g ) tXHXIX5X~ d g P P L L L J V J E =.u.e.! r ; ; < ",
"= a r.OXoX2.a < k J L J J J J P L j < J '.'.5.P l f M ^ xXHXIX4X> O y P H B f ) tXIXPXfX~ d f L L L J J V l v 5.n.n.W 1 * = < 1 ",
"= k p.&XOX2.p < j L J J J v J P L l 1 j 5.:.J s t e y F eXPXPX4X= . , x f e , ) BXIXLXxXD : , s b l l j r < r %.u.=.< . o = < 2 ",
"; k r.OXOX2.a ; l J J J J J J P L l 1 > a a 1 1 1 & % F eXPXIX5X4 O & 1 , - & ( LXIXIXfXD O & < 1 1 1 3 > * ; r v t * o @ ; > < ",
"> 1 L u.'.0.j 2 P T L v v v J L J l > ; h L J c r O . F fXIXIXlX5.d , 1 < - , f.IXIXDX1XI y e h c 1 ; 2 V P l s r l P ! E c 1 ; ",
"; @ = Y H.r.k u $.*.P v v v J L L s ; i q.W.m.4.c O . F vXIXIXAX+X7.B k k f z f.xXrX ./ %.-.;.2.3.c 2 L !.+XW.r.9.p.+X%X+Xq.s * ",
"; = r =.m.2.h u $.3.W H l v J T W v 1 v m.@X/.4.l O & f.ZXPXKXsX(.q.R J V B Y ,. .` $ 4 R t.i.i.y.K < T '.&X&XW.W.`.&X&X%Xu.h = ",
"; t &./.oX9.a u $.0.3.Y J v J %.*.K 2 N n.(.w.E l e x f.5XeX ._ %.#.Y L P Y Y j 5 X   + N :.9.y.y.Y 2 L '.&XOXW.W.W.oX$XOXu.l = ",
"; c y.&X%Xw.h u *.0.0.3.$.T T %.;.K r J n.!.=.C J K U >.` 0 $ 5 N #.W T T %.T <       . * 1 h *.y.Q u ! .X&X%XW././.'.OXOXp.h = ",
"; a 1.).OXy.k a &.0.0.0.4.&.T T ! l 2 T !.!.=.v J R Y s = X   @ N %.! T T %.T 2             o a 9.$.a W `.&X%X/./.(.).OXOXr.k > ",
"> 2 K ;.u.%.a r K $.$.Q $.Y J v l t 1 v 4.9.T j l L N >       . u l s h v P L 2 o . . o       > Y H u v e.H.a.q.2.4.q.y.u.%.a > ",
"< < 3 p l s 1 < r a a a a r r 2 2 1 < r j l s 1 r a i -         o o o @ 2 j a r > > < < ; @ @ ; a a < 2 a J k a a a a k k p 3 < ",
"1 1 > = ; ; < > > > ; ; < < < < < < ; < ; ; > > > 2 r * .             . ; 2 r 2 2 r t r r 2 < < < < ; ; = = = = = = = = ; > < < "
};
