/* XPM */
static char *front1664256485[] = {
/* columns rows colors chars-per-pixel */
"64 64 255 2 ",
"   c #000102",
".  c #030609",
"X  c #160F0B",
"o  c #020D15",
"O  c #000419",
"+  c #010C1D",
"@  c #02121C",
"#  c #09151D",
"$  c #3C2319",
"%  c #000B28",
"&  c #031523",
"*  c #041926",
"=  c #05192B",
"-  c #041C2C",
";  c #081331",
":  c #041E31",
">  c #011837",
",  c #00153B",
"<  c #09202E",
"1  c #042234",
"2  c #0A2436",
"3  c #05253B",
"4  c #06283E",
"5  c #09293E",
"6  c #372F2F",
"7  c #432619",
"8  c #423633",
"9  c #001C43",
"0  c #001B49",
"q  c #001A55",
"w  c #022443",
"e  c #092442",
"r  c #052B43",
"t  c #092C44",
"y  c #03244B",
"u  c #052E49",
"i  c #082F49",
"p  c #093145",
"a  c #06314C",
"s  c #09324C",
"d  c #11344A",
"f  c #012B53",
"g  c #012858",
"h  c #053553",
"j  c #093653",
"k  c #063956",
"l  c #093856",
"z  c #02335B",
"x  c #053A5B",
"c  c #0A3C5C",
"v  c #143A57",
"b  c #2F3A47",
"n  c #001B61",
"m  c #022B64",
"M  c #033A65",
"N  c #0A3E61",
"B  c #023B73",
"V  c #16435C",
"C  c #2D4556",
"Z  c #344B5A",
"A  c #034367",
"S  c #0B4264",
"D  c #04446B",
"F  c #0B456B",
"G  c #0B486E",
"H  c #124565",
"J  c #054B74",
"K  c #0B4B73",
"L  c #044A7A",
"P  c #0B4E79",
"I  c #055176",
"U  c #05517D",
"Y  c #0B517D",
"T  c #175473",
"R  c #2F516E",
"E  c #2B587A",
"W  c #0D6C7C",
"Q  c #29616C",
"!  c #454846",
"~  c #584547",
"^  c #505559",
"/  c #665850",
"(  c #495C69",
")  c #516674",
"_  c #8E7D6E",
"`  c #16A47D",
"'  c #4B8C6D",
"]  c #67AC74",
"[  c #9F8C7A",
"{  c #A88F7C",
"}  c #9FD47E",
"|  c #90E675",
" . c #B0F776",
".. c #CCFE73",
"X. c #E5FF77",
"o. c #032D8C",
"O. c #0239B1",
"+. c #004B89",
"@. c #055483",
"#. c #0B5583",
"$. c #075689",
"%. c #065A8B",
"&. c #0C5A8B",
"*. c #12588E",
"=. c #055D92",
"-. c #0C5E93",
";. c #015798",
":. c #315B8C",
">. c #066195",
",. c #0C6195",
"<. c #04649C",
"1. c #0C649C",
"2. c #0B689E",
"3. c #156A92",
"4. c #2A678B",
"5. c #0555AB",
"6. c #0465A2",
"7. c #056AA4",
"8. c #0768A7",
"9. c #0B6BA4",
"0. c #0C6DAB",
"q. c #106CA6",
"w. c #0573AD",
"e. c #0B71AE",
"r. c #1172AD",
"t. c #0067B4",
"y. c #1C62B1",
"u. c #0573B2",
"i. c #0B74B3",
"p. c #0A77B9",
"a. c #0B7BBC",
"s. c #1376B4",
"d. c #1079BD",
"f. c #336FAB",
"g. c #4B738F",
"h. c #4D77B3",
"j. c #617AA8",
"k. c #0052CB",
"l. c #0056D4",
"z. c #005ED2",
"x. c #005EDB",
"c. c #0E69C9",
"v. c #1B66CB",
"b. c #0C7DC2",
"n. c #0379C9",
"m. c #117DC4",
"M. c #177DC9",
"N. c #0564DA",
"B. c #176AD8",
"V. c #0279D2",
"C. c #3272CD",
"Z. c #2975D8",
"A. c #387BD6",
"S. c #106DE6",
"D. c #307DEA",
"F. c #14A493",
"G. c #3DA892",
"H. c #068BB2",
"J. c #2B91B7",
"K. c #12A9B7",
"L. c #5084B0",
"P. c #6B90BA",
"I. c #64A9A1",
"U. c #34C1AD",
"Y. c #53CA96",
"T. c #60D19C",
"R. c #0B81C4",
"E. c #0C85CB",
"W. c #0A89CD",
"Q. c #1382CB",
"!. c #1385C8",
"~. c #0397CA",
"^. c #0689D5",
"/. c #0C8DDC",
"(. c #138AD5",
"). c #019DD3",
"_. c #0396D9",
"`. c #1695DB",
"'. c #3390D1",
"]. c #10AACC",
"[. c #02A1D4",
"{. c #01AAD4",
"}. c #03A7D8",
"|. c #31B1D6",
" X c #038BE5",
".X c #0C96E5",
"XX c #0D9CEC",
"oX c #1598E7",
"OX c #0598F3",
"+X c #149FF0",
"@X c #368EE7",
"#X c #0BA7F7",
"$X c #13A4F3",
"%X c #15ABF3",
"&X c #17A5F9",
"*X c #2FA9EF",
"=X c #6599D5",
"-X c #4EB2D2",
";X c #4289E9",
":X c #4BACE6",
">X c #53D5D1",
",X c #73D1F2",
"<X c #8F8D8F",
"1X c #B29B88",
"2X c #B3A798",
"3X c #93A4AF",
"4X c #B1B3AF",
"5X c #C9AD94",
"6X c #C9B499",
"7X c #D1B494",
"8X c #D2B9AD",
"9X c #8BE489",
"0X c #B6F78D",
"qX c #8FF2A7",
"wX c #CDFC8F",
"eX c #D9FF86",
"rX c #EEFF92",
"tX c #D5C6AD",
"yX c #E7C9AC",
"uX c #EDCEB6",
"iX c #E8D4BB",
"pX c #FADABA",
"aX c #DAFBAC",
"sX c #F4FEB0",
"dX c #8DB0CF",
"fX c #B1BAC4",
"gX c #8BADE4",
"hX c #BBC7C9",
"jX c #AFC5D1",
"kX c #98D8F8",
"lX c #B2D6E8",
"zX c #A5DCF6",
"xX c #A0E4E6",
"cX c #C9D0CD",
"vX c #D4DBDC",
"bX c #EADAC9",
"nX c #D9F1CA",
"mX c #FBE8CC",
"MX c #FEF8CC",
"NX c #E9E9D7",
"BX c #FAEBD4",
"VX c #FFF2D5",
"CX c #FEF8D8",
"ZX c #FFFBDC",
"AX c #D1DBE3",
"SX c #CCECFD",
"DX c #D5EFF5",
"FX c #F0ECE6",
"GX c #F9F5E5",
"HX c #FFFCE2",
"JX c #FEFEEC",
"KX c #E8F9FE",
"LX c #F8F7F7",
"PX c #FDFDF4",
"IX c #FFFEFD",
/* pixels */
"3 3 3 3 1 1 1 1 1 : : 1 3 1 1 1 1 1 1 3 : : : % + % + + & & & & & % + + O O % # & & = : 1 1 1 : - - - : : 1 1 1 1 1 - - 1 1 1 1 ",
"4 4 3 1 * : x S u 4 r r r r 3 4 r t r r r w 3 p Z ( ( C g 0 9 w w > > e C ) ( C a h z h 3 1 r a a u u u a a 4 4 4 4 4 a c h 4 1 ",
"3 3 - * = c 1.1.G l l S N a 4 r c N c N x z y R hXNXcX=Xs.5.;.;.;.+.+.f.fXNXbX3X2.t.p.-.5 : x U @.U I U U J S l x p l #.e.=.h - ",
"3 : & - l 1.s.q.P N S K K k r r S F F G M z f 4.IXIXIXKX,X:X*X:X|.@X:XkXKXIXIXzX!. XOXs.t - A <.<.<.<.<.%.U G F F S F 2.^.p.c * ",
"1 * * h 0.b.9.K S S S K K l 4 r S F F F S z f E IXIXIXIXKXSXSXSXSXSXSXKXKXIXIXlX!.V.OXr.r - D <.<.<.>.%.U F F F F c N ,.^.p.M * ",
"1 1 c 1.m.e.P l c S F K F l 4 r N F F F A z f E KXIXLXPXIXIXIXIXIXIXIXPXPXLXIXlXs.V. Xq.5 1 @.0.=.@.@.I K S S F S l l $.n.i.l * ",
"1 j ,.s.1.K c j x c S S S j 3 r c S S N x f y E KXIXJXGXPXIXIXIXIXIXIXPXVXHXPXlXi.V. X1.5 u -.0.Y S S S N c c c N j k $.b.0.k = ",
"1 S ,.&.c t 5 s s a s l c r : 1 a j j s u 3 : R FXPXZXHXPXIXIXGXFXIXIXPXCXVXCXjXe.V./.9.5 1 G &.c t p a s j s s t i G 0.E.8.h * ",
": r c N i 5 t i s i i l l t : 1 s j s s r > > R bXHXZXHXGXPXCXmXmXGXGXHXVXMXMX4Xi.V. Xe.5 @ r c d e t i l l l i t c 6./. X6.s = ",
"- t G &.&.&.#.&.&.&.-.1.-.S r u Y -.*.&.$.+.J f.pXZXCX7X[ { yXVXZXyX1X1XiXMXMXfX(.OX#Xs.t * l &.*.#.#.#.#.#.P K G ,.(.&X+X0.h * ",
": k 1.m.m.m.d.d.s.d.b.M.m.$.i c 0.M.m.d.p.t.t.L.mXJXmX_ X 6 1XLXJX1X$ 6 6XZXZXjX(.OX X9.t 4 #.a.m.m.d.d.d.d.d.s.s.M./.oXoX0.l - ",
": h &.9.9.1.1.-.&.$.&.1.-.S 4 u &.0.9.q.-.;.+.h.mXPXNX1X6 8 5XLXPX2X8 ! 6XJXHXfXq.6.;.G 1 1 F 1.1.1.,.9.0.9.0.i.e.9.1.9.-.P i : ",
"3 4 u f a r r 4 3 4 4 r r 3 * - t s s s e , 0 ( bXJXCXiX6X6XbXGXCXiX5X6XbXGXCX1X5 % > 3 - - 1 u r r r r r u h l h a r r y t 3 1 ",
"1 1 1 < - * * 3 a h h a u r 3 : : : - < * O O b uXZXCXCXHXHXBXmXmXVXCXBXmXCXmX<X; O % r p u r 1 : 3 h x c r = o @ & - : 1 1 1 1 ",
"1 4 s s s 4 t F 1.0.6.6.8.&.S s i s i y 9 , ; Z uXHXVXMXCXCXmXmXmXmXVXmXVXCXVX4XM q g D U I J A S L <.d.i.#.4 o o - i l l u 4 1 ",
"1 r c K F S F &.i.0.8.p./.m.&.c N S M m n q V I.FXIXGXmXpXpXpXpXpXpXmXmXBXLXLXNXI.W B o.+.$.$.U U =.i.E.!.&.r o @ r S P K N r 1 ",
"1 r c K F N S K Y c a #.m.E.*.c S S m m n z ' aXIXIXIXGXpXpXpXpXpXpXpXmXLXIXIXJXaX] H n m M F F F F K Y P c : + & 4 S Y K S r 1 ",
"1 r l c c l l c c 2 & N d.m.#.l c l m m H '  .aXJXIXIXLXGXmXmXVXmXVXCXGXIXIXPXMXrX .' b z z x S c S c l l c l r = 1 c K K c r 1 ",
"- 4 l S S N N F S 3 * S b.M.$.c c g M Q ]  .wX0X0XaXPXIXLXLXJXPXPXPXPXIXPXJXnXwX0X..} ] H z m F S S c j c #.0.@.1 - l K K c 4 1 ",
"- a #.9.9.9.1.-.P r 1 K Q./.,.S S m N ' 0XrXeX . .eXsXNXSXkXkXzXzXzXzXDXCXsXeX . .eXrX9XQ m m F F G F c N 9./.0.u * s K G c r 1 ",
": x 8.^.^.^.V.0.K 5 1 K E.Q.&.S N g z ' 0XrXeX . ...eXqX-XoXoX`.|.oX|.>X0XX.....0XeXaX} Q n m S S S S j c 2.(.9.t = s K K c r 1 ",
": u @.8.e.e.8.Y s & @ u #.$.c 4 3 , 0 T G.qX0X0X9X| T.Y.].^.)._.^.^.W.K.Y.9X9X9X .0XT.G.N 9 9 i s p p 3 5 S &.J 3 : l K K c r 1 ",
"- 3 a k h h k u 1 * & : r r 1 1 2 % % B K.>XqX9XG.F.K.{.~.~.~.~.~.~.^.~.~.K.|.T.0X0X>XH.f % % 1 1 : < * * 3 r 4 & 1 c K G c 4 : ",
"& t S s + * l P P F S S N N N K #.u % z '.xXwX| ` H.~..X).[.).[.).).).)._. X XU...aXqXf., + r c j j h h x S N r @ - l F S l r 1 ",
"= K d.,.3 3 -.(.(.Q.M.M.d.d.Q.@XoX;.9 ! 8XCXrX| ` H.~..X).[.[.[.).).).[._. X XU...rXmX<Xe ; %.(.!.p.p.i.a.n.b.L - * s F F j 5 1 ",
"* $.`.!.h r *.(.Q.`.oXoXQ.(.oX&X`.;.n ~ yXMXaXT.F.H.~.[.[.[.).).[.).[.).)._..XK.Y.aXsX5X8 0 5.+X+XoX/././.OX.X8.1 * k Y Y S r - ",
"= #.`.!.k - c #.P q.M.d.,.q.M.Q.y.B y ) iXZXxX>X~.~.).[.[.).).[.).[.).[.).[.[.~.H.I.MX7X8 9 5.oX`.(.W.W.W./..X2.- * F <.>.J r - ",
"& Y (.H.s & 2 s j G -.*.F K *.-.K y e ) cXPXzX*X)._.).).).).[.[.[.).[.).[.}._.p.8.J.cX7X8 9 +.(.Q.H.a.a.R.W.W.1.* = J 8.7.I u 1 ",
"& P `.!.h @ 3 c l N G F N N F K H y y g.vXKXkX|._.).).).).).).).).[.).[.[.}._.n.8.J.cX7X8 , <.!.E.R.a.p.b.E.E.2.* - I w.w.U r : ",
"= #.oX(.c = s K G S S N S N S H S z g g.AXKX,X%X.X}.).[.).).).[.).).).[.[.[.).W.H.|.vX7X8 , ;.(.Q.b.H.a.b.E.W.2.- - U u.u.$.a : ",
": #.`.!.c - u G G N N N S N N N S f y g.AXSX>X}.[.).[.[.[.[.[.[.[.[.[.[.}.}.).~.{.,XNX7X6 , ;.W.E.a.d.p.H.E.W.>.- - J 7.7.U a : ",
"2 N ,.&.a - 3 a h j j i s u t t t > > ) AXSX|.~.H.K.{.}.{.{.{.{.{.{.{.}.}.}.].].|.kXGX7X6 , ;.E.a.p.i.u.a.a.R.>.: @ 4 x A s 3 1 ",
"3 3 r e : = - : : : : : - = & * # O o ( AXDX-X3.Q J.].{.{.{.{.[.{.{.}.{.{.].-X-X-XxXGX7X6 , ;.!.a.i.i.u.a.R.R.,.1 . o @ @ * : 1 ",
"1 : - 1 4 5 3 3 3 3 1 2 : 4 r h t o o ) vXKXP.:.3.J.~.).).).).).~.).~.~._.].|.'.J.dXNX6X6 9 8.$XXX/.`./.oX$XXX9.1 o 1 h s r 3 1 ",
"1 3 u l l x x l l c l i a G -.e.>.f & ( vXDXP.+.6.n.n.V.V.V.V.n.V.n.n.n.V.V.n.5.5.P.bX6X8 9 8.&X%X+XXXoX&X&X&X2.= 1 &.E.R.&.a * ",
"1 r N G F F F F F F S l c =.Q.XX/.+.3 ( cXAXh.5.k.x.N.z.z.z.z.x.z.z.N.z.N.N.l.O.o.j.bX6XC & B r.s.s.r.r.s.H.s.F @ r a.#X#Xa.k = ",
"1 r S K G G F F F F S c l &.Q.&X&X6.w ^ 4XcXh.O.l.x.x.x.N.N.x.x.N.N.x.x.x.N.x.O.o.j.bXtX! O % u t p r p a s s - + a u.#X#Xu.z * ",
"1 r F K K G F G F G F S S Y r.`.(.;.e ! 2XfXP.5.l.N.N.B.S.S.S.D.S.S.S.B.B.N.x.O.O.3XmX8X! % 9 r - @ & * * * * * * h ;.b.n.%.a - ",
"1 t c F S S S F S S S S S S P ,.=.M : ! 4XfXP.c.x.N.Z.A.A.A.A.@XA.A.A.A.C.Z.x.l.5.gXmX7X8 9 B $.j 2 3 t r r r r a k F @.U S 4 - ",
"1 3 3 3 5 t j s i t t t t 5 t p t - = C P.=X=Xv.x.N.A.h.f.:.:.:.:.:.:.g.h.Z.N.l.Z.=XjXI.6 w L &.F s p j j j j s j s p s p u 1 : ",
"3 - & + # & - - - * * & * * & - - + + A W.*X;Xv.x.S.Z.f.R r < 2 v i d R h.Z.N.N.A.;XJ.*.3 * a F l t s t s s s s s s t s s p 3 : ",
": 3 i x h e - 1 r a u u u r 3 3 3 & & D ^.&X@Xv.x.S.Z.f.c & o 1 K L L 4.h.A.N.N.C.@Xn.#.> = c &.*.&.&.*.&.&.&.&.&.#.*.1.,.K u - ",
"= a ,.H.a.U r r D @.@.@.I J S S c 5 * x (.&X@Xv.l.x.Z.f.H - @ x 7.n.p.s.C.v.N.S.A.'.c.L : r #.b.m.m.m.d.d.d.a.d.d.d.m.Q.Q.,.c : ",
"* l p.#XXX9.a 4 J &.=.%.%.@.J K F j - x W.*X@Xv.l.x.B.y.K 1 - k >.7.6.8.v.N.x.S.;XA.*.r @ 1 G ,.9.-.-.-.-.-.,.,.,.-.,.9.9.#.a 1 ",
"* k i.#XXX2.u 1 c K K K K F F K G a - x W.&X@XC.v.Z.B.y.J r - 2 s r r B y.B.Z.D.;Xf.v @ o & 1 u r r r e 4 4 r r r r r u t r 3 : ",
"* s 9.XXXX2.u 1 c G F c c N S G F h 1 x !.XXM.h.P.gXgXh.K w - < 1 @ @ V P.gXgXP.C.*.N j k k r 3 1 1 1 1 1 1 1 1 3 3 3 1 1 : : : ",
"# a 9.XX`.>.u 4 U #.G c c c S F S j : c b.^.;.) tXFXFXdXE 9 > 5 s > e ( hXLXFX3XR B ;.r.d.7.U A A A A D A D D D A A A J I M r - ",
"* h 7.XX.X>.p h =.<.K c N N S F S h 3 c p.V.+.^ pXPXPXcXE 9 % 5 s y z j.AXIXJX2Xe n 5././.p.>.Y U %.<.7.<.7.<.>.%.J U 8.E.0.c - ",
"& a 7.XX.X>.u h =.>.I c S c S F S l 3 l 0.^.+.Z pXPXIXcXE 9 % < 2 ; t L.AXIXJX2Xs y +.u.w.>.K S S J =.<.<.7.<.%.J x c 1.oXQ.F : ",
"* a 9.XX`.>.u r I %.G S c S S G N h 3 l t.^.;.C yXIXPXhXE 9 ; = = % e g.vXIXJX2Xv q M U U J S v c S U %.$.%.@.F l j P q.M.-.j : ",
"* a 9.XX.X2.p 3 S K G S N S F F S k 3 c p.^.;.Z uXPXLXhXE 0 ; < = % y g.AXIXJX4XH q z S G F S c S S F K K G F N c Y q.9.P u 2 : ",
"* s 9.XX/.2.u : j A S S S S S F S j 1 N b.OXt.Z uXPXPXhXE 0 ; : : ; f g.AXIXJX4XF y z S F F F F F S F F S S S P &.r.0.#.r * = 3 ",
"* s 0.XXXX<.u 1 l S F S S S S F S l 3 S R. X;.Z uXPXLXhX:.9 ; : - % y g.vXIXJX4XH q z S F S F F S S S S c l N -.!.d.Y 3 * * 1 3 ",
"# S H.%XXX1.a : j S S S S N F F S l 5 l ,.;.g Z yXPXPXhXR , % = # O > ) vXIXJX2Xl , > s s j j j l c c l s 3 r #.r.&.3 . o = 1 3 ",
"- k w.XXXX2.a 1 l S F S S S S F F c 3 3 u > % ! pXIXLX4Xb % % : < O & ) vXIXPX2X5 O % 5 3 3 3 3 5 r 4 3 : * - r c t @ o & - 1 1 ",
"- 4 D i.^.9.s 4 F K S c c N S F S l : = 3 f z g.BXIXIXcXb . . x *.m 2 g.vXIXIX4Xe % w k h u r u r 1 & 1 c S c u r k G Y K x 3 * ",
"- + * K H.w.x u @.%.F c c c S F F s < j =.t.t.=XIXIXLXcXb   O &./.t.J j.NXIXIXfXl 9 B %.=.%.%.=.>.A 3 F !.+XW.7.7.a.oX&XoX9.u * ",
"- = r &.m.2.a u @.<.U N c c S K I x 4 F V.OX X:XLXLXFX3Xb + = #.Q.t.+.) hXFXIXjXT B +.<.>.=.<.w.w.D 3 K `.%X$XW.W.`.%X%X$Xi.k * ",
"- r %.^..X9.a u @.7.=.U F c S Y %.D a G n.V.t.L.cX8X[ ^ l z z G *.+.D v / { tXdXE M D K P #.=.w.w.A 3 G `.%X$XE.E.^.oX#XXXe.k * ",
"- x i.#X#X0.h u %.w.7.<.#.G G $.,.J a s G B r b / / 7 # x L P S S K B 1 X 7 / / d > - t V P >.p.u.D 3 T +X%X$XW.^.W./.XXXXi.h * ",
"1 a >./.XXe.x a @.7.7.7.<.$.K P Y F r & o .   . X X   o x #.Y F S K J 1 .   X X .   . @ l Y <.u.w.A 4 I `.%X&X^.^.W./.XXXXe.k - ",
": 3 S >.e.%.a r D @.@.U U J S c c l 4 o         .     + a F S c c S M 3 .             o p G U @.@.A 3 c r.H.p.2.2.1.9.i.i.$.a 1 ",
"1 1 3 a k a 3 1 u a a u a u r 4 4 r 4 - & @ @ & @ + & - 4 u r 4 4 r a 3 * % + @ & @ @ * 3 a a s a 4 : 3 l S k s a a s k l u 3 1 ",
"3 3 : * - < : : : : - < : : 1 1 1 3 4 4 4 4 r r r w 3 3 1 3 3 1 1 3 3 r r r 3 r r 5 3 3 1 1 < : : : : * & * * & * * & * - - 1 3 "
};
