/* XPM */
static char *back1664256484[] = {
/* columns rows colors chars-per-pixel */
"64 64 255 2 ",
"   c #000102",
".  c #03050A",
"X  c #150D0A",
"o  c #020D15",
"O  c #00051A",
"+  c #010C1D",
"@  c #02121C",
"#  c #09151D",
"$  c #043B00",
"%  c #000B24",
"&  c #000D2B",
"*  c #031523",
"=  c #041926",
"-  c #05112F",
";  c #05182B",
":  c #041C2C",
">  c #001333",
",  c #041E31",
"<  c #02193A",
"1  c #042234",
"2  c #0E2530",
"3  c #0A2436",
"4  c #05253B",
"5  c #06283E",
"6  c #09293E",
"7  c #303139",
"8  c #432619",
"9  c #433436",
"0  c #195606",
"q  c #145D17",
"w  c #326D0E",
"e  c #356F23",
"r  c #3B7827",
"t  c #507C0D",
"y  c #4B7C15",
"u  c #6A4D3D",
"i  c #437B25",
"p  c #001C42",
"a  c #001A49",
"s  c #001C58",
"d  c #042647",
"f  c #052B43",
"g  c #092D44",
"h  c #052E49",
"j  c #093144",
"k  c #06314C",
"l  c #09324C",
"z  c #11344A",
"x  c #022956",
"c  c #053553",
"v  c #093653",
"b  c #073956",
"n  c #093856",
"m  c #01335C",
"M  c #053A5B",
"N  c #0A3C5C",
"B  c #143A57",
"V  c #2D3846",
"C  c #011C62",
"Z  c #012A64",
"A  c #033A66",
"S  c #0A3E61",
"D  c #023A73",
"F  c #14465C",
"G  c #324958",
"H  c #056A41",
"J  c #034267",
"K  c #0B4264",
"L  c #04446B",
"P  c #0B456B",
"I  c #0B486E",
"U  c #124565",
"Y  c #054475",
"T  c #054B74",
"R  c #0B4B73",
"E  c #044D7C",
"W  c #0B4E79",
"Q  c #194F76",
"!  c #055176",
"~  c #05517D",
"^  c #0B517D",
"/  c #30536F",
"(  c #2B5878",
")  c #0B6B74",
"_  c #28626C",
"`  c #525655",
"'  c #64574C",
"]  c #6B6355",
"[  c #525964",
"{  c #516877",
"}  c #6C606E",
"|  c #39852F",
" . c #548611",
".. c #578518",
"X. c #61860C",
"o. c #628815",
"O. c #518A2F",
"+. c #498737",
"@. c #55923C",
"#. c #38975B",
"$. c #399E68",
"%. c #3CA16D",
"&. c #47974F",
"*. c #6DAF51",
"=. c #4C8D6C",
"-. c #6CAA73",
";. c #7BC959",
":. c #85BC28",
">. c #90B555",
",. c #A38979",
"<. c #81C565",
"1. c #90C860",
"2. c #98DD79",
"3. c #98EA72",
"4. c #A9F27A",
"5. c #032E87",
"6. c #003AAD",
"7. c #004A89",
"8. c #055482",
"9. c #0B5583",
"0. c #065689",
"q. c #065A8B",
"w. c #0C5A8B",
"e. c #0C5492",
"r. c #045C93",
"t. c #0C5E93",
"y. c #025798",
"u. c #315B8C",
"i. c #066195",
"p. c #0C6195",
"a. c #04649C",
"s. c #0C649C",
"d. c #0B689E",
"f. c #116B93",
"g. c #2C628C",
"h. c #0654AC",
"j. c #0466A2",
"k. c #066AA6",
"l. c #0B6BA4",
"z. c #0C6DAB",
"x. c #116CA6",
"c. c #0972AD",
"v. c #1072AC",
"b. c #0067B5",
"n. c #1C62B1",
"m. c #0573B2",
"M. c #0B74B3",
"N. c #0977BA",
"B. c #0B7BBC",
"V. c #1376B3",
"C. c #1079BD",
"Z. c #3470AD",
"A. c #4D748F",
"S. c #637598",
"D. c #4976B1",
"F. c #0254C8",
"G. c #005DD3",
"H. c #005AD8",
"J. c #006EC5",
"K. c #1965CB",
"L. c #0478C7",
"P. c #0C7CC2",
"I. c #117DC4",
"U. c #177DC9",
"Y. c #0464DA",
"T. c #186AD9",
"R. c #027AD9",
"E. c #3474CD",
"W. c #2A75D6",
"Q. c #387AD6",
"!. c #106CE6",
"~. c #007AE1",
"^. c #2E7CEA",
"/. c #199384",
"(. c #1290B8",
"). c #2D9CA0",
"_. c #5284B1",
"`. c #6F8DB5",
"'. c #5FA3A3",
"]. c #67D8A2",
"[. c #0B81C4",
"{. c #0C85CB",
"}. c #0A87CD",
"|. c #1385C7",
" X c #1383CB",
".X c #1297CC",
"XX c #0888D5",
"oX c #0C8DDC",
"OX c #148AD5",
"+X c #0894DB",
"@X c #1695DC",
"#X c #348AD6",
"$X c #0AAED2",
"%X c #35ACDB",
"&X c #038AE5",
"*X c #0C96E4",
"=X c #0D9CEC",
"-X c #1497E7",
";X c #0798F2",
":X c #019EF4",
">X c #149EF4",
",X c #348DE6",
"<X c #08A5F7",
"1X c #13A4F3",
"2X c #14ABF5",
"3X c #17A4F9",
"4X c #31ADF0",
"5X c #5E9AD0",
"6X c #6995CB",
"7X c #4AAED4",
"8X c #4389E8",
"9X c #49ABE5",
"0X c #65D6F0",
"qX c #9E948F",
"wX c #B2A898",
"eX c #94A9B2",
"rX c #A9ACAA",
"tX c #B3B5B2",
"yX c #D3B59B",
"uX c #99DD9D",
"iX c #B7E885",
"pX c #ABFA85",
"aX c #B5FC8A",
"sX c #B9FA99",
"dX c #D2FF8E",
"fX c #C4FF9B",
"gX c #E9FF93",
"hX c #D5C9B9",
"jX c #E4D9B9",
"kX c #F0D3B2",
"lX c #C6FFA5",
"zX c #D0F9AF",
"xX c #F5F0B5",
"cX c #92ABD0",
"vX c #AFBAC5",
"bX c #8BADE4",
"nX c #BCC7C9",
"mX c #AFC5D5",
"MX c #92D2E8",
"NX c #B9D7E8",
"BX c #A5EBFD",
"VX c #CFCFCD",
"CX c #D3D9D9",
"ZX c #E5DACB",
"AX c #D9F6D0",
"SX c #EEEBD5",
"DX c #CFDCE1",
"FX c #CBEAFA",
"GX c #D9F0F2",
"HX c #EAEEEB",
"JX c #F7FBEC",
"KX c #E8F8FA",
"LX c #FDFCF6",
"PX c #F5F8F8",
"IX c #FDFDFC",
/* pixels */
"4 4 4 4 1 1 1 1 1 , , 1 4 1 1 1 1 1 1 1 1 , < = O o + + + @ * * * * % O O % % * * * ; : 1 , 1 : : : : : , 1 , 1 1 1 : : , 1 1 4 ",
"5 5 4 1 ; , n K k 5 f g g f 4 4 f f f g f d 4 j / { [ G x a p d d p < g G [ [ G k c A c 4 1 f k k h k k k k f 5 f 4 f k N c 4 1 ",
"4 4 : = ; N s.s.I n n S S c f f N N N N m k d / VXHXCX6XE.h.y.t.7.7.e.Z.cXSXCXeXs.b.B.w.6 , M 8.8.~ ~ ~ ~ T K N n v n 9.c.r.k , ",
"4 , * : n s.V.l.W S K R R c f g K I I I J m x g.IXIXIXKX0X9X4X9X%X,X9XMXKXIXIXNX X&X:XV.g : J a.j.a.a.i.q.~ I P P N K d.oXN.M : ",
"1 = = c z.P.l.R K K K R I c 5 f K P P P J m x ( IXIXIXIXKXFXFXFXFXFXFXKXIXIXIXNX(.~.;Xx.f : L a.a.a.a.q.! I K P K N S t.XXN.M ; ",
"1 1 N s.P.v.W n N K P I I c 5 f K P P P J m d ( PXIXIXIXIXIXIXIXIXIXIXIXIXIXIXNXM.R.&Xx.6 4 8.z.q.8.~ W I K K P P n n 0.P.m.m * ",
"1 v p.V.s.R N v M N K P P c 4 f N K K K M k d ( HXIXIXIXIXIXIXIXIXIXIXIXIXIXIXDXv.L.oXs.6 f t.z.~ K J K S N N N S l n w.P.z.M = ",
"1 K p.w.S 6 f l l l l n n g , 1 k v l v k < < / PXIXIXIXPXIXIXLXIXIXIXPXIXIXIXDXv.J.&Xx.f 1 R 9.N g j l v v l l g l I z.}.k.v = ",
", f N N l 5 g h k l l v v f , , l n l l g < > / PXIXIXIXPXPXPXPXPXPXLXPXLXIXIXHXv.J.&Xx.6 @ 6 N z g g h n n n h f N l.oXoXl.x = ",
"; g R w.w.w.w.w.w.9.t.s.t.P 5 l W t.w.w.0.Y D _.PXIXIXLXPXPXIXPXIXPXPXLXIXIXIXPXOX;X:XV.g * N w.e.9.9.9.9.9.W R R p.OX>X;Xz.v = ",
", N s.I.I.I.P.V.V.V.I. XI.0.h N z.I.I.I.N.b.b._.PXIXIXIXPXPXIXIXPXIXLXLXIXIXIXPX@X&X*Xl.g 5 9.B.I.C.C.C.V.P.C.V.V.I.oX-X-Xz.n : ",
", v 0.l.l.s.s.t.t.0.t.t.t.S f h w.z.x.d.y.7.7._.IXIXIXLXLXPXPXIXIXIXPXLXIXIXIXPXx.y.y.I 1 1 I s.s.s.s.l.x.z.v.M.z.l.l.x.s.W l , ",
"1 5 f c k g g 4 5 5 6 f g 1 ; : d l l l d > & A.PXIXIXIXPXLXIXLXPXPXIXPXLXIXIXHXg % > 3 : : 4 f d f 6 f h h k c c k g h f f 5 , ",
"1 4 , : ; * = 4 k c c k h h 4 , , , : 2 * O . V HXIXIXIXLXPXLXPXLXPXLXPXIXIXIXCX- . % f l l 5 4 : 5 k M N g ; @ @ * : : , , , 4 ",
"1 5 l l l 5 g I s.z.j.j.k.w.K l l l h d p - & / HXIXIXIXLXLXPXLXIXPXPXPXIXIXIXmXD a x I E E T J A E l.N.M.9.5 o o : h n n h 5 1 ",
"1 f S R I K K w.M.z.j.N.oX X9.N S S A Z s s F '.IXIXIXIXPXPXLXPXPXLXPXLXIXIXIXKX'.) D 5.7.9.8.~ ~ t.M.{.I.w.f o @ 5 K W R S f 1 ",
"1 f N R I S S R W N k 9.{.I.w.N S K A C C m =.zXIXIXIXIXPXPXIXIXLXPXIXIXIXLXIXLXgX-.S C Z L P P P P R ^ W N , + * 5 K W W K 5 1 ",
", f v N N n n N S 1 * S C.I.9.N N n Z Z U =.pXgXJXPXJXPXIXIXIXIXIXIXIXLXPXJXJXSXgX4.=.B m m N N K N N n n N n d ; 4 N R R N 5 1 ",
", 5 n K S S K P K 3 : K P.U.q.N S x A / -.iXdXfXsXsXlXzXPXIXIXIXIXIXIXHXzXsXsXlXfXdX4.-.U x Z K K K F c n 9.l.8.4 , v R R N f 1 ",
": k 9.l.l.l.s.t.W f 1 R  XOXp.K K Z S =.iXgXgXaX4.3.3.sXAXJXJXJXJXJXHXzXpX3.4.aXpXdXgX2.( Z Z R P I K n S l.*Xz.5 = l R R N 5 1 ",
": m z.XXXXXXU.z.W 6 , R {.OXt.N B Z Z =.iXgXdXsXpX4.4.pXsXlXlXzXlXlXlXsXpXpXpXpXaXdXdXuX_ Z Z S K K K v K d.OXl.f : v I R N f 1 ",
"1 h 8.k.m.m.j.8.l * @ h 9.9.N 6 6 < a ) '.].uX4.fXfXsXsXaX4.3.;.;.3.pXsXlXpX3.4.dXlXuX).S a p d l l j 4 3 K w.T 3 , n R R N f 1 ",
": 4 k c c c m h 1 * * , f f < 3 3 % & E $X).%.>.4.lXfXsXsX3.*.i | *.4.lXlX2.*.1.4.uX0X/.d % * : 1 , : = : 4 f f = 1 N I R N 5 1 ",
"= g K k @ * n W R R S S S S S Q 9.d = U %X7X#.O.>.2.2.uX2.;.&.r r @.<.2.3.*...o.:.2.0X(.a % d N v v v c M S S 5 # : v P K n 5 1 ",
"= R B.p.4 4 p.OXOX XU.U.U.C.U.@X-Xy.p [ hXZX*.w i +.@.+.@.@.+.i O.+.@.@.@.+.e w w >.jXqXz < 0.OX X(.N.m.N.P.N.8.: = l P P v 4 1 ",
": 9.@X|.c f w.OXOXOX-X-X XOX-X3X-Xy.d } ZXxX>.0 w e e r r r i r r r r e r i w q q -.xXyX9 a k.1X>X-XoXoXoX;X;Xl.1 * n ^ ^ K f 1 ",
"; 9.@X|.v : N ^ ^ x.U.C.t.x.U. Xx.D s S.ZXxX*. .w e i +.i i w 0 0 q i +.+... .H ) 7XAXyX9 p h.-XOXOX}.{.}.+X+Xl.: = J a.i.T f , ",
"* W OX(.c # 4 l l I t.w.U R w.t.R x d } ZXSXuXO.t t O.@.@.e 0 $ $ 0 r @.O... .H q.4XNXyX9 > y.{.{.[.B.B.P.{.}.d.; : T k.k.E j : ",
"* W @X[.v * 4 N B S R K S S I I S x x { ZXJXBX'.O.t ..@.@.| 0 $ $ 0  .@.O.o. .H q.@XBXhX7 > r.OX|.L.B.N.B.{.}.d.= = ! c.c.~ k : ",
"; 9.-XOXN = l R R P S S K K K U S m m { ZXKX0X$X$.|  .o.X.t w 0 0 w y o.X...| ) (.4XFXnX7 > a.{.{.(.B.B.P.{.}.d.: , ~ m.m.8.k , ",
"; 9.@X|.K : k I I P S S K K S S K m x { jXGX0X<X*X/.| o.o... .y t t  .X. .@./.(.$X0XGXtX7 < y.{.{.B.N.B.P.{.}.i.: : T k.k.~ k , ",
"4 S p.w.h = 4 k v h l k k g f g g < < } ZXAX9X+X+X(.).#.#.$.%.%.=.%.#.#.#./.$X2X2XBXKXrX7 - y.P.(.N.M.c.m.(.[.i., @ 5 M J k 4 1 ",
"1 4 5 f , ; ; , 1 , , , ; = * = * O % ] jXHX'.x.f.(.$X$X$X$X$X$X$X$X$X$X$X$X7X%X7XBXFXrX7 & 7.{.[.m.m.m.N.[.[.i.1 . o @ @ * , 1 ",
"1 , : , 4 4 5 4 4 4 1 , 1 5 l k f % + ` jXSXeXt.g.B.+X<X:X:X<X<X<X<X:X:X;X*X4X).Z.MXGXtX7 < j.1X-X@X.X+X@X1X=Xl., @ 1 v v j 4 , ",
"1 5 h N N N n n n n n l l I r.z.p.x % ` jXZX`.e.b.R.R.R.~.~.~.~.~.R.R.R.~.XXT.h.5.6XGXvXV < j.1X2X=X>X-X>X2X2Xd.: 1 q.{.[.w.k = ",
"1 f N I I P P P P P K n N t.U.>X*X7.4 ' jXCXS.6.G.Y.Y.Y.G.G.G.H.Y.G.Y.G.Y.Y.G.6.5.D.DXtXG % L v.V.V.V.V.V.|.V.P # f N.<X<XN.b : ",
"1 g J R I P P P P P K N N w. X3X3Xh.d ' kXSX`.e.H.H.Y.H.H.Y.H.Y.H.Y.Y.H.Y.Y.H.6.5.D.vXrXV O & h g g g g k k l : o k m.<X<Xm.m = ",
"1 g K R R R I I I I K K S ^ v.@XOXy.6 ] kXSX`.h.F.Y.Y.!.!.!.^.!.^.!.!.T.T.Y.H.F.h.D.vXqX7 & 4 f : # * = * : = * = m r.L.N.r.k : ",
"4 g N P P K P P K P K K N P W f.f.Z ; ] jXJXcXF.H.H.W.Q.Q.Q.,XQ.Q.Q.Q.Q.Q.T.H.H.n.6XtXqX7 f Y 0.v 4 4 5 f f 5 g j M I ^ ^ J f : ",
"1 1 4 5 3 f l l l g g f g f g j g ; = G cXNX6XK.H.Y.Q.D.Z.u.u.g.u.u.u.A.D.E.Y.G.W.5X5X{ 6 f E t.K l l v v v v v v l g l l f 4 : ",
"1 : * + @ * : : : = * * = = = = ; o + J .X4X8XK.H.!.W.Z.Q 6 : 2 v j l / D.^.Y.Y.E.8X|.Q 1 = h K n g l l l l l v l j g l l g 3 , ",
", 5 h m v 5 : 1 f k h h h 5 4 4 4 * @ A L.3X,XK.H.!.W.Z.U # o 4 Y E ! g.D.W.Y.T.Q.#X{.w.4 : S q.e.w.w.w.w.w.w.w.w.w.w.s.p.W g 1 ",
"; k t.(.B.^ f f T ~ 8.8.~ L J K N 6 : M XX3X,XK.H.H.W.Z.K : @ b k.L.m.V.E.K.H.Y.Q.#XI.E 4 5 9.P.I.I.I.P.V.C.B.V.C.C.I. XI.s.N , ",
"* N N.<X=Xl.k 5 T q.i.q.q.8.W R I l : M  X4X,XK.H.H.T.n.R 1 = b i.k.j.z.K.T.H.T.8XQ.t.h @ , I s.l.t.t.t.t.t.p.p.t.t.p.l.l.W v 1 ",
"= v M.2X=Xd.k 3 N R W R R I I R I c : M }.3X,XE.K.T.W.n.Y 4 : 3 j f f D n.T.T.^.8XZ.B * o * 4 f g d 6 6 5 5 f 5 5 f f h h f 1 , ",
"* c l.=X=Xi.j 1 N I K N N N K P K k 1 M [.=XK.D.`.bXbXD.W f : 1 4 @ + F `.bXbX6XE.e.M c c c f 1 1 4 1 , , 1 1 4 4 4 4 4 4 , , , ",
"= k l.=X+Xi.h f E 9.I N N N K I K b 1 N B.XXt.{ hXJXHXcX( p - 6 l < d [ VXPXHXrX/ D e.v.N.l.~ L J L L L L L L L L J L T T J f : ",
"= k l.=X*Xi.k k q.a.W N S N K I K c 1 N B.R.7.[ kXLXLXVX( < - 6 l d x _.DXIXLXwXz s h.oXoXB.i.~ ! q.a.j.a.j.a.r.q.T ! k.{.z.N : ",
"* k l.=X*Xp.j k r.a.R K N N K P K c 4 n z.XX7.G kXIXLXVX( p - 2 3 > x S.DXIXJXwXl x 7.c.c.p.R K S R r.a.a.j.a.q.R N N d.-XU.R ; ",
"= k l.=X+Xi.l f ~ q.T K N K K P K n 4 n m.XXy.G kXLXLXnX( a & ; ; & d A.DXIXJXwXB a A 8.~ T K n N P ! q.q.q.8.L n v W x.I.t.n , ",
"= k l.=X*Xs.j 4 K R P K K K P P K n 1 N m.&Xy.G kXLXLXnX( a - ; ; & d A.DXIXJXrXU a m L P P K K S K I R R I P S N ^ l.z.W l 1 1 ",
"= k l.=X*Xa.j , k K P K K K K I K v 1 K P.;Xb.G kXLXPXnX( a > 2 : - v A.DXIXLXrXP x m K P K P P I K I K K K K W w.v.v.W f ; : 1 ",
"= v k.;X*Xd.k 1 n U P K K K K I P v 4 K P.&Xy.G kXIXLXnXu.p > : : & d A.CXIXLXtXP s Z K U K K K K K K K N n S p.|.B.W 4 * ; 1 4 ",
"= b (.2X=Xd.h , v K K K K N J I K n 4 n r.y.m V kXLXIXvX/ > & ; # O & A.CXIXJXwXz > p l v l n n n N N v l 3 g ^ v.w.1 . o = 1 4 ",
": b c.=X*Xd.h 1 n P K K S K K I P N 4 4 h < & ` kXIXLXtXV % % , 2 O % { CXIXLXwX6 O ; 1 4 4 4 5 f 5 5 4 , = : f S g # @ * : , 1 ",
": 5 L M.+Xl.v 4 L R P N N S S P K n , ; 4 x x A.SXIXIXVXV . O N w.Z g { CXIXIXrXg % d c c h f h f < = 1 N P M h f c P ^ W M 4 = ",
": + = R [.k.b h 8.w.I N N N K P P l 1 l r.b.N.5XIXLXPXVXV   O 9.oXb.D _.SXIXIXvXN p D q.r.q.8.i.i.J 4 U |.1X}.k.k.B.-X1X-Xs.k : ",
": : g w.{.d.c k 8.a.! J N N K R ! M 3 I R.;X&X9XPXLXHXeXV + ; 9. Xb.Y A.vXJXIXmXQ D 7.a.i.r.a.m.c.L 4 ! @X2X2X}.}.@X2X2X1XN.m = ",
": g q.XX+Xd.k h 8.j.i.~ K N K ^ q.L k I P.R.m._.VXhX,.` N m m I w.0.D B ] ,.hXeX( A L R W ^ i.m.c.J 4 I @X2X=X}.}.XX*X1X1Xc.v * ",
": M c.<X2Xc.k h 0.c.k.i.9.R I 9.p.T k k Y A d V ] u 8 # m E W P S R A 1 X 8 ' [ z > : f F ! p.m.m.L 5 Q -X2X2X}.{.XX@X=X=XM.b * ",
", k i.+X=Xv.M k q.k.k.j.a.0.R W ^ P f @ o .   . X X   + M 9.^ P K R L < .   X X .   . # n ^ a.m.c.J 5 ! @X2X1XXX}.XX+X=X=Xc.N = ",
", 4 J i.c.q.k f L 8.8.~ 8.T K n N n 6 @               + k L K N n K J 4 X             o l I ! 8.8.J 4 F v.[.N.d.d.d.l.M.m.8.k 1 ",
"1 1 4 k M k 4 1 f k k k k j f 5 5 f 4 , * @ @ @ + + * : 5 g g 5 f g g f : % + @ @ @ @ : 4 g k k k 5 : 4 v F b l k k k b b j 4 1 ",
"4 4 , = : : 1 , : , , : : , 1 4 1 4 5 5 5 5 f f f f 4 4 4 1 4 1 1 4 4 5 f f 5 f f f 5 1 1 1 1 : 1 1 : = * = * * = = = = : : 1 4 "
};
