/* XPM */
static char *radioactive_river1664256485[] = {
/* columns rows colors chars-per-pixel */
"64 64 250 2 ",
"   c #01020B",
".  c #020213",
"X  c #02021C",
"o  c #020C19",
"O  c #04131A",
"+  c #010323",
"@  c #050924",
"#  c #02052B",
"$  c #030B2B",
"%  c #041624",
"&  c #041926",
"*  c #081B25",
"=  c #03122C",
"-  c #041C2D",
";  c #020433",
":  c #040D33",
">  c #030C3A",
",  c #09083A",
"<  c #041434",
"1  c #041E32",
"2  c #081E34",
"3  c #05143C",
"4  c #051D3B",
"5  c #05242A",
"6  c #042234",
"7  c #05253A",
"8  c #05293E",
"9  c #082A38",
"0  c #06353C",
"q  c #063839",
"w  c #03463A",
"e  c #070E44",
"r  c #051946",
"t  c #052443",
"y  c #062B43",
"u  c #082D44",
"i  c #04234A",
"p  c #09254A",
"a  c #062D4A",
"s  c #092C4B",
"d  c #073846",
"f  c #06324C",
"g  c #09334C",
"h  c #093C4C",
"j  c #052B53",
"k  c #092D52",
"l  c #062859",
"z  c #063553",
"x  c #093653",
"c  c #063956",
"v  c #093A55",
"b  c #04335A",
"n  c #09335B",
"m  c #063A5B",
"M  c #093B5B",
"N  c #051A65",
"B  c #072966",
"V  c #063867",
"C  c #0A3D62",
"Z  c #0B3C6B",
"A  c #072C75",
"S  c #063977",
"D  c #094446",
"F  c #104F4B",
"G  c #0A574C",
"H  c #084556",
"J  c #085557",
"K  c #0A6859",
"L  c #057454",
"P  c #0A4164",
"I  c #054468",
"U  c #0B446A",
"Y  c #0B496E",
"T  c #095568",
"R  c #054C74",
"E  c #0B4B73",
"W  c #064679",
"Q  c #0A4E79",
"!  c #06537D",
"~  c #0B527D",
"^  c #0A6564",
"/  c #0C7567",
"(  c #12766C",
")  c #0C7B76",
"_  c #0B8F02",
"`  c #0C9403",
"'  c #089904",
"]  c #0A9A05",
"[  c #0B9C0C",
"{  c #079F11",
"}  c #0D9E12",
"|  c #09A20B",
" . c #0AA214",
".. c #0BA41C",
"X. c #0BAA1D",
"o. c #0BA622",
"O. c #0BA927",
"+. c #07AC29",
"@. c #0BAA29",
"#. c #0CB62D",
"$. c #12BB2B",
"%. c #0BAD32",
"&. c #0BAE37",
"*. c #0AB23B",
"=. c #09B638",
"-. c #0EC23A",
";. c #10C23C",
":. c #03855F",
">. c #0AB947",
",. c #0FBB54",
"<. c #11BB55",
"1. c #14866C",
"2. c #09906F",
"3. c #139A6D",
"4. c #0D8875",
"5. c #149579",
"6. c #01A87A",
"7. c #15A67B",
"8. c #0AB477",
"9. c #0DC543",
"0. c #10CB4C",
"q. c #05C358",
"w. c #10CA54",
"e. c #10D655",
"r. c #03CB65",
"t. c #12C967",
"y. c #13C776",
"u. c #04D678",
"i. c #12DA72",
"p. c #10E979",
"a. c #083B8A",
"s. c #084887",
"d. c #055381",
"f. c #0B5583",
"g. c #0C5985",
"h. c #07588B",
"j. c #0C5A8B",
"k. c #094A95",
"l. c #085797",
"z. c #0B5C93",
"x. c #086593",
"c. c #0D6195",
"v. c #0D6F90",
"b. c #05659C",
"n. c #0C649B",
"m. c #0A699F",
"M. c #0A59A6",
"N. c #0A56AA",
"B. c #0C66A1",
"V. c #056AA4",
"C. c #0B6BA4",
"Z. c #0666A8",
"A. c #0C6DAB",
"S. c #116BA6",
"D. c #0B71AD",
"F. c #1172AA",
"G. c #0C6AB7",
"H. c #136DB3",
"J. c #0A74B3",
"K. c #0A78B6",
"L. c #0C75BA",
"P. c #0B7ABB",
"I. c #1175B2",
"U. c #1178B8",
"Y. c #117BBC",
"T. c #0C7CC3",
"R. c #097DC9",
"E. c #1276C5",
"W. c #117DC3",
"Q. c #098786",
"!. c #129882",
"~. c #0C8290",
"^. c #02A884",
"/. c #14A382",
"(. c #14AB83",
"). c #15AA89",
"_. c #15B786",
"`. c #14B48A",
"'. c #14BC8D",
"]. c #14AC96",
"[. c #05B491",
"{. c #15B996",
"}. c #16BBA7",
"|. c #06A9B1",
" X c #15C68B",
".X c #03DA85",
"XX c #15DA89",
"oX c #01C992",
"OX c #16C998",
"+X c #16D898",
"@X c #02E28A",
"#X c #16E788",
"$X c #02E394",
"%X c #00E798",
"&X c #01E99C",
"*X c #17EA99",
"=X c #13F294",
"-X c #0ACDAF",
";X c #16C8A4",
":X c #18D8A4",
">X c #19D9B6",
",X c #06E8A7",
"<X c #18E8A7",
"1X c #03F4AA",
"2X c #17F5AC",
"3X c #07EBB5",
"4X c #18EAB6",
"5X c #05F9B4",
"6X c #01FCBC",
"7X c #17F6B9",
"8X c #1CFBBC",
"9X c #21F2B2",
"0X c #0B82C4",
"qX c #0B85CB",
"wX c #0C89CE",
"eX c #1284C9",
"rX c #079AC3",
"tX c #169BC7",
"yX c #0C8BD3",
"uX c #0B89D8",
"iX c #128BD4",
"pX c #0C92D9",
"aX c #1494DD",
"sX c #1699DD",
"dX c #0CADCE",
"fX c #0D94E3",
"gX c #0E99E5",
"hX c #0F95EA",
"jX c #0D9DEC",
"kX c #1497E6",
"lX c #149CEC",
"zX c #0CAAEC",
"xX c #0DA6F6",
"cX c #13A4F4",
"vX c #15A6F9",
"bX c #17B5FF",
"nX c #0FEBC9",
"mX c #02FCC4",
"MX c #0AFAC6",
"NX c #01FECC",
"BX c #1CFBC2",
"VX c #19FAC8",
"CX c #04FFD3",
"ZX c #08FDD5",
"AX c #01FFDB",
"SX c #18F1D7",
"DX c #1CFDD8",
"FX c #06D3F1",
"GX c #04FCE7",
"HX c #1EF8E4",
/* pixels */
"7 7 7 7 6 6 6 6 6 1 1 6 6 6 6 6 2 6 6 1 6 6 1 6 7 6 1 & * & & & & % % % % & % % O & 6 1 6 1 1 - 1 & 6 - 6 6 6 6 6 6 1 - - 1 6 7 ",
"8 8 7 6 & 6 M P f 8 y u a y 7 8 u u u y 8 y u u y 8 6 y v U M c f f z f z f f f a v H c 6 6 y f f a a f f a 8 8 8 7 8 g m c 8 6 ",
"7 7 1 & & M n.B.U x v P C z 8 y M C C M M m M P P y 6 M F.eXY.S.m.m.m.m.V.B.V.x.x.0XeXc.u 1 m ! ! ! ! ! ! R P M M x v g.D.z.z & ",
"7 6 & & x n.U.S.Q P P E E c 8 y P Y Y U U U U Q Q g 6 I iXvXlXiXwXwXwXyXwXyXyX0X0XlXcXI.u - I b.b.b.b.b.h.~ E U I M P m.uXL.C & ",
"6 & & c A.W.B.E P P U E Y m 8 y P Y Y U U U U E E p - m P.jXkXiXqXqXqXqXqXwXqXP.0XfXcXI.y - I b.b.b.b.j.R Y P U U M C c.uXJ.V & ",
"6 6 M n.T.A.Q v M C U Y U x 8 y P Y Y U P P Z Z B 3 = z Z.uXiXeX0X0X0X0X0X0X0XP.P.pXlXS.8 7 d.A.h.d.d.! Y P P U U x v d.R.J.m & ",
"6 c n.I.B.E M x M M P U P x 7 t M U P C H C C Z U u - f V.uXyX0XP.P.P.T.P.T.P.J.J.yXlXm.8 y z.A.! P I P C M M M M g M j.R.Z.c % ",
"5 C z.j.M u 8 g g g g v v u 6 6 g v v x g p s ) `.:.9 i l.qXqXU.K.K.J.J.L.L.G.Z.C.iXkXS.t 1 E g.M y u g x g x g y g E A.qXV.z & ",
"- u M M s 8 u s g a g x x u - 6 g M v x k r g /.6X.Xw i l.qXeX0XK.K.K.K.P.P.L.A.Z.uXkXF.8 O 8 M g u u g x M x u u M B.iXuXB.j % ",
"- y E j.j.g.g.j.j.g.j.n.c.U 8 g ~ j.Q S Z B S |.GX,XG j G.lXlXaXyXwXqXqXeXpXrXrXpXvXcXI.y & M j.j.f.f.f.~ f.~ E E c.uXvXcXG.c & ",
"1 m n.W.W.W.Y.Y.U.L.Y.eXqXj.g n M.E.G.H.N.N.H.sXzX~.D V L.vXvXlXlXlXjXlXhXdX3XnXsXvXkXS.8 4 f.P.W.Y.U.U.Y.E.U.J.H.E.iXlXfXA.c - ",
"6 x j.C.A.n.n.z.j.j.z.A.D.~ y e A N.tXtXtXtXtXE.a.B < 8 g.J.I.F.I.W.E.E.Y.|.[.[.~.H.M.Z $ < Z b.B.n.n.B.A.A.H.Z.l.k.z.S.n.! a 1 ",
"6 8 a f f a y 8 8 y y z g t $ X @ H ].>X>X4X>XQ.r + X % 6 y 8 7 u u y s x d w D h s i 1 = % 4 t u u u y f a s p p t t u s u 7 6 ",
"6 6 6 - & % & 7 f m b 4 o     . 5 L  X2X7X8X7X_.J 5 % 1 i i r r a 6 o & a a = % 7 t t J / K D 6 - t c P C 7 % w L L q < - 1 6 6 ",
"6 8 f g g u u U n.J.Z.V = . . 9 1. X1X6X6X5X7X2X+X1.7 r s.M.Z.M.Z.V 8 a h.s.r < b S W Q.oXoXv.V V W B.L.G.A 4 L .XoXT s j a 8 6 ",
"6 y C E U C U g.J.L.Z.x.^ F F 1.:XMXNX5Xu.r.i.7XHX{.y e a.dXFXFXqXk.V V S A > ; r N B T 6.^.v.h.l.h.k.N.k.N ; d 2.2.H B Z P f 6 ",
"6 y M E Y C P E ~ Z k ^ '.:X+XOX5XCXNX$X%.' ..#XDX}.g + l |.NX3Xv.Z B i > + X . + @ + X $ y C s.d.V 3 ; ; + X X @ $ : r U U g 7 ",
"6 8 x M m x v P C 3 + D +X8X8XMXNXNX,Xq. ._ ' -.i.OX( r < J 6.2.s , e s h H J H H v h g g u r e > 4 0 q q d d 8 7 9 d H C j t 7 ",
"- 8 M U P C P P n 3 @ F '.BXVXCXNX%Xq.@. . . . .O.w. X4.p = 0 q < # 3 H !.OX;X{.{.{.OXOX{.) s # X d 5.'._._.`.)./.'.'.5.h < < 6 ",
"- f ~ C.B.S.n.W k 7 D ( '.9XZX6X$Xq.O.} ..o.+. . .#.i.OXv.P P T T Y T 4.y.#X#X#X#XXX#X=X#X8.( M H v.>X2X#X#X<X2X2XBXBX'.D X $ 6 ",
"6 b V.uXuXpXR.a.3 0 2.OX:X4X6X$X>.......o.@.O.o...X.$.t.:X}.}.}.;X;X;X8.9.-.-.-.=.;.;.-.-.w. X;X}.>X4XXX9.9.XX4X2XBX8X_.d + $ 6 ",
"- a d.Z.L.L.M.l X q '.8XBX3X$Xq. .[ ..O.@.O.O.O.o... .=.i.2X*X*X*X2X*Xt.+.' |  .o. .| | | #.i.<X<X<XXX>. .O.y.4X4X<X'.) h 4 < 6 ",
"& 7 f c c m b ; . q OXVXMX$Xq.X.[ } o.O.O.O.O.O.O.o...X.9.w.w.0.0.w.w.;.X. .{ ...... .}  .o.*.0.0.w.*.o.' @. X8XBX'.^ h k a t 6 ",
"& a P f % 6 c e X 0 ).MXNX.XO.` } ..O.O.O.O.O.O.O.O.O.o.o... ... .} ..X.o.O.O.O.O.O.O.O.O.o.o.o. .X. .' [ &.XXDXDX Xq # l M g 6 ",
"& R Y.c.y x j.S e 9 (.MXNXu.+.` } o.@.@.O.O.O.O.O.O.O.O.o.......o.......O.@.@.@.@.@.@.@.@.O...} .... .{  .&.XXDXDX Xq $ j M a 6 ",
"& g.sXeXv v h.a.e 9 (.VX6X$Xq.@...o.o.O.O.O.O.O.O.O.O.O.O.O.o.o.O.o.O.O.O.O.O.O.O.O.O.O.O.O.O.O.O.@...[ ' *.XX4X:X4.H j Z I f 6 ",
"* ~ aXeXM 8 V l > 0 (.<X4X3X,Xr.@.} o.O.O.O.O.O.O.O.O.O.O.@.O.O.O.O.O.O.O.O.O.O.O.O.O.@.O.O.O.O.O.O... . .9.#X).F u I l.h.W y 1 ",
"& E iX0Xx - t e # 0 `.<X4XnXmX.X%.} ..O.O.O.O.O.O.O.O.O.O.O.O.O.O.O.O.O.@.O.O.O.O.O.O.O.O.O.O.O.@.o...+.9.p.<X1.@ ; S M.M.W p - ",
"& ~ aX0Xv 5 7 > # 8 (.2X5XNXmX.X@.} o.o.O.O.O.O.O.O.O.O.O.O.@.O.O.@.O.O.O.O.O.O.O.O.O.O.O.O.O.O.O.....=.@XmX7X1.o # S Z.Z.s.y = ",
"& f.kXiXH 5 4 ; X 6 /.2X6XmX6X.X@.} o.o.O.O.O.O.O.O.@.O.O.O.O.O.O.O.O.O.O.O.O.O.O.@.O.O.O.O.O.O.O...[ >.<XGXMX3.& ; s.rX|.~.c - ",
"- ~ aXiXC & % + X d (.2X5XmX6X.X@...o.O.O.O.O.O.O.O.O.O.O.O.O.O.O.O.O.O.O.O.@.O.O.O.O.O.O.O.O.O.O...{ &.:XZXMX6.5 ; S |.3XoXK - ",
"7 P c.c.x X X 9 ^ /.OX<X5XmX6Xu.@.} o.o.O.O.O.O.O.O.O.O.O.@.O.O.O.O.@.O.O.O.O.O.O.O.O.@.O.O.O.O.O.o.} %.XXZXNX6.6 X 4 / 6.6.G 1 ",
"6 7 y y 1 X O / <X9X<X,X1XmXmX.X%.} ..O.O.O.O.O.O.O.O.O.O.@.O.O.O.O.O.O.O.O.@.O.O.O.O.@.O.O.O.@.O.X.} %.%XAXNX^.7 .   O 5 5 9 5 ",
"6 - - 6 7 < 8 T '.<X<X<X,XNXNX.X%.} ..O.O.O.O.O.@.O.O.O.O.O.O.O.O.@.O.O.O.O.O.O.O.O.O.O.O.O.O.@.O.o.} *.&XAXNX6.5 X , N p r 2 2 ",
"6 8 g v M M n t d / OX2X4XnX6X.X@.} ..O.O.O.O.O.O.O.@.O.O.O.O.O.O.O.O.@.O.O.O.O.@.O.O.O.O.O.@.@.o.o.} *.&XAXNX2.% , s.R.G.k.s * ",
"6 y C U Y Q Z ;   0 '.BX4X+Xu.q.@...o.O.@.O.O.O.O.O.O.O.O.O.@.O.O.O.O.O.O.@.O.O.O.O.O.O.O.O.O.@.O...} *.&XAXmX:.X t |.FXxXG.n & ",
"6 y P E Y E U , X q '.BX9X X>.X.o.o.O.O.O.O.O.O.O.O.@.O.O.O.O.O.o.@.@.o.O.O.O.@.O.O.O.O.O.O.O.@.O...} =.&XZX7X/ X d -XGXFXN.b = ",
"6 a P E Q Q Y l r d 4.;X>XXX<.o.....O.O.@.O.O.O.O.O.O.O.O.@.O.O.@.@.@.O.O.O.O.O.O.O.O.@.O.O.O.@.O.} ' %.%XZX7X( @ 0 ^.-XrXk.i 1 ",
"7 u M U U U U C n p g ( :X2XXX,... ...O.O.O.O.O.O.O.O.O.O.O.O.O.@.@.O.O.@.O.O.O.O.O.O.O.O.@.O.O.o.} [ &.%XZX7X1.@ % J ) g.V t 1 ",
"6 6 7 8 8 y g M x : o G :XHXVXy. .'  .O.O.O.O.O.O.@.O.O.O.O.O.O.O.O.O.O.O.O.O.O.@.O.O.O.O.@.O.o.....*.u.1XNXBX3.O   < s x u 6 1 ",
"6 - % o O % - 6 1 X o G :XDXBXy. .' } O.O.O.O.O.O.O.O.O.O.O.O.@.O.O.@.o.O.@.o.@.O.O.O.O.@.@.o.} { %.u.1XmXMX7X3.O   , s x s 9 2 ",
"1 8 f v c 8 - 6 y i i H 4.OX>X X>.+.o.o.O.O.O.O.O.O.O.@.O.O.O.O.O.O.@.@.O.O.@.@.O.O.@.O.@.@.o.} } >.&XAXZX5XXX) M V s.n.n.E u - ",
"& g z.0XP.~ y y R h.S l i K ].BX4Xt.%.o.o.O.O.O.O.O.O.O.O.O.O.O.O.O.@.O.O.O.@.o.O.O.O.O.@.@...} [ *.%XZXMX_.K T l.H.W.eXeXn.M 6 ",
"& m K.xXjXV.h g d.k.A l f / {.HXHX:X>.} ..O.O.O.@.O.O.O.O.@.O.O.@.O.O.O.O.@.@.@.@.O.O.O.@.@.o.[ ' @.@XnX{.G * r s.S.A.A.B.~ f 6 ",
"% c J.xXzXC.f t C B r H !.+X>XSXSX:X>. ...O.O.O.O.O.@.O.O.O.O.O.o.@.@.O.O.O.O.O.o.@.@.O.@.O.o.[ [ $.#X}.J @ X + 7 f f a a u 6 6 ",
"% h C.jXgXV.f @ , 3 h !.>X8X*X+XOXy.*.....O.@.O.O.O.O.O.O.O.O.O.@.@.@.@.O.O.O.O.@.@.@.@.O.o.o.X.+.r.*X!.7 + : u u 7 7 6 6 6 - 1 ",
"% f C.jXfXV.t . X 8 4.>XBX*Xt.&.>.&.@.o.o.O.O.O.O.O.O.O.O.@.O.O.O.O.O.o.O.@.@.O.O.O.O.o.o.o...%.r.5X4X5.5 # b d.R I I R R C u - ",
"& f C.jXgXl.t & d !.>X8X+X<.@.[ } ..O.O.@.O.O.O.O.O.@.@.O.@.@.O.O.O.O.@.@.o.@.O.O.O.O.@.o.} ` %.%XAXVX3.9 e s.V.h.R ! D.qXD.m - ",
"% f V.jXfXk.r G _.BXBX+X>. .[ ....o.O.@.O.O.O.O.O.O.O.O.O.O.O.O.O.O.O.O.O.O.@.O.O.O.O.O.@.} ' %.1XAX4X5.9 3 W z.R c P S.lXW.E - ",
"& f C.jXfXk.r K <XBX=X;.[ ` '  . . .o.@.@.O.O.O.O.O.o.} ....o.O.@.@.O.O.O.O.O.O.O.O.O.o.o.} +.r.1XCX7X7.q , B Y v x Q A.W.c.x 2 ",
"& f C.jXfXs.r ^ 4X2Xe.X.| [ | ..o.......o.O.o.o.o...} } ......o.o.O.O.O.O.O.O.O.O.O.O.} } @.r.1X6XMX3X5.d : k P P ~ S.C.R s 6 6 ",
"& z C.jXpXs.r ^ 4X2Xp.e.0.0.w.,.<.*...[ { } } [ [ ..*.,.>.&...[ [ ..O.O.O.@.O.O.O.O.o.[ ` &.@XCXmX,X'.( h t n f.n.I.A.~ u & 2 6 ",
"& f D.jXfXk.r K <X8X2X*X*X<X<X:X>Xt.@.' '  .[ ` _ @..X3X3Xu.+.' ' { o.o.+.o.O.O.@.@...[ ' *.%XCXVX'.J g g k C B.eXW.R 9 & - 6 6 ",
"& M P.xXfXl.t w 3.'.{.).].;XBXHXDX<X<.%.=.*.=.%.%.r.1XGXAX&Xr.>.>.%...{  ...o.@.@.O...o.%.u.1XMX8X7.9 @ < 7 s Q I.j.6   o * 6 7 ",
"& c D.zXjXb.a & q G H g h ) ;XVXBX4X+XXX@X%X$X.X.X%X3XNXmX3X%X&X1Xu.=.|  .X.o.o.O.} ..>.u.,X6XMXBX(.9 X @ 2 * y M u % o & & 6 6 ",
"6 7 I K.pXA.z = i r < # # d / 1.1._.4XVXZXNXMX3X3X,X1X,X,X,X3XZXZX6Xp.w.0.-.+.[ [ ` ` o.r.@X5XZXDX XD 3 Z Y P a y x Y ~ R m 7 & ",
"- O & R 0XD.m a W s.V j k p 1 . . G :XDXBX8X<X:X:X<X,X,X+X+X:X8XVXBX8XBX8Xi.%.' ' ' ' '  .>.=XAXDX XD V W.kXwXV.C.P.aXcXkXB.a - ",
"- & y h.0Xm.c f h.b.d.Y C s > + # z 4.(.7._.:X9X9X2X5X5X2X9X9X:X'.(.].}.}.'.e.9.;.0.-.$.-.e.1XnX+XK 9 W aXbXxXqXqXaXcXbXcXL.c % ",
"- a h.yXpXC.f f h.V.b.h.Y M k B S V h 0 d /  X2X4X2X2X2X4X7X2X(.J u u x M (  X=X=X*X#X#Xp.=X2XOX^ * o E aXbXjXqXqXyXgXxXjXJ.c % ",
"- m J.xXxXD.z a h.V.V.b.g.R E j.z.R r > B ~ 5./.(././.!.7.`._.) s , > > e M 4.}.}.].].].].'.`.) U : % ~ sXbXcXyXyXyXpXjXjXJ.c % ",
"6 f x.pXjXJ.c a h.V.Z.V.b.f.Q ~ ~ M t B N.A.E q 0 d d d d d D v V n B l l b x H H v H v H h D R l.B 8 Q sXbXjXyXyXwXpXjXjXJ.c - ",
"- 7 m b.D.h.a y I d.d.! d.R P M M u 7 Y H.l.j + + + @ # # $ $ 4 x P P P C k 3 @ # # # $ + + # b ~ I y M F.0XK.m.m.m.V.J.J.d.f 6 ",
"6 6 8 f m f 7 6 y f f f f f y y 8 6 6 f U n 4 $ $ : < $ $ $ $ 4 t g f f g 8 < $ $ = = $ $ $ % 4 f f 6 7 x M c f f f x c x a 7 6 ",
"8 6 - - & 6 1 - 5 6 - - - 1 6 6 6 6 6 6 6 6 1 6 6 1 7 7 7 1 7 1 6 6 6 7 6 7 6 6 6 4 7 7 7 6 4 1 6 6 6 & & & % % & % & * & - 6 7 "
};
