/* XPM */
static char *result[] = {
/* columns rows colors chars-per-pixel */
"64 64 157 2 ",
"   c #100500",
".  c #110600",
"X  c #120600",
"o  c #120700",
"O  c #130700",
"+  c #130800",
"@  c #140800",
"#  c #150800",
"$  c #140900",
"%  c #150900",
"&  c #140801",
"*  c #150801",
"=  c #150901",
"-  c #160900",
";  c #170900",
":  c #160901",
">  c #170901",
",  c #160A01",
"<  c #170A01",
"1  c #170B01",
"2  c #170A02",
"3  c #180A01",
"4  c #190A01",
"5  c #180B01",
"6  c #190B01",
"7  c #180A02",
"8  c #190A02",
"9  c #180B02",
"0  c #190B02",
"q  c #1A0B02",
"w  c #1A0B03",
"e  c #190C02",
"r  c #190C03",
"t  c #1A0C02",
"y  c #1B0C02",
"u  c #1A0D02",
"i  c #1B0D02",
"p  c #1A0C03",
"a  c #1B0C03",
"s  c #1A0D03",
"d  c #1B0D03",
"f  c #1C0D02",
"g  c #1C0C03",
"h  c #1C0D03",
"j  c #1D0D03",
"k  c #1C0E03",
"l  c #1D0E03",
"z  c #1C0C04",
"x  c #1C0D04",
"c  c #1D0D04",
"v  c #1E0D04",
"b  c #1E0D05",
"n  c #1C0E04",
"m  c #1D0E04",
"M  c #1D0E05",
"N  c #1E0E04",
"B  c #1F0E04",
"V  c #1E0E05",
"C  c #1F0E05",
"Z  c #1E0F05",
"A  c #1F0F05",
"S  c #1F0F06",
"D  c #200E05",
"F  c #200F05",
"G  c #210F05",
"H  c #200F06",
"J  c #210F06",
"K  c #201004",
"L  c #211005",
"P  c #211105",
"I  c #221105",
"U  c #201006",
"Y  c #211006",
"T  c #211106",
"R  c #221006",
"E  c #221106",
"W  c #231106",
"Q  c #221007",
"!  c #231007",
"~  c #221107",
"^  c #231107",
"/  c #231206",
"(  c #241107",
")  c #241206",
"_  c #251206",
"`  c #241306",
"'  c #241207",
"]  c #251207",
"[  c #241307",
"{  c #251307",
"}  c #261307",
"|  c #261407",
" . c #241108",
".. c #241208",
"X. c #251208",
"o. c #251308",
"O. c #261208",
"+. c #261308",
"@. c #271308",
"#. c #261309",
"$. c #271309",
"%. c #261408",
"&. c #271408",
"*. c #271508",
"=. c #261409",
"-. c #271409",
";. c #281408",
":. c #281508",
">. c #291508",
",. c #281409",
"<. c #291409",
"1. c #281509",
"2. c #291509",
"3. c #2A1508",
"4. c #2A1509",
"5. c #291608",
"6. c #291609",
"7. c #2A1609",
"8. c #2B1609",
"9. c #2B1709",
"0. c #29150A",
"q. c #2A150A",
"w. c #2A160A",
"e. c #2B160A",
"r. c #2B170A",
"t. c #2C160A",
"y. c #2C170A",
"u. c #2D170A",
"i. c #2C170B",
"p. c #2D170B",
"a. c #2E170B",
"s. c #2D180A",
"d. c #2C180B",
"f. c #2D180B",
"g. c #2E180A",
"h. c #2E180B",
"j. c #2F180B",
"k. c #2E190B",
"l. c #2F190B",
"z. c #2E180C",
"x. c #2F180C",
"c. c #2F190C",
"v. c #30190B",
"b. c #301A0B",
"n. c #311A0B",
"m. c #30190C",
"M. c #301A0C",
"N. c #311A0C",
"B. c #311B0C",
"V. c #311B0D",
"C. c #321A0C",
"Z. c #331B0C",
"A. c #321B0D",
"S. c #331B0D",
"D. c #331C0D",
"F. c #341C0D",
"G. c #341C0E",
/* pixels */
", , - % % % % @ @ @ # % % % % % % - - : - - % # @ @ @ @ @ @ @ @ @ @ @ @ @ @ @ @ @ @ @ @ @ @ @ @ @ @ @ @ @ @ @ @ @ @ @ % - : , < ",
"0 0 9 9 a a a a a a a a a p 0 9 9 0 0 < - < a d a a a a a a a a a a a a a a a a a a a a a a a a a a a a a a a a a a a a h t < < ",
"C V A L ] &.&.&.&.&.&.&.} _ R F C F A p % 0 / 1.;.&.&.&.&.&.&.&.&.&.&.&.&.&.&.&.&.&.&.&.&.&.&.&.&.&.&.&.&.&.&.&.&.&.&.;.;.E t : ",
"( ( +.4.y.h.h.h.h.h.h.h.g.y.2.@.+.,.-.N % p :.m.v.h.h.h.h.h.h.h.h.h.h.h.h.h.h.h.h.h.h.h.h.h.h.h.h.h.h.h.h.h.h.h.h.h.j.n.b.;.d % ",
"( +.6.y.s.g.h.h.h.g.g.g.g.u.y.e.e.f.p.E : 0 &.v.l.g.s.s.s.s.s.s.s.s.s.s.s.s.s.s.s.s.s.s.s.g.g.g.g.g.g.h.g.g.g.h.h.g.j.n.b.;.d % ",
"^ %.r.f.s.s.s.g.s.s.u.y.y.u.s.s.s.l.l.) : 3 +.h.f.y.r.y.y.y.y.y.y.y.y.y.y.y.y.y.y.y.r.r.y.y.y.s.h.h.h.k.g.g.h.h.h.h.l.l.y.{ a % ",
"( @.8.u.u.u.s.s.s.s.f.h.h.h.h.h.h.N.b.[ < 8 +.m.l.h.s.f.f.f.f.f.f.f.f.s.f.f.f.f.s.s.s.s.f.h.h.k.l.h.h.h.h.h.h.h.h.h.k.p.<.R r % ",
"X.+.<.q.e.e.e.e.e.u.j.m.m.M.N.M.M.D.A.+.3 t 2.S.A.N.M.M.M.M.N.N.N.N.N.N.N.N.N.N.N.N.N.N.N.M.M.M.l.l.f.y.i.i.i.y.y.i.p.e.$.H r : ",
"X.X.X.+.+.$.$.#.#.4.h.l.l.l.M.m.N.F.A.&.0 a 2.F.S.M.M.m.m.m.m.m.m.N.N.V.N.m.N.N.A.A.A.A.V.M.m.l.h.f.e.,.-.-.=.=.=.=.-.,.#.Y p < ",
"C C N N N B N N N L [ ;.2.6.>.>.:.7.:.F 3 0 I 7.6.7.2.7.6.2.1.,.,.&.&.%.&.1.&.&.+.+.{ { { +.&.&.;.o.Y M x x c c c c v C C h 5 - ",
"0 0 0 0 0 0 9 9 9 0 q y h h h d a h a 0 < < 0 h h h d h d a y q q q q 0 q q q q 6 6 5 5 5 8 0 0 a 7 : = = = : > < < < 9 0 3 < < ",
"3 3 3 < < < < < < < < , % % % % % % : , , : : % % % % $ + @ : > : : : : : : : : = < 0 t 0 7 7 2 = 2 0 e d d h l l k p q t a a a ",
"< < < < < < < < < < < , , , , , , = , , < < , = = = = $ @ 2 x C C b b b b V V b b Y { &.&.%.&.&.+.&.;.:.2.2.2.7.7.&.^ J U Y Y Y ",
"< < < < < < < < < < < < < < < < < < < < < < < < < < < % % p W ,.,.@.@.@.@.&.&.@.@.4.u.j.c.m.m.m.m.m.m.m.m.m.m.M.h.w.$.X.........",
"< < < < < < < < < < < < < < < < < < < < < < < < < < < % % l &.p.p.i.y.y.y.y.y.r.r.p.h.k.h.j.l.l.l.l.l.l.l.l.l.s.2.&.X...( ( ( ( ",
"< < < < < < < < < < < < < < < < < < < < < < < < < < , $ $ l 7.v.l.s.s.s.s.s.s.u.u.y.y.y.r.r.r.y.y.y.s.s.s.y.2.+.^ Q Q ~ ^ ^ ^ ^ ",
"< < < < < < < < < < < < < < < < < < < < < < < < < < , $ $ l 5.l.k.s.y.y.y.y.y.y.y.y.y.r.r.r.r.y.y.y.s.s.u.7.@.^ ~ Q Q ~ ~ ~ ^ ^ ",
"< < < < < < < < < < < < < < < < < < < < < < < < < 3 < % = x &.c.N.M.m.l.l.l.l.l.l.l.l.l.l.l.l.l.l.h.i.e.w.1.O.^ ( ( ( ( ( ^ ^ ^ ",
"< < < < < < < < < < < < , , , , , , , , , , , , , , : % % 0 Y q.a.j.h.h.h.h.h.h.h.h.h.h.h.h.k.l.k.r.,.+.o.' ^ ~ ^ ^ ^ ^ ^ ^ ^ ^ ",
"< < < < < < < < < , , , : - % % $ $ $ @ @ @ @ @ @ @ @ + O * 0 m L E E P P P P P P T E E W ) { &.%.( G C C V Z V V V N N V V Z A ",
"< < < < < < < < , < < < < : = % @ @ @ @ @ @ @ @ @ @ + + O + O @ = : : = = = = = : : : , < 3 0 t t q 0 0 0 0 0 0 0 0 5 5 9 9 9 0 ",
"t t t t q 0 < < 9 0 0 9 9 0 t a h h h h h h h h h h h h h a t 9 7 3 3 3 3 3 7 9 0 0 q p t 5 % + @ # % - - - , 9 t y q 0 0 1 % # ",
"F A F F D x 0 0 c C C N C Y [ &.:.:.:.>.>.>.>.>.>.>.>.>.>.>.:.&.} { { { { } +.%.&.| &.:.:.P 0 @ @ % - : < : < p M F F F B h 5 - ",
"^ ~ ^ ( ( C 0 a ] 1.,.@.-.q.f.h.f.f.f.h.h.h.h.h.h.h.h.h.h.h.l.M.M.M.B.B.B.B.N.l.f.y.u.h.f.%.h : : < < < 3 < < 0 x J ( X.( Y N h ",
"^ ^ ^ ] ' C 9 h 2.h.f.y.y.u.f.f.s.s.s.s.s.s.s.s.s.s.s.s.f.h.h.h.M.M.N.N.N.N.M.y.,.o.+.$.@.R p : , < < < < < < - , x ~ X.( ^ R Y ",
"^ ^ ^ ( ^ V 9 h 7.M.k.s.s.h.h.f.f.h.h.h.h.f.f.f.f.h.h.h.f.f.s.y.q.2.2.2.2.q.2.+.Q H J Q Q A 0 : , < < < < < < % % 5 n U ^ ..X.X.",
"^ ^ ^ ( ^ C 9 h 7.N.c.h.h.f.h.f.h.h.h.h.h.h.h.h.h.h.h.h.f.f.y.w.@.X.X.X.X.+.X.( ^ Q !  .( F e , , < < < < < < : - , e N R ....( ",
"^ ^ ^ X...A 9 l y.Z.N.v.v.l.l.l.l.l.l.l.l.l.l.l.l.l.l.k.l.l.l.y.4.,.,.<.,.,.,.<.4.4.7.0.+.J p < < < < < < < < < < 3 d A ^ ' Y A ",
"^ ^ ^ ( ( V 0 N 9.C.M.l.v.l.l.l.l.l.l.l.l.l.l.l.l.l.l.l.v.v.v.v.h.h.h.h.h.h.z.x.l.m.c.i.$.H p < < < < < 3 3 < < < p A ^ ( Y j 0 ",
"F A A F A x 3 d { 1.1.&.&.&.&.&.&.&.&.&.&.&.&.&.&.&.&.&.&.&.&.:.:.>.>.>.2.2.2.2.>.6.6.&.W M 0 < < < < < < < < , < q C Y J m 0 - ",
"t t t t t 6 < 3 p d d a p p p p p p p p p p p p p p p p p p p d d d d h h d d d d d d a 0 2 ; % % - : : , , : % % > 9 r 0 5 - % ",
"< < < < < < < < : - - - - % % % % - % % % % % % % % - - % % % - - % % @ + o .           . . o o O + + @ @ @ + + o o o o o + @ % ",
"< < < < < < < < , : - - - - - - - - - - - - - - - - - - - - - - - - % % @ O .           . . o o @ @ @ @ @ @ O o o X X X O + @ @ ",
"< < < < < < < < < < < < < < < < < < < < < < < < < < < < < < < < < < < : - 3 t d i u u u u s t t t t t t e e t u d d d d h d a r ",
"< < < < < < < < < < < < < < < < < < < < < < < < < < < < < < < < < < < = = f ` 7.2.:.:.:.:.:.;.;.&.&.&.&.&.&.;.:.:.:.:.>.&.} W Y ",
"< < < < < < < < < < < < < < < < < < < < < < < < < < < < < < < < < < < % $ l 7.M.m.l.l.l.h.h.h.h.h.h.h.h.h.h.h.h.h.h.h.h.r.2.+.' ",
"< < < < < < < < < < < < < < < < < < < < < < < < < < < < < < < < < < , @ + h 3.v.l.h.h.h.s.s.s.s.s.s.s.s.s.g.g.g.g.h.h.r.&.] ( ( ",
"< < < < < < < < < < < < < < < < < < < < < < < < < < < < < < < < < < % O O h :.h.f.y.r.y.r.r.r.y.y.y.y.y.y.y.y.y.u.h.p.2.( Y Q ^ ",
"< < < < < < < < < < < < < < < < < < < < < < < < < < < < < < < < < < < & + h 2.m.l.h.s.s.s.s.s.s.s.f.f.f.f.h.h.f.s.f.d.6.] Q ^ ^ ",
"< < < < < < < < < < < < < < < < < < < < < < < < < < < < < < < < , 0 a r % l y.D.S.C.N.N.N.N.N.N.N.N.N.N.N.N.N.j.i.y.y.q.@.X.X.X.",
"< < < < < < < < < < < < < < < < < < < < < < < < < < < < < < < , - d A c < N r.G.D.A.V.V.A.A.A.A.A.N.N.m.m.M.N.f.0.-.-.-.+.X.X.X.",
"< < < < < < < < < < < < < < < < < , , , , , , , , , , , , : % @ @ 9 z w : < K &.+.{ { { { { { } +.&.&.,.;.1.&./ A N N B C F G G ",
"< < < < < < < < < < < < , < < : % % @ % % % % % % % % % @ @ @ + + - 2 : % % < e 5 5 5 5 5 6 5 5 5 0 q q q q q 5 < , , 2 9 0 0 0 ",
"q q q q q q q q q q 0 q q 9 - < t d d t t t t t t t t t t d d d d d d d h d y t t t t t t t e 0 > : : : : : > < < < < 7 0 3 : - ",
"H H H H H H H H H F A H H x 9 k } 6.2.:.:.:.:.:.:.:.:.:.:.2.2.2.2.2.>.>.2.2.:.&.&.:.:.*.*.:.%.' H V V C b V V V C A A F F c 7 % ",
"^ ^ ^ ^ ^ ^ ^ ^ ^ ^ ^ ..' C 0 N y.N.m.c.c.c.c.c.c.c.c.c.c.c.c.c.c.c.c.c.m.m.m.m.m.m.m.m.m.m.j.y.2.-.&.-.@.@.@.&.&.&.&.<.,.W p - ",
"^ ^ ^ ^ ^ ^ ^ ^ ^ ^ ^ ] ' A 9 h 8.N.M.l.l.v.l.l.l.l.l.l.k.l.h.h.h.l.l.l.l.l.l.l.l.l.l.l.l.l.l.h.f.y.y.y.y.y.y.y.y.r.i.a.p.%.a % ",
"~ ~ ~ ~ ~ ~ ~ ~ ~ ~ ~ ( ^ C 9 h 7.M.l.h.h.h.h.h.s.s.s.s.y.y.y.y.y.y.y.y.y.y.y.y.y.y.y.r.r.r.y.y.y.u.s.s.s.s.s.s.s.u.g.v.l.&.a % ",
"~ ~ ~ ~ ~ ~ ~ ~ ~ Q ^ ( ^ A 9 i 8.N.c.h.s.s.s.s.g.h.s.s.y.y.y.y.y.r.r.r.r.r.r.r.r.r.r.r.r.r.r.y.y.y.y.y.y.y.y.y.y.y.g.v.l.&.a % ",
"( ( ( ( ( ( ( ' ' ( ..O.X.H r h ,.z.p.t.e.e.e.e.e.e.e.u.h.h.h.h.l.h.h.h.h.h.h.h.h.h.h.l.l.l.l.l.l.l.l.l.l.l.l.l.l.l.l.N.N.1.d % ",
"^ ^ ^ ^ ^ ^ ^ ^ ^ ^ ^ ( ( S p p W $.$.O.O.O.O.+.+.+.@.2.y.h.h.h.h.h.h.h.k.k.k.k.k.k.k.h.h.h.h.h.h.h.h.h.h.h.h.h.h.h.h.l.l.@.h - ",
"A A V V V V V V V V V C C x 3 3 a N N c c c c N C V C G ( } } { } +.+.} } { ` ) ) ) ) ) ) ) ` { { } } } } } } } } } } +.} L t , ",
"q q 0 0 9 9 9 9 9 9 9 0 9 3 < , - < < < < < < 3 7 7 7 7 0 p p p p p t e e 0 6 5 5 5 5 5 5 5 6 0 e e e t t t t t t t t p y e 3 < ",
"< < 0 q q q q q q q q q q t t 0 0 0 6 6 6 0 0 < - % % % # # # # # # # @ @ = < 7 7 7 7 9 7 9 3 , @ @ @ # # # # # # # # % - - , < ",
"< 0 x C F F F F F F F F G G G G G F F F F F C d 3 % % - % % % % % - % % = 9 x C C D F F F F B a , % % - - - - - - - - - : , < < ",
"< p H ^ ^ ^ ^ ^ ^ ^ ^ ^ ^ ( ^ ^ ^ ^ ( ( ..X.' A 0 , , < < < < < < < < < 9 p m F F F H H H U F c 0 < < < < < < < < < < < < < < < ",
"< p H ^ ^ ^ ^ ^ ^ ^ ^ ^ ^ ^ ^ ^ ^ ^ ^ ^ ..X.' A 0 : < 3 < < < < < < < < < 5 9 9 0 0 0 0 0 0 0 0 3 < < < < < < < < < < < < < < < ",
"< t A ^ ^ ^ ^ ^ ^ ^ ^ ^ ( ( ( ( ^ ( ( ( ( ' ^ A 0 - - , < < < < < < < < < < , - - - - - - : , < < < < < < < < < < < < < < < < < ",
"< t A ~ ^ ^ ^ ^ ^ ^ ^ ^ ^ ^ ^ ^ ^ ^ ^ ^ ^ ( ^ C 0 - > 3 3 < < < < < < < < < < , , , , , < < < < < < < < < < 3 < < < < < < < < < ",
"< t A ~ ^ ^ ^ ^ ^ ^ ^ ^ ^ ^ ^ ^ ^ ^ ^ ^ ^ ' ^ C 0 3 q a a q 3 < < < < < < < < < < < < < < < < < < < < < < 3 0 6 3 < < < < < < < ",
"< q C R R ^ ^ ^ ^ ^ ^ ^ ^ ^ ^ ^ ^ ^ ^ ^ ^ ^ R N 9 0 M H A m q < < < < < < < < < < < < < < < < < < < < < < q x d 9 < < < < < < < ",
"< 4 x V A A A A A A F F F F F F A A F F A A A d 3 6 m A B h 0 < < < < < < < < < < < < < < < < < < < < < < 0 g p 9 < < < < < < < ",
"< < 6 q t t t t t t t t t t t t t t t t t t t 9 < < q y q 0 < < < < < < < < < < < < < < < < < < < < < < < 9 0 9 3 < < < < < < < ",
"< < < < < < < < < < < < < < < < < < < < < < < < < < < < < < < < < < < < < < < < < < < < < < < < < < < < < < < < < < < < < < < < "
};
